<svg width="32" height="32" viewBox="0 0 32 32" fill="none" xmlns="http://www.w3.org/2000/svg">
<rect width="32" height="32" rx="16" fill="#33A175"/>
<path d="M16.0232 8.01388C18.2231 8.01388 20.4231 8.01388 22.6298 8.01388C22.8261 8.01388 22.8802 8.06246 22.8802 8.26724C22.8802 9.25642 22.8802 10.2421 22.8802 11.2278C22.8802 11.4187 22.8261 11.4604 22.6501 11.4569C21.1237 11.4569 19.604 11.4569 18.0674 11.4569C17.8677 11.4569 17.8271 11.5124 17.8305 11.7033C17.844 12.298 17.844 12.8915 17.8305 13.4839C17.8305 13.6713 17.8677 13.7303 18.064 13.7407C19.6713 13.7951 21.269 14.016 22.8329 14.4002C23.3468 14.5226 23.8445 14.7078 24.3153 14.952C24.5048 15.0481 24.6766 15.1773 24.823 15.3338C24.8787 15.3849 24.9232 15.4475 24.9537 15.5175C24.9842 15.5875 25 15.6632 25 15.7399C25 15.8165 24.9842 15.8923 24.9537 15.9623C24.9232 16.0323 24.8787 16.0949 24.823 16.146C24.5366 16.4317 24.1888 16.6445 23.8076 16.7673C22.8796 17.1053 21.9183 17.338 20.9409 17.4614C19.9746 17.613 19.0004 17.7057 18.0234 17.7391C17.8407 17.7391 17.8407 17.8363 17.8407 17.9751C17.8407 20.2242 17.8407 22.4871 17.8407 24.7223C17.8407 24.9514 17.7831 25 17.5665 25C16.5105 25 15.4512 25 14.3952 25C14.2158 25 14.182 24.9479 14.182 24.7779C14.182 22.5496 14.182 20.3248 14.182 18.0966C14.182 17.7495 14.182 17.7495 13.8435 17.7495C12.2629 17.6779 10.6928 17.4478 9.15595 17.0623C8.57543 16.9333 8.0189 16.7095 7.50768 16.3993C6.83077 15.9655 6.83077 15.483 7.50768 15.0561C8.18999 14.6612 8.93461 14.3922 9.70763 14.2613C11.1175 13.9591 12.5497 13.7791 13.9891 13.7234C14.1549 13.7234 14.1921 13.6678 14.1888 13.5082C14.1888 12.9042 14.1888 12.3038 14.1888 11.7033C14.1888 11.509 14.1515 11.443 13.9451 11.4465C12.422 11.4465 10.899 11.4465 9.37933 11.4465C9.17287 11.4465 9.13564 11.3806 9.13564 11.1862C9.13564 10.2074 9.13564 9.22865 9.13564 8.24641C9.13564 8.03122 9.20333 8 9.38948 8C11.603 8.01735 13.8131 8.01388 16.0232 8.01388ZM16.1416 17.1629C17.2965 17.1755 18.4511 17.1245 19.6006 17.0102C20.6288 16.9242 21.648 16.7477 22.6467 16.4827C23.0489 16.3885 23.434 16.2291 23.7873 16.0106C24.2374 15.7086 24.2307 15.3893 23.7873 15.0874C23.5678 14.9374 23.3284 14.8205 23.0765 14.7403C21.4072 14.2689 19.6869 14.0136 17.9557 13.9802C17.7967 13.9802 17.8237 14.0704 17.8237 14.1642C17.8237 14.8583 17.8237 15.5733 17.8237 16.2779C17.8237 16.4375 17.7865 16.5035 17.6241 16.5104C16.5308 16.5521 15.4376 16.559 14.3444 16.5104C14.2023 16.5104 14.1684 16.4514 14.1684 16.3126C14.1684 15.5976 14.1684 14.8861 14.1684 14.1746C14.1684 14.0149 14.1244 13.9802 13.9721 13.9837C13.2208 14.0184 12.4694 14.0843 11.7214 14.1746C10.7708 14.2719 9.83208 14.466 8.91903 14.7542C8.64907 14.8314 8.39143 14.9483 8.15413 15.1013C7.7446 15.3893 7.74798 15.7017 8.15413 15.9898C8.31245 16.0961 8.48154 16.1846 8.65842 16.2536C9.25592 16.479 9.87383 16.643 10.503 16.743C12.3667 17.0535 14.2537 17.194 16.1416 17.1629Z" fill="#2F3032"/>
</svg>
