<svg width="24" height="28" viewBox="0 0 24 28" fill="none" xmlns="http://www.w3.org/2000/svg">
<path d="M11.9998 25.2013C16.9833 25.2013 20.9942 21.1194 20.9942 16.1206C20.9942 13.0053 20.0823 9.82385 18.5753 7.384C17.0985 4.99312 14.8254 2.99219 11.9998 2.99219C9.16919 2.99219 6.89678 5.01235 5.42325 7.40498C3.9181 9.84895 3.00537 13.0294 3.00537 16.1206C3.00537 21.1194 7.01625 25.2013 11.9998 25.2013Z" fill="#FBE626" stroke="#2F3032" stroke-width="3"/>
<path d="M19.4943 16.1212C19.4943 20.3078 16.1388 23.7018 11.9999 23.7018C8.65993 23.7018 5.83016 21.4921 4.86182 18.4384C6.06809 20.4186 8.23164 21.7384 10.6995 21.7384C14.4844 21.7384 17.5532 18.6342 17.5532 14.8059C17.5532 10.364 15.3166 5.75653 12.3075 4.50391C16.3037 4.78824 19.4943 10.5722 19.4943 16.1212Z" fill="#E2BA2A"/>
<path opacity="0.7" d="M9.73537 9.00433C8.61541 10.5189 7.88058 11.8767 7.221 11.3775C6.56143 10.8782 6.93438 9.24612 8.05433 7.73155C9.17318 6.21811 10.6163 5.39534 11.2759 5.89348C11.9354 6.39274 10.8553 7.48976 9.73537 9.00433Z" fill="#FFFCF6"/>
<path opacity="0.7" d="M6.81176 13.8704C6.57493 14.6853 6.47533 15.3738 6.12009 15.2685C5.76485 15.1633 5.52912 14.3417 5.76595 13.5267C6.00278 12.7118 6.62252 12.2114 6.97776 12.3166C7.333 12.4219 7.04859 13.0543 6.81176 13.8704Z" fill="#FFFCF6"/>
<path d="M11.4444 20.2018C11.4444 20.4167 11.1788 20.5913 10.8501 20.5913C10.5226 20.5913 10.2559 20.4167 10.2559 20.2018C10.2559 19.9868 10.4805 19.9062 10.8081 19.9062C11.1357 19.9062 11.4444 19.9857 11.4444 20.2018Z" fill="#E2BA2A"/>
<path d="M13.858 19.6214C13.9808 19.7972 13.8646 20.0949 13.5968 20.2875C13.329 20.48 13.0125 20.4934 12.8896 20.3177C12.7668 20.1419 12.904 19.946 13.1707 19.7535C13.4375 19.561 13.734 19.4468 13.858 19.6214Z" fill="#E2BA2A"/>
<path d="M12.6993 19.2549C12.7414 19.4542 12.53 19.668 12.2267 19.734C11.9235 19.8001 11.6435 19.6915 11.6015 19.4922C11.5594 19.293 11.7509 19.1743 12.0541 19.1094C12.3573 19.0445 12.6572 19.0568 12.6993 19.2549Z" fill="#E2BA2A"/>
</svg>
