<svg width="56" height="56" viewBox="0 0 56 56" fill="none" xmlns="http://www.w3.org/2000/svg">
<rect x="2" y="2" width="52" height="52" rx="14" stroke="#2F3032" stroke-width="4"/>
<path d="M27.9865 14.668C20.6265 14.668 14.6665 20.6413 14.6665 28.0013C14.6665 35.3613 20.6265 41.3346 27.9865 41.3346C35.3598 41.3346 41.3332 35.3613 41.3332 28.0013C41.3332 20.6413 35.3598 14.668 27.9865 14.668ZM37.2265 22.668H33.2932C32.8752 21.0168 32.2573 19.4228 31.4532 17.9213C33.8853 18.7586 35.9347 20.4436 37.2265 22.668ZM27.9998 17.388C29.1065 18.988 29.9732 20.7613 30.5465 22.668H25.4532C26.0265 20.7613 26.8932 18.988 27.9998 17.388ZM17.6798 30.668C17.4665 29.8146 17.3332 28.9213 17.3332 28.0013C17.3332 27.0813 17.4665 26.188 17.6798 25.3346H22.1865C22.0798 26.2146 21.9998 27.0946 21.9998 28.0013C21.9998 28.908 22.0798 29.788 22.1865 30.668H17.6798ZM18.7732 33.3346H22.7065C23.1332 35.0013 23.7465 36.6013 24.5465 38.0813C22.1126 37.2472 20.0622 35.5614 18.7732 33.3346ZM22.7065 22.668H18.7732C20.0622 20.4412 22.1126 18.7554 24.5465 17.9213C23.7423 19.4228 23.1244 21.0168 22.7065 22.668ZM27.9998 38.6146C26.8932 37.0146 26.0265 35.2413 25.4532 33.3346H30.5465C29.9732 35.2413 29.1065 37.0146 27.9998 38.6146ZM31.1198 30.668H24.8798C24.7598 29.788 24.6665 28.908 24.6665 28.0013C24.6665 27.0946 24.7598 26.2013 24.8798 25.3346H31.1198C31.2398 26.2013 31.3332 27.0946 31.3332 28.0013C31.3332 28.908 31.2398 29.788 31.1198 30.668ZM31.4532 38.0813C32.2532 36.6013 32.8665 35.0013 33.2932 33.3346H37.2265C35.9347 35.559 33.8853 37.244 31.4532 38.0813ZM33.8132 30.668C33.9198 29.788 33.9998 28.908 33.9998 28.0013C33.9998 27.0946 33.9198 26.2146 33.8132 25.3346H38.3198C38.5332 26.188 38.6665 27.0813 38.6665 28.0013C38.6665 28.9213 38.5332 29.8146 38.3198 30.668H33.8132Z" fill="#2F3032"/>
</svg>
