<svg width="56" height="56" viewBox="0 0 56 56" fill="none" xmlns="http://www.w3.org/2000/svg">
<rect x="2" y="2" width="52" height="52" rx="14" stroke="#2F3032" stroke-width="4"/>
<path d="M21.8706 42H35.1294C37.7141 42 39 40.6777 39 38.0583V26.6237H29.9607C28.3626 26.6237 27.6136 25.8553 27.6136 24.2434V15H21.8706C19.2987 15 18 16.3347 18 18.9546V38.0583C18 40.69 19.2987 42 21.8706 42ZM29.9985 24.8984H38.8626C38.7752 24.382 38.413 23.878 37.8265 23.2612L30.9344 16.1966C30.3602 15.5921 29.836 15.2267 29.3113 15.1381V24.2187C29.3113 24.6716 29.5489 24.8984 29.9985 24.8984Z" fill="#2F3032"/>
</svg>
