<svg width="32" height="32" viewBox="0 0 32 32" fill="none" xmlns="http://www.w3.org/2000/svg">
<rect width="32" height="32" rx="16" fill="#9CEF00"/>
<path fill-rule="evenodd" clip-rule="evenodd" d="M20.7021 5.41747L27.5147 12.1654C28.4213 13.0633 27.7792 14.5985 26.4972 14.5985H22.7662C22.3846 14.5985 22.0186 14.4484 21.7487 14.1811L14.936 7.43319L6.11737 16.168L14.936 24.9028L16.1231 23.7269L13.4138 21.0433C13.0391 20.6722 13.0391 20.0706 13.4138 19.6995C13.7884 19.3284 14.3958 19.3284 14.7705 19.6995L17.4799 22.3831L20.4808 19.4107C20.7435 19.1505 21.0976 19.001 21.4691 18.9935L26.5286 18.8916C27.8245 18.8655 28.4919 20.4166 27.5754 21.3245L23.3466 25.513C23.1889 25.6693 22.9926 25.7816 22.7773 25.8387C21.7945 26.0996 21.1136 24.9571 21.8382 24.2479C23.0136 23.0975 24.2128 21.9675 25.3757 20.8156L21.701 20.8897L15.9536 26.5825C15.3916 27.1392 14.4804 27.1392 13.9185 26.5825L4.42148 17.1758C3.85951 16.6192 3.85951 15.7167 4.42148 15.1601L13.9185 5.75342C14.4804 5.1968 15.3916 5.1968 15.9536 5.75342L17.1407 6.92926L18.667 5.41747C19.229 4.86084 20.1401 4.86084 20.7021 5.41747ZM19.6845 7.09724L18.4974 8.27307L22.9649 12.6981H25.3392L19.6845 7.09724Z" fill="#2F3032"/>
<path d="M14.9882 10.4568C15.3628 10.8279 15.3628 11.4295 14.9882 11.8006L10.892 15.8579L12.1997 17.1532C12.5744 17.5243 12.5744 18.1259 12.1997 18.497C11.8251 18.8681 11.2177 18.8681 10.843 18.497L9.19606 16.8657C8.63409 16.3091 8.63409 15.4066 9.19606 14.85L13.6315 10.4568C14.0061 10.0857 14.6135 10.0857 14.9882 10.4568Z" fill="#2F3032"/>
<path d="M17.5336 13.1294C17.1589 12.7583 16.5515 12.7583 16.1769 13.1294C15.8022 13.5005 15.8022 14.1021 16.1769 14.4732L18.9144 17.1847C19.1843 17.452 19.5503 17.6022 19.9319 17.6022H26.7533C27.2831 17.6022 27.7126 17.1767 27.7126 16.6519C27.7126 16.1272 27.2831 15.7017 26.7533 15.7017H20.1306L17.5336 13.1294Z" fill="#2F3032"/>
</svg>
