<svg width="48" height="48" viewBox="0 0 48 48" fill="none" xmlns="http://www.w3.org/2000/svg">
<g clip-path="url(#clip0_11085_7020)">
<rect width="48" height="48" rx="24" fill="#172D2F"/>
<rect x="3" y="10" width="21" height="29" fill="url(#paint0_linear_11085_7020)" fill-opacity="0.7"/>
<path fill-rule="evenodd" clip-rule="evenodd" d="M35.1832 18.7132C34.8806 15.5395 32.1062 14.4877 28.601 14.2005L28.6112 9.79602L25.8944 9.80891L25.8845 14.0973C25.1712 14.1005 24.4414 14.1178 23.7162 14.1354L23.7267 9.81855L21.0121 9.83089L21.0008 14.2341C20.4127 14.2487 19.8352 14.2621 19.2721 14.265L19.2718 14.2514L15.5257 14.2673L15.5197 17.1306C15.5197 17.1306 17.5255 17.0837 17.4921 17.1203C18.5922 17.1156 18.9495 17.7442 19.0517 18.288L19.0402 23.3056C19.1161 23.3057 19.2151 23.3083 19.3272 23.323L19.041 23.3245L19.0232 30.3539C18.9741 30.6958 18.7693 31.2417 18.0006 31.2465C18.0353 31.2767 16.0263 31.255 16.0263 31.255L15.4793 34.46L19.0146 34.4435C19.4137 34.4421 19.8088 34.4446 20.1997 34.447L20.2003 34.447C20.4534 34.4485 20.7047 34.4501 20.9541 34.4506L20.945 38.9059L23.6582 38.8939L23.6691 34.4862C24.4133 34.4982 25.1342 34.5007 25.8381 34.4969L25.8266 38.8841L28.5427 38.8714L28.5539 34.4247C33.1208 34.1452 36.3201 32.9949 36.7256 28.7615C37.054 25.3518 35.4341 23.8383 32.8433 23.2351C34.4195 22.4349 35.4073 21.0358 35.1825 18.7134L35.1832 18.7132ZM31.3602 28.2557C31.3538 31.3112 26.4903 31.2661 24.2671 31.2455C24.0681 31.2436 23.89 31.242 23.7387 31.2428L23.7532 25.3406C23.9382 25.3398 24.163 25.3336 24.4176 25.3265C26.6964 25.2629 31.3665 25.1328 31.361 28.2555L31.3602 28.2557ZM24.2063 22.6422C26.0625 22.6637 30.1085 22.7106 30.1158 19.9345C30.1228 17.0946 26.2299 17.2145 24.3287 17.273C24.115 17.2796 23.9264 17.2854 23.7714 17.2862L23.7587 22.6391C23.8866 22.6385 24.0374 22.6403 24.2063 22.6422Z" fill="#C3FDF3"/>
</g>
<defs>
<linearGradient id="paint0_linear_11085_7020" x1="23" y1="25" x2="-5.81386e-07" y2="25" gradientUnits="userSpaceOnUse">
<stop stop-color="#C3FDF3"/>
<stop offset="1" stop-color="#C3FDF3" stop-opacity="0.6"/>
</linearGradient>
<clipPath id="clip0_11085_7020">
<rect width="48" height="48" rx="24" fill="white"/>
</clipPath>
</defs>
</svg>
