<svg width="41" height="47" viewBox="0 0 41 47" fill="none" xmlns="http://www.w3.org/2000/svg">
<path d="M25.1263 39.0327V44.2992L20.4332 47L15.8781 44.2992V39.0327L20.4332 41.7335L25.1263 39.0327ZM0 20.7981L4.55506 23.4989V32.5487L12.4251 37.14V42.4065L0 35.2495V20.7981ZM40.8642 20.7981V35.2495L28.301 42.4065V37.14L36.1711 32.5487V23.5011L40.8642 20.7981ZM28.301 13.6411L32.9941 16.3419V21.6084L25.1241 26.1997V35.3845L20.569 38.0853L16.014 35.3845V26.2019L7.87006 21.6084V16.3419L12.5632 13.6411L20.4332 18.2324L28.301 13.6411ZM7.87006 25.3916L12.4251 28.0924V33.3589L7.87006 30.6581V25.3916ZM32.9941 25.3916V30.6581L28.4391 33.3589V28.0924L32.9941 25.3916ZM4.55506 9.04977L9.24815 11.7505L4.55506 14.4513V19.7178L0 17.0171V11.7505L4.55506 9.04977ZM36.3069 9.04977L41 11.7505V17.0171L36.3069 19.7178V14.4513L31.7518 11.7505L36.3069 9.04977ZM20.431 9.04977L25.1241 11.7505L20.431 14.4513L15.8759 11.7505L20.431 9.04977ZM20.431 0L32.9941 7.15705L28.4391 9.85783L20.569 5.26651L12.5632 9.86L8.00809 7.15923L20.431 0Z" fill="#FFC300"/>
</svg>
