<svg width="41" height="53" viewBox="0 0 41 53" fill="none" xmlns="http://www.w3.org/2000/svg">
<path d="M25.1263 39.0327V44.2992L20.4332 47L15.8781 44.2992V39.0327L20.4332 41.7335L25.1263 39.0327ZM0 20.7981L4.55506 23.4989V32.5487L12.4251 37.14V42.4065L0 35.2495V20.7981ZM40.8642 20.7981V35.2495L28.301 42.4065V37.14L36.1711 32.5487V23.5011L40.8642 20.7981ZM28.301 13.6411L32.9941 16.3419V21.6084L25.1241 26.1997V35.3845L20.569 38.0853L16.014 35.3845V26.2019L7.87006 21.6084V16.3419L12.5632 13.6411L20.4332 18.2324L28.301 13.6411ZM7.87006 25.3916L12.4251 28.0924V33.3589L7.87006 30.6581V25.3916ZM32.9941 25.3916V30.6581L28.4391 33.3589V28.0924L32.9941 25.3916ZM4.55506 9.04977L9.24815 11.7505L4.55506 14.4513V19.7178L0 17.0171V11.7505L4.55506 9.04977ZM36.3069 9.04977L41 11.7505V17.0171L36.3069 19.7178V14.4513L31.7518 11.7505L36.3069 9.04977ZM20.431 9.04977L25.1241 11.7505L20.431 14.4513L15.8759 11.7505L20.431 9.04977ZM20.431 0L32.9941 7.15705L28.4391 9.85783L20.569 5.26651L12.5632 9.86L8.00809 7.15923L20.431 0Z" fill="#FFC300"/>
<mask id="path-2-outside-1_13901_6257" maskUnits="userSpaceOnUse" x="6" y="35" width="27" height="18" fill="black">
<rect fill="white" x="6" y="35" width="27" height="18"/>
<path d="M13.8779 49.1465C12.9648 49.1465 12.2031 48.9756 11.5928 48.6338C10.9873 48.292 10.5308 47.8135 10.2231 47.1982C9.91553 46.5781 9.76172 45.853 9.76172 45.0229C9.76172 44.4663 9.81299 43.9121 9.91553 43.3604C10.0181 42.8086 10.1743 42.2764 10.3843 41.7637C10.5942 41.2461 10.8579 40.7676 11.1753 40.3281C11.4927 39.8887 11.8662 39.5054 12.2959 39.1782C12.7256 38.8462 13.2114 38.5874 13.7534 38.4019C14.3003 38.2163 14.9058 38.1235 15.5698 38.1235C16.8882 38.1235 17.8867 38.4995 18.5654 39.2515C19.249 40.0034 19.5908 41.002 19.5908 42.2471C19.5908 42.8037 19.5396 43.3604 19.437 43.917C19.3394 44.4688 19.188 45.0034 18.9829 45.521C18.7827 46.0337 18.5264 46.5098 18.2139 46.9492C17.9014 47.3887 17.5327 47.7744 17.1079 48.1064C16.688 48.4336 16.2095 48.6899 15.6724 48.8755C15.1353 49.0562 14.5371 49.1465 13.8779 49.1465ZM14.127 46.7808C14.3662 46.7808 14.5957 46.7271 14.8154 46.6196C15.0352 46.5122 15.2402 46.3608 15.4307 46.1655C15.626 45.9653 15.7993 45.7285 15.9507 45.4551C16.1069 45.1768 16.2412 44.8716 16.3535 44.5396C16.4658 44.2026 16.5513 43.8438 16.6099 43.4629C16.6685 43.082 16.6978 42.6865 16.6978 42.2764C16.6978 41.7246 16.5806 41.29 16.3462 40.9727C16.1118 40.6553 15.7725 40.4966 15.3281 40.4966C15.0596 40.4966 14.8081 40.5576 14.5737 40.6797C14.3394 40.8018 14.1221 40.9702 13.9219 41.1851C13.7266 41.3999 13.5508 41.6514 13.3945 41.9395C13.2383 42.2275 13.104 42.54 12.9917 42.877C12.8843 43.2139 12.8013 43.563 12.7427 43.9243C12.689 44.2856 12.6621 44.647 12.6621 45.0083C12.6621 45.394 12.7158 45.7188 12.8232 45.9824C12.9355 46.2461 13.0991 46.4463 13.314 46.583C13.5337 46.7148 13.8047 46.7808 14.127 46.7808ZM20.3013 49L22.5645 38.292H25.2964C26.2437 38.292 27.0029 38.4336 27.5742 38.7168C28.1504 39 28.5679 39.3857 28.8267 39.874C29.0903 40.3574 29.2222 40.8994 29.2222 41.5C29.2222 42.1396 29.1074 42.7061 28.8779 43.1992C28.6533 43.6875 28.3311 44.1001 27.9111 44.437C27.4961 44.769 27.0005 45.0205 26.4243 45.1914C25.853 45.3623 25.2207 45.4478 24.5273 45.4478H23.8975L23.165 49H20.3013ZM24.4102 43.104H24.8716C25.1743 43.104 25.4355 43.0381 25.6553 42.9062C25.8799 42.7744 26.0532 42.5938 26.1753 42.3643C26.2974 42.1348 26.3584 41.876 26.3584 41.5879C26.3584 41.3438 26.2803 41.124 26.124 40.9287C25.9727 40.7285 25.7212 40.6284 25.3696 40.6284H24.9375L24.4102 43.104Z"/>
</mask>
<path d="M13.8779 49.1465C12.9648 49.1465 12.2031 48.9756 11.5928 48.6338C10.9873 48.292 10.5308 47.8135 10.2231 47.1982C9.91553 46.5781 9.76172 45.853 9.76172 45.0229C9.76172 44.4663 9.81299 43.9121 9.91553 43.3604C10.0181 42.8086 10.1743 42.2764 10.3843 41.7637C10.5942 41.2461 10.8579 40.7676 11.1753 40.3281C11.4927 39.8887 11.8662 39.5054 12.2959 39.1782C12.7256 38.8462 13.2114 38.5874 13.7534 38.4019C14.3003 38.2163 14.9058 38.1235 15.5698 38.1235C16.8882 38.1235 17.8867 38.4995 18.5654 39.2515C19.249 40.0034 19.5908 41.002 19.5908 42.2471C19.5908 42.8037 19.5396 43.3604 19.437 43.917C19.3394 44.4688 19.188 45.0034 18.9829 45.521C18.7827 46.0337 18.5264 46.5098 18.2139 46.9492C17.9014 47.3887 17.5327 47.7744 17.1079 48.1064C16.688 48.4336 16.2095 48.6899 15.6724 48.8755C15.1353 49.0562 14.5371 49.1465 13.8779 49.1465ZM14.127 46.7808C14.3662 46.7808 14.5957 46.7271 14.8154 46.6196C15.0352 46.5122 15.2402 46.3608 15.4307 46.1655C15.626 45.9653 15.7993 45.7285 15.9507 45.4551C16.1069 45.1768 16.2412 44.8716 16.3535 44.5396C16.4658 44.2026 16.5513 43.8438 16.6099 43.4629C16.6685 43.082 16.6978 42.6865 16.6978 42.2764C16.6978 41.7246 16.5806 41.29 16.3462 40.9727C16.1118 40.6553 15.7725 40.4966 15.3281 40.4966C15.0596 40.4966 14.8081 40.5576 14.5737 40.6797C14.3394 40.8018 14.1221 40.9702 13.9219 41.1851C13.7266 41.3999 13.5508 41.6514 13.3945 41.9395C13.2383 42.2275 13.104 42.54 12.9917 42.877C12.8843 43.2139 12.8013 43.563 12.7427 43.9243C12.689 44.2856 12.6621 44.647 12.6621 45.0083C12.6621 45.394 12.7158 45.7188 12.8232 45.9824C12.9355 46.2461 13.0991 46.4463 13.314 46.583C13.5337 46.7148 13.8047 46.7808 14.127 46.7808ZM20.3013 49L22.5645 38.292H25.2964C26.2437 38.292 27.0029 38.4336 27.5742 38.7168C28.1504 39 28.5679 39.3857 28.8267 39.874C29.0903 40.3574 29.2222 40.8994 29.2222 41.5C29.2222 42.1396 29.1074 42.7061 28.8779 43.1992C28.6533 43.6875 28.3311 44.1001 27.9111 44.437C27.4961 44.769 27.0005 45.0205 26.4243 45.1914C25.853 45.3623 25.2207 45.4478 24.5273 45.4478H23.8975L23.165 49H20.3013ZM24.4102 43.104H24.8716C25.1743 43.104 25.4355 43.0381 25.6553 42.9062C25.8799 42.7744 26.0532 42.5938 26.1753 42.3643C26.2974 42.1348 26.3584 41.876 26.3584 41.5879C26.3584 41.3438 26.2803 41.124 26.124 40.9287C25.9727 40.7285 25.7212 40.6284 25.3696 40.6284H24.9375L24.4102 43.104Z" fill="#2F3032"/>
<path d="M11.5928 48.6338L10.118 51.2463L10.127 51.2513L11.5928 48.6338ZM10.2231 47.1982L7.53563 48.5314L7.53986 48.5399L10.2231 47.1982ZM10.3843 41.7637L13.1605 42.9006L13.1642 42.8914L10.3843 41.7637ZM12.2959 39.1782L14.1132 41.5651L14.1217 41.5586L14.1302 41.5521L12.2959 39.1782ZM13.7534 38.4019L12.7895 35.5609L12.7818 35.5636L13.7534 38.4019ZM18.5654 39.2515L16.3384 41.2616L16.3456 41.2695L18.5654 39.2515ZM19.437 43.917L16.4867 43.3735L16.4848 43.3838L16.4829 43.3941L19.437 43.917ZM18.9829 45.521L16.1939 44.4159L16.1911 44.4228L16.1884 44.4298L18.9829 45.521ZM17.1079 48.1064L18.9516 50.473L18.9554 50.4701L17.1079 48.1064ZM15.6724 48.8755L16.6288 51.7189L16.6404 51.715L16.6519 51.7111L15.6724 48.8755ZM15.4307 46.1655L13.2833 44.0706L13.2827 44.0712L15.4307 46.1655ZM15.9507 45.4551L13.3347 43.9865L13.3303 43.9943L13.326 44.0021L15.9507 45.4551ZM16.3535 44.5396L19.1954 45.5008L19.1996 45.4882L16.3535 44.5396ZM16.3462 40.9727L13.9329 42.7548L16.3462 40.9727ZM13.9219 41.1851L11.7271 39.1399L11.7145 39.1534L11.7021 39.167L13.9219 41.1851ZM12.9917 42.877L10.1456 41.9283L10.1394 41.9469L10.1335 41.9656L12.9917 42.877ZM12.7427 43.9243L9.78136 43.4441L9.77819 43.4636L9.77528 43.4832L12.7427 43.9243ZM12.8232 45.9824L10.045 47.1143L10.0539 47.1362L10.0632 47.158L12.8232 45.9824ZM13.314 46.583L11.7033 49.114L11.7366 49.1352L11.7705 49.1555L13.314 46.583ZM13.8779 46.1465C13.3259 46.1465 13.1048 46.0421 13.0586 46.0163L10.127 51.2513C11.3015 51.909 12.6038 52.1465 13.8779 52.1465V46.1465ZM13.0676 46.0213C12.9765 45.9699 12.9437 45.9312 12.9064 45.8566L7.53986 48.5399C8.11781 49.6958 8.9981 50.6141 10.118 51.2463L13.0676 46.0213ZM12.9106 45.8651C12.8456 45.7339 12.7617 45.4816 12.7617 45.0229H6.76172C6.76172 46.2244 6.98549 47.4224 7.53564 48.5314L12.9106 45.8651ZM12.7617 45.0229C12.7617 44.6517 12.7958 44.281 12.865 43.9085L6.96603 42.8122C6.83017 43.5433 6.76172 44.2809 6.76172 45.0229H12.7617ZM12.865 43.9085C12.9306 43.5558 13.0293 43.221 13.1605 42.9006L7.60806 40.6267C7.31935 41.3317 7.10556 42.0614 6.96603 42.8122L12.865 43.9085ZM13.1642 42.8914C13.2866 42.5898 13.4349 42.3233 13.6073 42.0846L8.74326 38.5717C8.2809 39.2118 7.90188 39.9024 7.60431 40.6359L13.1642 42.8914ZM13.6073 42.0846C13.7526 41.8835 13.9192 41.7128 14.1132 41.5651L10.4786 36.7913C9.8132 37.2979 9.23276 37.8939 8.74326 38.5717L13.6073 42.0846ZM14.1302 41.5521C14.2857 41.4319 14.4769 41.3251 14.7251 41.2401L12.7818 35.5636C11.9459 35.8497 11.1654 36.2605 10.4616 36.8044L14.1302 41.5521ZM14.7173 41.2428C14.9111 41.177 15.1853 41.1235 15.5698 41.1235V35.1235C14.6262 35.1235 13.6895 35.2556 12.7895 35.5609L14.7173 41.2428ZM15.5698 41.1235C15.95 41.1235 16.1582 41.1784 16.2504 41.2131C16.3262 41.2417 16.337 41.26 16.3384 41.2616L20.7924 37.2414C19.3856 35.6827 17.466 35.1235 15.5698 35.1235V41.1235ZM16.3456 41.2695C16.4201 41.3514 16.5908 41.5721 16.5908 42.2471H22.5908C22.5908 40.4318 22.0779 38.6554 20.7852 37.2334L16.3456 41.2695ZM16.5908 42.2471C16.5908 42.6184 16.5567 42.9931 16.4867 43.3735L22.3874 44.4605C22.5224 43.7276 22.5908 42.9891 22.5908 42.2471H16.5908ZM16.4829 43.3941C16.4203 43.7481 16.324 44.0876 16.1939 44.4159L21.772 46.6261C22.052 45.9193 22.2584 45.1894 22.3911 44.4398L16.4829 43.3941ZM16.1884 44.4298C16.0759 44.718 15.9359 44.976 15.769 45.2106L20.6587 48.6878C21.1168 48.0436 21.4895 47.3494 21.7774 46.6122L16.1884 44.4298ZM15.769 45.2106C15.6244 45.414 15.457 45.5892 15.2605 45.7428L18.9554 50.4701C19.6085 49.9596 20.1783 49.3633 20.6587 48.6878L15.769 45.2106ZM15.2642 45.7399C15.1216 45.8509 14.9392 45.9548 14.6928 46.0399L16.6519 51.7111C17.4798 51.4251 18.2543 51.0163 18.9516 50.473L15.2642 45.7399ZM14.7159 46.032C14.5327 46.0937 14.2639 46.1465 13.8779 46.1465V52.1465C14.8104 52.1465 15.7378 52.0186 16.6288 51.7189L14.7159 46.032ZM14.127 49.7808C14.8333 49.7808 15.5125 49.6182 16.1331 49.3148L13.4978 43.9245C13.6789 43.8359 13.8991 43.7808 14.127 43.7808V49.7808ZM16.1331 49.3148C16.6955 49.0398 17.1755 48.6734 17.5787 48.2598L13.2827 44.0712C13.305 44.0483 13.3748 43.9846 13.4978 43.9245L16.1331 49.3148ZM17.578 48.2605C17.9808 47.8476 18.3093 47.3887 18.5754 46.908L13.326 44.0021C13.2894 44.0683 13.2711 44.0831 13.2833 44.0706L17.578 48.2605ZM18.5666 46.9237C18.8221 46.4687 19.0293 45.9916 19.1954 45.5008L13.5117 43.5783C13.4531 43.7516 13.3918 43.8848 13.3347 43.9865L18.5666 46.9237ZM19.1996 45.4882C19.3697 44.9779 19.4928 44.4532 19.575 43.9191L13.6447 43.0067C13.6097 43.2343 13.562 43.4274 13.5075 43.5909L19.1996 45.4882ZM19.575 43.9191C19.6582 43.3779 19.6978 42.8295 19.6978 42.2764H13.6978C13.6978 42.5435 13.6787 42.7861 13.6447 43.0067L19.575 43.9191ZM19.6978 42.2764C19.6978 41.3322 19.5002 40.1936 18.7595 39.1905L13.9329 42.7548C13.6609 42.3865 13.6978 42.117 13.6978 42.2764H19.6978ZM18.7595 39.1905C17.8822 38.0025 16.5864 37.4966 15.3281 37.4966V43.4966C15.1919 43.4966 14.9405 43.4713 14.6451 43.3331C14.3377 43.1894 14.0963 42.9761 13.9329 42.7548L18.7595 39.1905ZM15.3281 37.4966C14.5852 37.4966 13.8574 37.6703 13.1879 38.0189L15.9595 43.3404C15.7588 43.445 15.5339 43.4966 15.3281 43.4966V37.4966ZM13.1879 38.0189C12.6191 38.3152 12.1342 38.7029 11.7271 39.1399L16.1167 43.2302C16.1099 43.2375 16.0596 43.2883 15.9595 43.3404L13.1879 38.0189ZM11.7021 39.167C11.3253 39.5815 11.0142 40.0358 10.7574 40.5092L16.0316 43.3697C16.0874 43.2669 16.1278 43.2183 16.1417 43.2031L11.7021 39.167ZM10.7574 40.5092C10.511 40.9636 10.3088 41.4387 10.1456 41.9283L15.8377 43.8256C15.8992 43.6414 15.9656 43.4915 16.0316 43.3697L10.7574 40.5092ZM10.1335 41.9656C9.97955 42.4484 9.86281 42.9418 9.78136 43.4441L15.704 44.4045C15.7397 44.1841 15.789 43.9794 15.8499 43.7883L10.1335 41.9656ZM9.77528 43.4832C9.7001 43.989 9.66211 44.4977 9.66211 45.0083H15.6621C15.6621 44.7962 15.6778 44.5823 15.7101 44.3654L9.77528 43.4832ZM9.66211 45.0083C9.66211 45.6528 9.74916 46.3883 10.045 47.1143L15.6015 44.8505C15.6439 44.9545 15.6581 45.027 15.6622 45.0515C15.6662 45.0758 15.6621 45.0643 15.6621 45.0083H9.66211ZM10.0632 47.158C10.382 47.9066 10.9145 48.612 11.7033 49.114L14.9246 44.052C15.2837 44.2806 15.4891 44.5856 15.5833 44.8068L10.0632 47.158ZM11.7705 49.1555C12.5625 49.6307 13.3996 49.7808 14.127 49.7808V43.7808C14.2098 43.7808 14.5049 43.799 14.8575 44.0105L11.7705 49.1555ZM20.3013 49L17.3661 48.3796L16.6009 52H20.3013V49ZM22.5645 38.292V35.292H20.1322L19.6293 37.6716L22.5645 38.292ZM27.5742 38.7168L26.2418 41.4047L26.2509 41.4091L27.5742 38.7168ZM28.8267 39.874L26.1759 41.2789L26.1844 41.2948L26.193 41.3106L28.8267 39.874ZM28.8779 43.1992L26.158 41.9335L26.1525 41.9455L28.8779 43.1992ZM27.9111 44.437L29.7852 46.7796L29.7885 46.777L27.9111 44.437ZM26.4243 45.1914L25.5712 42.3153L25.5645 42.3173L26.4243 45.1914ZM23.8975 45.4478V42.4478H21.4529L20.9593 44.8419L23.8975 45.4478ZM23.165 49V52H25.6096L26.1032 49.6058L23.165 49ZM24.4102 43.104L21.476 42.479L20.7038 46.104H24.4102V43.104ZM25.6553 42.9062L24.1367 40.319L24.1242 40.3263L24.1118 40.3338L25.6553 42.9062ZM26.124 40.9287L23.731 42.738L23.7558 42.7708L23.7814 42.8028L26.124 40.9287ZM24.9375 40.6284V37.6284H22.5092L22.0033 40.0034L24.9375 40.6284ZM23.2364 49.6204L25.4996 38.9124L19.6293 37.6716L17.3661 48.3796L23.2364 49.6204ZM22.5645 41.292H25.2964V35.292H22.5645V41.292ZM25.2964 41.292C25.6252 41.292 25.8633 41.3169 26.0263 41.3473C26.1895 41.3778 26.2494 41.4084 26.2418 41.4047L28.9067 36.0289C27.7694 35.4651 26.4998 35.292 25.2964 35.292V41.292ZM26.2509 41.4091C26.3122 41.4393 26.313 41.4491 26.2835 41.4219C26.2692 41.4086 26.2503 41.389 26.2301 41.3629C26.2098 41.3367 26.1914 41.3081 26.1759 41.2789L31.4774 38.4691C30.8768 37.336 29.9459 36.5397 28.8976 36.0245L26.2509 41.4091ZM26.193 41.3106C26.1949 41.3141 26.2222 41.3547 26.2222 41.5H32.2222C32.2222 40.4441 31.9858 39.4008 31.4603 38.4375L26.193 41.3106ZM26.2222 41.5C26.2222 41.7786 26.1733 41.9006 26.158 41.9335L31.5979 44.4649C32.0415 43.5116 32.2222 42.5007 32.2222 41.5H26.2222ZM26.1525 41.9455C26.1228 42.0101 26.0911 42.051 26.0337 42.0971L29.7885 46.777C30.571 46.1492 31.1839 45.3649 31.6034 44.4529L26.1525 41.9455ZM26.037 42.0944C25.9617 42.1547 25.8241 42.2402 25.5712 42.3153L27.2774 48.0676C28.1769 47.8008 29.0305 47.3834 29.7852 46.7796L26.037 42.0944ZM25.5645 42.3173C25.3133 42.3924 24.9757 42.4478 24.5273 42.4478V48.4478C25.4657 48.4478 26.3928 48.3322 27.2841 48.0656L25.5645 42.3173ZM24.5273 42.4478H23.8975V48.4478H24.5273V42.4478ZM20.9593 44.8419L20.2268 48.3942L26.1032 49.6058L26.8357 46.0536L20.9593 44.8419ZM23.165 46H20.3013V52H23.165V46ZM24.4102 46.104H24.8716V40.104H24.4102V46.104ZM24.8716 46.104C25.6185 46.104 26.4342 45.9374 27.1988 45.4787L24.1118 40.3338C24.4369 40.1387 24.7302 40.104 24.8716 40.104V46.104ZM27.1739 45.4935C27.8759 45.0815 28.4408 44.4933 28.8239 43.7731L23.5267 40.9554C23.6656 40.6942 23.8839 40.4674 24.1367 40.319L27.1739 45.4935ZM28.8239 43.7731C29.2009 43.0644 29.3584 42.3131 29.3584 41.5879H23.3584C23.3584 41.4388 23.3939 41.2051 23.5267 40.9554L28.8239 43.7731ZM29.3584 41.5879C29.3584 40.6446 29.0371 39.7677 28.4666 39.0546L23.7814 42.8028C23.6661 42.6587 23.5538 42.4719 23.4732 42.245C23.3922 42.0173 23.3584 41.792 23.3584 41.5879H29.3584ZM28.517 39.1194C27.5942 37.8988 26.2607 37.6284 25.3696 37.6284V43.6284C25.2735 43.6284 25.0279 43.6164 24.7124 43.4908C24.3704 43.3547 24.0117 43.1093 23.731 42.738L28.517 39.1194ZM25.3696 37.6284H24.9375V43.6284H25.3696V37.6284ZM22.0033 40.0034L21.476 42.479L27.3443 43.729L27.8717 41.2534L22.0033 40.0034Z" fill="#FCFDEB" mask="url(#path-2-outside-1_13901_6257)"/>
</svg>
