<svg width="337" height="193" viewBox="0 0 337 193" fill="none" xmlns="http://www.w3.org/2000/svg">
<g opacity="0.65" clip-path="url(#clip0_11937_26135)" filter="url(#filter0_f_11937_26135)">
<path d="M185.341 98.6617L180.085 93.6546L223.024 36.4717L234.846 47.7345L185.341 98.6617Z" fill="url(#paint0_linear_11937_26135)"/>
<path d="M147.595 108.513L153.958 104.008L84.6795 34.881L70.3676 45.0145L147.595 108.513Z" fill="url(#paint1_linear_11937_26135)"/>
<path d="M186.225 104.301L189.873 115.71L305.642 98.5533L297.438 72.8896L186.225 104.301Z" fill="url(#paint2_linear_11937_26135)"/>
<path d="M145.232 117.456L147.962 107.834L-0.65852 93.6354L-6.79919 115.28L145.232 117.456Z" fill="url(#paint3_linear_11937_26135)"/>
<path d="M183.323 117.159L184.688 132.187L317.954 155.308L314.883 121.505L183.323 117.159Z" fill="url(#paint4_linear_11937_26135)"/>
<path d="M138.819 136.435L131.21 127.853L38.6093 170L55.7245 189.305L138.819 136.435Z" fill="url(#paint5_linear_11937_26135)"/>
<path d="M174.902 122.662L162.331 123.312L135.587 186.434L163.865 184.972L174.902 122.662Z" fill="url(#paint6_linear_11937_26135)"/>
<path d="M182.379 123.605L190.966 121.299L259.248 176.496L239.927 181.686L182.379 123.605Z" fill="url(#paint7_linear_11937_26135)"/>
<path d="M131.236 93.3891L120.005 98.5531L-4.46582 47.7734L20.8028 36.1543L131.236 93.3891Z" fill="url(#paint8_linear_11937_26135)"/>
<path d="M175.36 120.601L176.876 127.849L62.4563 147.856L59.0464 131.549L175.36 120.601Z" fill="url(#paint9_linear_11937_26135)"/>
<path d="M169.739 120.817H153.858L143.933 4H179.663L169.739 120.817Z" fill="url(#paint10_linear_11937_26135)"/>
</g>
<path d="M93.1333 83.8217C93.1333 82.1166 94.5155 80.7344 96.2206 80.7344H112.705L128.773 84.9689L139.007 80.7344H246.713C248.382 80.7344 249.748 82.0602 249.799 83.7281L250.162 95.6946L250.162 102.314C250.162 102.444 250.078 102.558 249.955 102.596L249.562 102.717C244.31 104.343 244.273 111.764 249.508 113.443C249.627 113.482 249.708 113.592 249.708 113.717L249.708 121.756L249.708 132.342C249.708 134.047 248.326 135.43 246.621 135.43H96.2206C94.5155 135.43 93.1333 134.047 93.1333 132.342L93.1333 121.756L93.1333 115.871C93.1333 115.296 93.4862 114.777 94.0199 114.562C99.8637 112.208 99.8888 103.897 94.0245 101.595C93.4869 101.384 93.1333 100.865 93.1333 100.288L93.1333 94.4082L93.1333 83.8217Z" fill="#2F3032"/>
<path d="M93.1333 83.8217C93.1333 82.1166 94.5155 80.7344 96.2206 80.7344H112.705L128.773 84.9689L139.007 80.7344H246.713C248.382 80.7344 249.748 82.0602 249.799 83.7281L250.162 95.6946L250.162 102.314C250.162 102.444 250.078 102.558 249.955 102.596L249.562 102.717C244.31 104.343 244.273 111.764 249.508 113.443C249.627 113.482 249.708 113.592 249.708 113.717L249.708 121.756L249.708 132.342C249.708 134.047 248.326 135.43 246.621 135.43H96.2206C94.5155 135.43 93.1333 134.047 93.1333 132.342L93.1333 121.756L93.1333 115.871C93.1333 115.296 93.4862 114.777 94.0199 114.562C99.8637 112.208 99.8888 103.897 94.0245 101.595C93.4869 101.384 93.1333 100.865 93.1333 100.288L93.1333 94.4082L93.1333 83.8217Z" stroke="#2F3032"/>
<path d="M90 83.2748C90 81.5697 91.3822 80.1875 93.0873 80.1875H122.772C123.573 80.1875 124.351 80.4602 124.976 80.9608L126.496 82.1762C127.652 83.1012 129.263 83.2059 130.529 82.4385L133.4 80.6985C133.952 80.3642 134.584 80.1875 135.229 80.1875L168.929 80.1875H244.771C246.476 80.1875 247.858 81.5697 247.858 83.2748L247.858 93.4383L247.858 99.8166C247.858 99.9653 247.766 100.099 247.627 100.151C241.627 102.415 241.648 110.911 247.628 113.226C247.766 113.279 247.858 113.412 247.858 113.56L247.858 119.94L247.858 130.104C247.858 131.809 246.476 133.191 244.771 133.191H93.0873C91.3822 133.191 90 131.809 90 130.104L90 119.94L90 114.247C90 113.685 90.3486 113.18 90.8727 112.977C96.6265 110.749 96.6498 102.573 90.8772 100.395C90.3493 100.196 90 99.6904 90 99.1262L90 93.4383L90 83.2748Z" fill="url(#paint11_linear_11937_26135)" stroke="#2F3032" stroke-width="1.73148"/>
<g clip-path="url(#clip1_11937_26135)">
<g opacity="0.5">
<path d="M125.145 90.9108C125.454 90.9108 125.741 90.9715 126.005 91.0928C126.281 91.2031 126.518 91.3574 126.717 91.5559C126.926 91.7434 127.086 91.9695 127.196 92.2341C127.318 92.4877 127.378 92.7689 127.378 93.0777V98.0234C127.378 98.3653 127.307 98.6685 127.163 98.9332C127.031 99.1868 126.86 99.4239 126.651 99.6444C125.349 100.769 124.032 101.569 122.697 102.043C121.363 102.506 119.979 102.738 118.545 102.738C117.586 102.727 116.649 102.589 115.734 102.324C114.829 102.059 113.975 101.69 113.17 101.216C112.376 100.742 111.648 100.174 110.986 99.5121C110.325 98.8505 109.751 98.1172 109.266 97.3122C108.792 96.4962 108.422 95.625 108.158 94.6987C107.893 93.7614 107.761 92.7855 107.761 91.771C107.761 90.7675 107.888 89.7971 108.141 88.8598C108.395 87.9224 108.753 87.0458 109.216 86.2297C109.691 85.4027 110.253 84.6528 110.904 83.9802C111.565 83.3075 112.299 82.7286 113.104 82.2434C113.92 81.7582 114.791 81.3833 115.717 81.1186C116.654 80.8429 117.63 80.7051 118.645 80.7051C120.211 80.7051 121.639 80.9808 122.929 81.5321C124.23 82.0725 125.432 82.8885 126.535 83.9802C126.755 84.2007 126.915 84.4433 127.014 84.708C127.125 84.9616 127.18 85.2263 127.18 85.5019C127.18 85.7887 127.119 86.0643 126.998 86.329C126.877 86.5936 126.711 86.8252 126.502 87.0237C126.303 87.2222 126.066 87.3821 125.79 87.5034C125.515 87.6247 125.228 87.6854 124.93 87.6854C124.655 87.6854 124.39 87.6357 124.136 87.5365C123.883 87.4372 123.651 87.2829 123.442 87.0733C122.769 86.4117 122.025 85.9265 121.209 85.6177C120.404 85.309 119.566 85.1546 118.694 85.1546C117.812 85.1546 116.974 85.3255 116.18 85.6674C115.397 85.9982 114.708 86.4613 114.113 87.0568C113.517 87.6412 113.043 88.336 112.69 89.141C112.348 89.9459 112.177 90.8116 112.177 91.7379C112.177 92.6311 112.343 93.4802 112.673 94.2852C113.015 95.0791 113.478 95.7794 114.063 96.3859C114.658 96.9814 115.359 97.4555 116.164 97.8084C116.969 98.1613 117.845 98.3377 118.794 98.3377C119.543 98.3377 120.26 98.244 120.944 98.0565C121.628 97.869 122.295 97.5272 122.945 97.031V95.2776H121.159C120.85 95.2776 120.563 95.2225 120.299 95.1122C120.034 94.9909 119.803 94.831 119.604 94.6325C119.417 94.4341 119.268 94.2025 119.158 93.9378C119.047 93.6621 118.992 93.3754 118.992 93.0777C118.992 92.78 119.047 92.4988 119.158 92.2341C119.268 91.9695 119.417 91.7324 119.604 91.5228C119.803 91.3133 120.034 91.1534 120.299 91.0432C120.563 90.9219 120.85 90.8612 121.159 90.8612L125.145 90.9108Z" fill="white"/>
<path d="M133.598 94.6656C133.598 95.1729 133.691 95.6471 133.879 96.0881C134.077 96.5292 134.342 96.9152 134.673 97.246C135.015 97.5768 135.406 97.836 135.847 98.0234C136.288 98.2109 136.757 98.3046 137.253 98.3046C137.761 98.3046 138.235 98.2109 138.676 98.0234C139.128 97.836 139.519 97.5768 139.85 97.246C140.181 96.9152 140.44 96.5292 140.628 96.0881C140.826 95.6471 140.925 95.1729 140.925 94.6656C140.925 94.1584 140.826 93.6842 140.628 93.2431C140.44 92.802 140.181 92.4161 139.85 92.0852C139.519 91.7544 139.128 91.4953 138.676 91.3078C138.235 91.1204 137.761 91.0266 137.253 91.0266C136.757 91.0266 136.288 91.1204 135.847 91.3078C135.406 91.4953 135.015 91.7544 134.673 92.0852C134.342 92.4161 134.077 92.802 133.879 93.2431C133.691 93.6842 133.598 94.1584 133.598 94.6656ZM129.181 94.6656C129.181 93.5519 129.391 92.5043 129.81 91.5228C130.24 90.5414 130.819 89.6868 131.547 88.959C132.285 88.2202 133.14 87.6412 134.111 87.2222C135.092 86.7921 136.14 86.5771 137.253 86.5771C138.367 86.5771 139.415 86.7921 140.396 87.2222C141.377 87.6412 142.232 88.2202 142.96 88.959C143.688 89.6868 144.261 90.5414 144.68 91.5228C145.11 92.5043 145.325 93.5519 145.325 94.6656C145.325 95.7794 145.11 96.827 144.68 97.8084C144.261 98.7788 143.688 99.6279 142.96 100.356C142.232 101.084 141.377 101.662 140.396 102.093C139.415 102.512 138.367 102.721 137.253 102.721C136.14 102.721 135.092 102.512 134.111 102.093C133.14 101.662 132.285 101.084 131.547 100.356C130.819 99.6279 130.24 98.7788 129.81 97.8084C129.391 96.827 129.181 95.7794 129.181 94.6656Z" fill="white"/>
<path d="M151.197 94.6656C151.197 95.1729 151.291 95.6471 151.478 96.0881C151.677 96.5292 151.942 96.9152 152.272 97.246C152.614 97.5768 153.006 97.836 153.447 98.0234C153.888 98.2109 154.357 98.3046 154.853 98.3046C155.36 98.3046 155.834 98.2109 156.275 98.0234C156.727 97.836 157.119 97.5768 157.45 97.246C157.781 96.9152 158.04 96.5292 158.227 96.0881C158.426 95.6471 158.525 95.1729 158.525 94.6656C158.525 94.1584 158.426 93.6842 158.227 93.2431C158.04 92.802 157.781 92.4161 157.45 92.0852C157.119 91.7544 156.727 91.4953 156.275 91.3078C155.834 91.1204 155.36 91.0266 154.853 91.0266C154.357 91.0266 153.888 91.1204 153.447 91.3078C153.006 91.4953 152.614 91.7544 152.272 92.0852C151.942 92.4161 151.677 92.802 151.478 93.2431C151.291 93.6842 151.197 94.1584 151.197 94.6656ZM146.781 94.6656C146.781 93.5519 146.99 92.5043 147.409 91.5228C147.839 90.5414 148.418 89.6868 149.146 88.959C149.885 88.2202 150.74 87.6412 151.71 87.2222C152.691 86.7921 153.739 86.5771 154.853 86.5771C155.967 86.5771 157.014 86.7921 157.996 87.2222C158.977 87.6412 159.832 88.2202 160.559 88.959C161.287 89.6868 161.861 90.5414 162.28 91.5228C162.71 92.5043 162.925 93.5519 162.925 94.6656C162.925 95.7794 162.71 96.827 162.28 97.8084C161.861 98.7788 161.287 99.6279 160.559 100.356C159.832 101.084 158.977 101.662 157.996 102.093C157.014 102.512 155.967 102.721 154.853 102.721C153.739 102.721 152.691 102.512 151.71 102.093C150.74 101.662 149.885 101.084 149.146 100.356C148.418 99.6279 147.839 98.7788 147.409 97.8084C146.99 96.827 146.781 95.7794 146.781 94.6656Z" fill="white"/>
<path d="M172.436 98.1392C172.535 98.1392 172.64 98.1282 172.75 98.1061C172.86 98.0841 172.96 98.0455 173.048 97.9904C173.136 97.9352 173.208 97.858 173.263 97.7588C173.329 97.6595 173.362 97.5327 173.362 97.3783C173.362 97.2129 173.329 97.0861 173.263 96.9979C173.208 96.8986 173.131 96.827 173.031 96.7829C172.932 96.7388 172.822 96.7112 172.701 96.7002C172.579 96.6891 172.463 96.6836 172.353 96.6836H169.723C169.006 96.6836 168.345 96.5403 167.738 96.2536C167.132 95.9668 166.608 95.5809 166.167 95.0957C165.737 94.6105 165.395 94.0536 165.141 93.4251C164.899 92.7965 164.777 92.1404 164.777 91.4567C164.777 90.795 164.904 90.1665 165.158 89.571C165.422 88.9755 165.775 88.4573 166.216 88.0162C166.669 87.5751 167.192 87.2277 167.788 86.9741C168.394 86.7094 169.039 86.5771 169.723 86.5771H174.851C175.149 86.5771 175.43 86.6267 175.694 86.726C175.959 86.8142 176.191 86.952 176.389 87.1395C176.588 87.3159 176.742 87.5365 176.852 87.8011C176.974 88.0658 177.034 88.369 177.034 88.7109C177.034 89.0307 176.979 89.3284 176.869 89.6041C176.759 89.8798 176.61 90.1224 176.422 90.3319C176.246 90.5304 176.031 90.6903 175.777 90.8116C175.523 90.9219 175.259 90.977 174.983 90.977H169.806C169.651 90.977 169.508 91.0376 169.376 91.1589C169.243 91.2692 169.177 91.4236 169.177 91.6221C169.177 91.8757 169.243 92.0466 169.376 92.1349C169.519 92.2231 169.651 92.2672 169.773 92.2672H172.783C173.511 92.2672 174.178 92.4105 174.785 92.6973C175.402 92.984 175.931 93.3699 176.373 93.8551C176.814 94.3293 177.156 94.8807 177.398 95.5092C177.641 96.1378 177.762 96.7939 177.762 97.4776C177.762 98.1613 177.641 98.8064 177.398 99.4129C177.167 100.008 176.836 100.538 176.406 101.001C175.987 101.453 175.479 101.817 174.884 102.093C174.288 102.368 173.638 102.517 172.932 102.539H166.514C166.216 102.539 165.946 102.484 165.704 102.374C165.461 102.263 165.246 102.109 165.059 101.911C164.882 101.712 164.744 101.475 164.645 101.199C164.546 100.924 164.496 100.62 164.496 100.29C164.496 99.6279 164.684 99.1041 165.059 98.7182C165.434 98.3322 165.919 98.1392 166.514 98.1392H172.436Z" fill="white"/>
<path d="M184.014 96.634C184.367 97.2074 184.825 97.6595 185.387 97.9904C185.95 98.3212 186.567 98.4866 187.24 98.4866C187.67 98.4866 188.012 98.4535 188.266 98.3873C188.53 98.3101 188.767 98.2109 188.977 98.0896C189.197 97.9462 189.412 97.847 189.622 97.7919C189.842 97.7257 190.052 97.6926 190.25 97.6926C190.559 97.6926 190.84 97.7533 191.094 97.8746C191.359 97.9959 191.585 98.1613 191.772 98.3708C191.971 98.5803 192.125 98.8229 192.235 99.0986C192.346 99.3743 192.401 99.661 192.401 99.9587C192.401 100.334 192.296 100.692 192.086 101.034C191.877 101.365 191.557 101.657 191.127 101.911C190.697 102.153 190.157 102.352 189.506 102.506C188.867 102.649 188.111 102.721 187.24 102.721C186.126 102.721 185.073 102.512 184.081 102.093C183.099 101.662 182.239 101.084 181.5 100.356C180.761 99.6279 180.177 98.7788 179.747 97.8084C179.317 96.827 179.102 95.7794 179.102 94.6656C179.102 93.5408 179.317 92.4877 179.747 91.5063C180.177 90.5249 180.761 89.6703 181.5 88.9425C182.239 88.2036 183.099 87.6247 184.081 87.2057C185.073 86.7866 186.126 86.5771 187.24 86.5771C188.343 86.5771 189.379 86.7866 190.35 87.2057C191.331 87.6137 192.186 88.1816 192.914 88.9094C193.652 89.6262 194.237 90.4697 194.667 91.4401C195.108 92.4105 195.34 93.4471 195.362 94.5498C195.362 95.1784 195.158 95.6856 194.75 96.0716C194.353 96.4465 193.834 96.634 193.195 96.634H184.014ZM190.846 92.9619C190.537 92.3003 190.074 91.771 189.456 91.374C188.839 90.977 188.128 90.7785 187.323 90.7785C186.496 90.7785 185.79 90.988 185.205 91.4071C184.621 91.8151 184.18 92.3334 183.882 92.9619H190.846Z" fill="white"/>
<path d="M99.2312 120.77C99.54 120.77 99.8267 120.831 100.091 120.952C100.367 121.062 100.604 121.217 100.803 121.415C101.012 121.603 101.172 121.829 101.282 122.093C101.404 122.347 101.464 122.628 101.464 122.937V127.883C101.464 128.224 101.393 128.528 101.249 128.792C101.117 129.046 100.946 129.283 100.736 129.504C99.4352 130.628 98.1174 131.428 96.7831 131.902C95.4488 132.365 94.0649 132.597 92.6314 132.597C91.672 132.586 90.7347 132.448 89.8194 132.183C88.9152 131.919 88.0606 131.549 87.2556 131.075C86.4616 130.601 85.7338 130.033 85.0722 129.371C84.4105 128.71 83.8371 127.976 83.3519 127.171C82.8777 126.355 82.5083 125.484 82.2437 124.558C81.979 123.621 81.8467 122.645 81.8467 121.63C81.8467 120.627 81.9735 119.656 82.2271 118.719C82.4807 117.782 82.8391 116.905 83.3023 116.089C83.7765 115.262 84.3388 114.512 84.9895 113.839C85.6511 113.167 86.3844 112.588 87.1894 112.103C88.0054 111.617 88.8766 111.242 89.8029 110.978C90.7402 110.702 91.7161 110.564 92.7306 110.564C94.2965 110.564 95.7245 110.84 97.0147 111.391C98.3159 111.932 99.5179 112.748 100.621 113.839C100.841 114.06 101.001 114.302 101.1 114.567C101.211 114.821 101.266 115.085 101.266 115.361C101.266 115.648 101.205 115.923 101.084 116.188C100.962 116.453 100.797 116.684 100.588 116.883C100.389 117.081 100.152 117.241 99.8763 117.363C99.6006 117.484 99.3139 117.544 99.0162 117.544C98.7405 117.544 98.4758 117.495 98.2222 117.396C97.9686 117.296 97.737 117.142 97.5275 116.932C96.8548 116.271 96.1105 115.786 95.2945 115.477C94.4895 115.168 93.6514 115.014 92.7802 115.014C91.8981 115.014 91.06 115.185 90.266 115.526C89.4831 115.857 88.7939 116.32 88.1984 116.916C87.6029 117.5 87.1288 118.195 86.7759 119C86.434 119.805 86.2631 120.671 86.2631 121.597C86.2631 122.49 86.4285 123.339 86.7593 124.144C87.1012 124.938 87.5643 125.639 88.1488 126.245C88.7442 126.84 89.4445 127.315 90.2495 127.668C91.0545 128.02 91.9311 128.197 92.8795 128.197C93.6293 128.197 94.3461 128.103 95.0298 127.916C95.7135 127.728 96.3806 127.386 97.0313 126.89V125.137H95.2448C94.9361 125.137 94.6494 125.082 94.3847 124.971C94.1201 124.85 93.8885 124.69 93.69 124.492C93.5025 124.293 93.3537 124.062 93.2434 123.797C93.1331 123.521 93.078 123.235 93.078 122.937C93.078 122.639 93.1331 122.358 93.2434 122.093C93.3537 121.829 93.5025 121.592 93.69 121.382C93.8885 121.172 94.1201 121.013 94.3847 120.902C94.6494 120.781 94.9361 120.72 95.2448 120.72L99.2312 120.77Z" fill="white"/>
<path d="M107.684 124.525C107.684 125.032 107.777 125.506 107.965 125.947C108.163 126.388 108.428 126.774 108.759 127.105C109.101 127.436 109.492 127.695 109.933 127.883C110.374 128.07 110.843 128.164 111.339 128.164C111.846 128.164 112.321 128.07 112.762 127.883C113.214 127.695 113.605 127.436 113.936 127.105C114.267 126.774 114.526 126.388 114.714 125.947C114.912 125.506 115.011 125.032 115.011 124.525C115.011 124.018 114.912 123.543 114.714 123.102C114.526 122.661 114.267 122.275 113.936 121.944C113.605 121.614 113.214 121.354 112.762 121.167C112.321 120.979 111.846 120.886 111.339 120.886C110.843 120.886 110.374 120.979 109.933 121.167C109.492 121.354 109.101 121.614 108.759 121.944C108.428 122.275 108.163 122.661 107.965 123.102C107.777 123.543 107.684 124.018 107.684 124.525ZM103.267 124.525C103.267 123.411 103.477 122.363 103.896 121.382C104.326 120.401 104.905 119.546 105.633 118.818C106.371 118.079 107.226 117.5 108.196 117.081C109.178 116.651 110.225 116.436 111.339 116.436C112.453 116.436 113.501 116.651 114.482 117.081C115.463 117.5 116.318 118.079 117.046 118.818C117.774 119.546 118.347 120.401 118.766 121.382C119.196 122.363 119.411 123.411 119.411 124.525C119.411 125.639 119.196 126.686 118.766 127.668C118.347 128.638 117.774 129.487 117.046 130.215C116.318 130.943 115.463 131.522 114.482 131.952C113.501 132.371 112.453 132.58 111.339 132.58C110.225 132.58 109.178 132.371 108.196 131.952C107.226 131.522 106.371 130.943 105.633 130.215C104.905 129.487 104.326 128.638 103.896 127.668C103.477 126.686 103.267 125.639 103.267 124.525Z" fill="white"/>
<path d="M125.283 124.525C125.283 125.032 125.377 125.506 125.564 125.947C125.763 126.388 126.028 126.774 126.358 127.105C126.7 127.436 127.092 127.695 127.533 127.883C127.974 128.07 128.442 128.164 128.939 128.164C129.446 128.164 129.92 128.07 130.361 127.883C130.813 127.695 131.205 127.436 131.536 127.105C131.866 126.774 132.126 126.388 132.313 125.947C132.512 125.506 132.611 125.032 132.611 124.525C132.611 124.018 132.512 123.543 132.313 123.102C132.126 122.661 131.866 122.275 131.536 121.944C131.205 121.614 130.813 121.354 130.361 121.167C129.92 120.979 129.446 120.886 128.939 120.886C128.442 120.886 127.974 120.979 127.533 121.167C127.092 121.354 126.7 121.614 126.358 121.944C126.028 122.275 125.763 122.661 125.564 123.102C125.377 123.543 125.283 124.018 125.283 124.525ZM120.867 124.525C120.867 123.411 121.076 122.363 121.495 121.382C121.925 120.401 122.504 119.546 123.232 118.818C123.971 118.079 124.826 117.5 125.796 117.081C126.777 116.651 127.825 116.436 128.939 116.436C130.052 116.436 131.1 116.651 132.081 117.081C133.063 117.5 133.918 118.079 134.645 118.818C135.373 119.546 135.947 120.401 136.366 121.382C136.796 122.363 137.011 123.411 137.011 124.525C137.011 125.639 136.796 126.686 136.366 127.668C135.947 128.638 135.373 129.487 134.645 130.215C133.918 130.943 133.063 131.522 132.081 131.952C131.1 132.371 130.052 132.58 128.939 132.58C127.825 132.58 126.777 132.371 125.796 131.952C124.826 131.522 123.971 130.943 123.232 130.215C122.504 129.487 121.925 128.638 121.495 127.668C121.076 126.686 120.867 125.639 120.867 124.525Z" fill="white"/>
<path d="M146.522 127.998C146.621 127.998 146.726 127.987 146.836 127.965C146.946 127.943 147.046 127.905 147.134 127.849C147.222 127.794 147.294 127.717 147.349 127.618C147.415 127.519 147.448 127.392 147.448 127.237C147.448 127.072 147.415 126.945 147.349 126.857C147.294 126.758 147.216 126.686 147.117 126.642C147.018 126.598 146.908 126.57 146.786 126.559C146.665 126.548 146.549 126.543 146.439 126.543H143.809C143.092 126.543 142.431 126.399 141.824 126.113C141.218 125.826 140.694 125.44 140.253 124.955C139.823 124.47 139.481 123.913 139.227 123.284C138.985 122.656 138.863 122 138.863 121.316C138.863 120.654 138.99 120.026 139.244 119.43C139.508 118.835 139.861 118.316 140.302 117.875C140.754 117.434 141.278 117.087 141.874 116.833C142.48 116.569 143.125 116.436 143.809 116.436H148.937C149.234 116.436 149.516 116.486 149.78 116.585C150.045 116.673 150.277 116.811 150.475 116.999C150.673 117.175 150.828 117.396 150.938 117.66C151.059 117.925 151.12 118.228 151.12 118.57C151.12 118.89 151.065 119.188 150.955 119.463C150.844 119.739 150.696 119.982 150.508 120.191C150.332 120.39 150.117 120.549 149.863 120.671C149.609 120.781 149.345 120.836 149.069 120.836H143.892C143.737 120.836 143.594 120.897 143.462 121.018C143.329 121.128 143.263 121.283 143.263 121.481C143.263 121.735 143.329 121.906 143.462 121.994C143.605 122.082 143.737 122.126 143.859 122.126H146.869C147.597 122.126 148.264 122.27 148.871 122.556C149.488 122.843 150.017 123.229 150.458 123.714C150.9 124.188 151.241 124.74 151.484 125.368C151.727 125.997 151.848 126.653 151.848 127.337C151.848 128.02 151.727 128.666 151.484 129.272C151.252 129.867 150.922 130.397 150.492 130.86C150.073 131.312 149.565 131.676 148.97 131.952C148.374 132.227 147.724 132.376 147.018 132.398H140.6C140.302 132.398 140.032 132.343 139.79 132.233C139.547 132.123 139.332 131.968 139.144 131.77C138.968 131.571 138.83 131.334 138.731 131.058C138.632 130.783 138.582 130.479 138.582 130.149C138.582 129.487 138.77 128.963 139.144 128.577C139.519 128.191 140.005 127.998 140.6 127.998H146.522Z" fill="white"/>
<path d="M158.1 126.493C158.453 127.067 158.911 127.519 159.473 127.849C160.036 128.18 160.653 128.346 161.326 128.346C161.756 128.346 162.098 128.313 162.351 128.246C162.616 128.169 162.853 128.07 163.063 127.949C163.283 127.805 163.498 127.706 163.708 127.651C163.928 127.585 164.138 127.552 164.336 127.552C164.645 127.552 164.926 127.612 165.18 127.734C165.445 127.855 165.671 128.02 165.858 128.23C166.057 128.439 166.211 128.682 166.321 128.958C166.431 129.233 166.487 129.52 166.487 129.818C166.487 130.193 166.382 130.551 166.172 130.893C165.963 131.224 165.643 131.516 165.213 131.77C164.783 132.012 164.243 132.211 163.592 132.365C162.952 132.509 162.197 132.58 161.326 132.58C160.212 132.58 159.159 132.371 158.167 131.952C157.185 131.522 156.325 130.943 155.586 130.215C154.847 129.487 154.263 128.638 153.833 127.668C153.403 126.686 153.188 125.639 153.188 124.525C153.188 123.4 153.403 122.347 153.833 121.365C154.263 120.384 154.847 119.529 155.586 118.802C156.325 118.063 157.185 117.484 158.167 117.065C159.159 116.646 160.212 116.436 161.326 116.436C162.429 116.436 163.465 116.646 164.436 117.065C165.417 117.473 166.272 118.041 166.999 118.769C167.738 119.485 168.323 120.329 168.753 121.299C169.194 122.27 169.425 123.306 169.447 124.409C169.447 125.038 169.243 125.545 168.835 125.931C168.438 126.306 167.92 126.493 167.281 126.493H158.1ZM164.932 122.821C164.623 122.159 164.16 121.63 163.542 121.233C162.925 120.836 162.214 120.638 161.409 120.638C160.582 120.638 159.876 120.847 159.291 121.266C158.707 121.674 158.266 122.192 157.968 122.821H164.932Z" fill="white"/>
</g>
</g>
<path fill-rule="evenodd" clip-rule="evenodd" d="M128.959 83.6504C129.437 83.6504 129.824 83.8863 129.824 84.1774V85.2553C129.824 85.5464 129.437 85.7823 128.959 85.7823C128.48 85.7823 128.093 85.5464 128.093 85.2553L128.093 84.1774C128.093 83.8863 128.48 83.6504 128.959 83.6504ZM128.959 86.8841C129.437 86.8841 129.824 87.12 129.824 87.4111L129.824 89.5669C129.824 89.8579 129.437 90.0939 128.959 90.0939C128.48 90.0939 128.093 89.8579 128.093 89.5669L128.093 87.4111C128.093 87.12 128.48 86.8841 128.959 86.8841ZM128.959 91.1957C129.437 91.1957 129.824 91.4316 129.824 91.7227L129.824 93.8785C129.824 94.1695 129.437 94.4055 128.959 94.4055C128.48 94.4055 128.093 94.1695 128.093 93.8785L128.093 91.7227C128.093 91.4316 128.48 91.1957 128.959 91.1957ZM128.959 95.5073C129.437 95.5073 129.824 95.7432 129.824 96.0343L129.824 98.1901C129.824 98.4811 129.437 98.7171 128.959 98.7171C128.48 98.7171 128.093 98.4811 128.093 98.1901L128.093 96.0343C128.093 95.7432 128.48 95.5073 128.959 95.5073ZM128.959 99.8188C129.437 99.8188 129.824 100.055 129.824 100.346L129.824 102.502C129.824 102.793 129.437 103.029 128.959 103.029C128.48 103.029 128.093 102.793 128.093 102.502L128.093 100.346C128.093 100.055 128.48 99.8188 128.959 99.8188ZM128.959 104.13C129.437 104.13 129.824 104.366 129.824 104.657L129.824 106.813C129.824 107.104 129.437 107.34 128.959 107.34C128.48 107.34 128.093 107.104 128.093 106.813L128.093 104.657C128.093 104.366 128.48 104.13 128.959 104.13ZM128.959 108.442C129.437 108.442 129.824 108.678 129.824 108.969L129.824 111.125C129.824 111.416 129.437 111.652 128.959 111.652C128.48 111.652 128.093 111.416 128.093 111.125L128.093 108.969C128.093 108.678 128.48 108.442 128.959 108.442ZM128.959 112.754C129.437 112.754 129.824 112.99 129.824 113.281L129.824 115.436C129.824 115.727 129.437 115.963 128.959 115.963C128.48 115.963 128.093 115.727 128.093 115.436L128.093 113.281C128.093 112.99 128.48 112.754 128.959 112.754ZM128.959 117.065C129.437 117.065 129.824 117.301 129.824 117.592V119.748C129.824 120.039 129.437 120.275 128.959 120.275C128.48 120.275 128.093 120.039 128.093 119.748L128.093 117.592C128.093 117.301 128.48 117.065 128.959 117.065ZM128.959 121.377C129.437 121.377 129.824 121.613 129.824 121.904L129.824 124.06C129.824 124.351 129.437 124.587 128.959 124.587C128.48 124.587 128.093 124.351 128.093 124.06L128.093 121.904C128.093 121.613 128.48 121.377 128.959 121.377ZM128.959 125.688C129.437 125.688 129.824 125.924 129.824 126.215L129.824 128.371C129.824 128.662 129.437 128.898 128.959 128.898C128.48 128.898 128.093 128.662 128.093 128.371L128.093 126.215C128.093 125.924 128.48 125.688 128.959 125.688ZM128.959 130C129.437 130 129.824 130.236 129.824 130.527V131.605C129.824 131.896 129.437 132.132 128.959 132.132C128.48 132.132 128.093 131.896 128.093 131.605L128.093 130.527C128.093 130.236 128.48 130 128.959 130Z" fill="#2F3032"/>
<g clip-path="url(#clip2_11937_26135)">
<path d="M115.365 93.9254C115.365 95.6506 116.763 97.0492 118.488 97.0492C119.165 97.0492 119.723 96.8341 120.151 96.4685C121.566 95.2599 121.208 92.5449 119.577 91.6502C119.287 91.4916 118.939 91.3899 118.488 91.3223C116.763 91.3223 115.365 92.2002 115.365 93.9254Z" fill="white" stroke="#2F3032" stroke-width="0.705746"/>
<path d="M117.65 94.1311C117.362 94.1311 117.129 93.898 117.129 93.6105C117.129 93.3229 117.362 93.0898 117.65 93.0898C117.937 93.0898 118.17 93.3229 118.17 93.6105C118.17 93.898 117.937 94.1311 117.65 94.1311Z" fill="#2F3032"/>
<path d="M118.246 125.652C117.892 126.729 118.305 128.659 118.049 129.37C117.971 129.573 117.892 129.797 117.735 129.959C117.519 130.183 117.205 130.264 116.911 130.345C116.125 130.548 115.36 130.731 114.575 130.934C114.319 130.995 114.045 131.097 113.946 131.32C113.848 131.524 113.946 131.788 114.084 131.95C115.164 133.149 117.402 132.804 118.795 132.702C119.286 132.661 119.816 132.58 120.228 132.296C121.23 131.585 120.621 129.634 120.582 128.598C120.523 127.399 121.504 125.713 120.385 125.286C119.266 124.88 118.501 124.839 118.246 125.652Z" fill="#FFC300" stroke="#2F3032" stroke-width="0.705746"/>
<path d="M114.945 132.045C115.192 131.871 115.902 131.523 116.765 131.523" stroke="#2F3032" stroke-width="0.705746" stroke-linecap="round"/>
<path d="M125.393 126.275C125.253 127.086 125.253 128.689 126.112 130.389C126.112 130.389 129.472 131.239 129.492 131.239C130.492 131.49 129.892 132.475 129.172 132.591C128.312 132.726 127.432 132.803 126.552 132.822C125.752 132.842 124.933 132.803 124.153 132.552C123.813 132.455 123.493 132.301 123.273 132.03C122.973 131.664 122.973 131.142 123.053 130.679C123.153 129.945 123.173 129.269 123.133 128.535C123.113 128.091 123.053 127.646 122.973 127.202C122.933 126.932 122.693 126.488 122.753 126.236C122.813 125.985 123.093 125.85 123.333 125.773C123.633 125.676 123.933 125.599 124.253 125.56C124.793 125.445 125.493 125.599 125.393 126.275Z" fill="#FFC300" stroke="#2F3032" stroke-width="0.705746"/>
<path d="M126.396 131.755C126.745 131.771 127.619 131.96 128.322 132.592" stroke="#2F3032" stroke-width="0.705746" stroke-linecap="round"/>
<path d="M125.618 91.5193C125.992 90.8096 126.169 90.2216 126.11 89.735C126.031 89.0861 125.421 88.7617 124.811 88.7617C124.024 88.7617 122.982 89.5322 122.273 89.8769C121.722 90.1405 121.978 90.5257 122.47 90.7691L124.733 91.8234C125.067 91.9856 125.441 91.8437 125.618 91.5193Z" fill="white" stroke="#2F3032" stroke-width="0.705746"/>
<path d="M126.729 94.1008C127.26 93.5262 127.571 93.0175 127.63 92.5459C127.708 91.9171 127.196 91.4623 126.607 91.3122C125.846 91.1186 124.654 91.5857 123.888 91.7352C123.292 91.8472 123.448 92.272 123.865 92.6216L125.801 94.1686C126.085 94.4033 126.481 94.362 126.729 94.1008Z" fill="white" stroke="#2F3032" stroke-width="0.705746"/>
<path d="M132.821 120.156C133.734 119.816 134.366 119.427 134.697 118.936C135.138 118.281 134.824 117.487 134.253 116.988C133.517 116.344 131.93 116.191 130.994 115.924C130.269 115.713 130.203 116.273 130.47 116.897L131.751 119.708C131.936 120.129 132.398 120.306 132.821 120.156Z" fill="white" stroke="#2F3032" stroke-width="0.705746"/>
<path d="M120.408 111.785C120.447 112.604 120.408 113.442 120.545 114.065C120.742 115.02 120.762 116.13 120.073 116.812C119.719 117.143 119.247 117.319 118.834 117.591C118.598 117.747 118.362 117.923 118.087 117.962C117.064 118.118 116.691 117.533 115.983 118.527C115.491 119.209 115.471 120.163 114.704 120.631C114.232 120.923 113.623 120.884 113.131 120.631C110.889 119.423 112.05 115.37 112.856 113.617C113.623 111.941 117.674 106.506 119.857 109.428C120.29 110.013 120.388 110.889 120.408 111.785Z" fill="white" stroke="#2F3032" stroke-width="0.705746"/>
<path d="M118.823 105.543C118.47 109.209 114.882 111.405 113.921 114.856C113.332 116.974 113.136 119.366 113.822 121.484C115.588 126.993 124.256 127.915 128.335 124.778C131.139 122.621 132.14 119.915 130.59 116.562C129.865 115.013 128.806 113.66 127.825 112.249C127.413 111.641 126.982 111.111 126.492 110.562C125.511 109.504 124.825 108.994 124.472 107.504C124.119 106.033 123.746 104.562 123.766 103.053C123.785 100.425 125.589 98.7783 126.197 96.347C126.57 94.8176 126.55 93.0333 125.589 91.6216C125.06 90.8569 124.315 90.2883 123.432 90.1118C121.53 89.7981 119.639 90.7137 119.247 92.3803C118.191 96.6709 119.261 101.218 118.823 105.543Z" fill="white" stroke="#2F3032" stroke-width="0.705746"/>
<path d="M116.873 100.713L119.511 101.114C119.58 101.132 119.642 101.131 119.711 101.148C119.91 101.182 120.109 101.216 120.32 101.224C120.612 101.226 120.896 101.146 121.203 100.954C121.743 100.597 122.014 100.126 121.93 99.5926C121.859 99.0967 121.511 98.6988 121.103 98.4263C120.28 97.8628 118.923 97.6133 117.817 98.2543C117.301 98.5617 116.822 98.856 116.424 99.1427C116.093 99.3847 115.932 99.7543 116.062 100.125C116.18 100.458 116.506 100.676 116.873 100.713Z" fill="#FFC300" stroke="#2F3032" stroke-width="0.705746"/>
<path d="M116.204 95.2147C115.562 95.7893 114.861 96.3064 114.102 96.7278C113.343 97.1683 112.467 97.3982 111.727 97.8195C111.435 97.9728 111.202 98.2409 111.357 98.5665C111.435 98.7389 111.63 98.8538 111.747 98.9304C113.109 99.6391 114.764 99.6008 116.243 99.6774C117.937 99.754 119.727 99.754 121.323 99.1411C122.297 98.7772 123.27 97.7621 122.413 96.7853C121.791 96.0766 120.759 95.7893 119.922 95.4062C119.435 95.1955 118.949 94.9657 118.423 94.8508C117.703 94.6784 116.788 94.7167 116.204 95.2147Z" fill="#FFC300" stroke="#2F3032" stroke-width="0.705746"/>
<path d="M123.986 113.251C124.005 113.603 124.024 113.937 123.948 114.329C123.794 115.153 123.487 115.917 123.525 116.78C123.583 117.702 124.101 118.526 124.85 118.996C125.829 119.624 126.309 119.134 127.288 119.251C127.595 119.29 127.826 119.545 127.96 119.82C128.094 120.094 128.152 120.408 128.248 120.702C128.498 121.448 129.035 122.114 129.784 122.33C131.032 122.683 131.781 121.604 131.992 120.506C132.683 116.565 129.938 111.368 126.098 110.211C124.773 109.819 124.005 111.191 123.948 112.348C123.928 112.662 123.967 112.956 123.986 113.251Z" fill="white" stroke="#2F3032" stroke-width="0.705746"/>
<path d="M116.504 97.3692C116.716 97.1953 117.325 96.8477 118.064 96.8477" stroke="#2F3032" stroke-width="0.705746" stroke-linecap="round"/>
<path d="M124.402 126.376C122.737 126.753 120.745 126.457 118.9 123.427" stroke="#2F3032" stroke-width="0.705746" stroke-linecap="round"/>
<path d="M122.026 110.085C121.911 110.523 121.549 111.452 121.022 111.661C120.702 111.789 120.625 111.254 120.59 110.711C120.555 110.145 120.329 110.066 119.962 110.497C119.778 110.714 119.561 110.921 119.331 111.007C118.532 111.307 117.868 109.533 119.311 107.84" stroke="#2E3032" stroke-width="0.705746" stroke-linecap="round"/>
<path d="M118.894 93.8153C118.894 94.7921 119.247 95.6642 119.866 96.237C120.854 97.1511 122.502 96.9386 123.558 96.1033C124.225 95.5757 124.397 94.8881 124.397 93.8153C124.397 92.0901 122.999 90.6172 121.274 90.6172C119.548 90.6172 118.894 92.0901 118.894 93.8153Z" fill="white" stroke="#2F3032" stroke-width="0.705746"/>
<path d="M120.473 94.4827C120.185 94.4827 119.952 94.2496 119.952 93.962C119.952 93.6745 120.185 93.4414 120.473 93.4414C120.761 93.4414 120.994 93.6745 120.994 93.962C120.994 94.2496 120.761 94.4827 120.473 94.4827Z" fill="#2F3032"/>
<path d="M115.542 93.0866L117.189 92.6159C117.73 92.4614 118.299 92.4384 118.851 92.5486L118.894 92.5573" stroke="#2F3032" stroke-width="0.705746"/>
<path d="M118.894 93.09L119.334 92.7855C120.464 92.0029 121.946 91.9482 123.132 92.6453L124.187 93.2664" stroke="#2F3032" stroke-width="0.705746"/>
<g clip-path="url(#clip3_11937_26135)">
<path d="M105.848 100.616L103.517 104.032C103.437 104.16 103.532 104.289 103.66 104.208C104.395 103.791 105.529 102.813 106.136 102.38C106.807 101.899 106.503 101.129 106.072 100.6C106.024 100.519 105.912 100.535 105.848 100.616Z" fill="#848484" stroke="#2E3032" stroke-width="0.705746" stroke-linecap="round"/>
<path d="M90.6489 119.392C90.6489 120.126 91.3096 121.962 91.6455 122.607C91.9142 123.13 92.3174 123.797 92.9332 123.964C93.146 124.019 93.37 124.008 93.5939 123.986C94.8705 123.83 96.1022 123.152 96.8413 122.095C97.3787 121.328 97.5355 120.405 97.3004 119.492C97.1212 118.792 96.315 116.94 95.7439 116.461C95.1839 115.99 95.4412 119.983 94.9824 118.981C94.4673 117.924 94.0642 116.734 93.1012 116.067C92.4405 115.611 92.5077 116.756 92.5189 117.079C92.5413 117.824 92.6645 118.569 92.8661 119.281C92.978 119.693 93.1236 120.115 93.146 120.549C93.146 120.638 93.1348 120.749 93.0452 120.783C92.9892 120.805 92.922 120.772 92.8661 120.738C92.5301 120.516 91.9255 119.059 91.6567 118.77C91.4664 118.569 91.1976 118.358 90.9513 118.491C90.7833 118.58 90.7273 118.792 90.7049 118.981C90.6601 119.114 90.6489 119.259 90.6489 119.392Z" fill="#848484" stroke="#2E3032" stroke-width="0.705746" stroke-linecap="round"/>
<path d="M99.4657 131.066C99.5339 130.975 99.5909 130.872 99.6364 130.77C99.9437 130.145 100.205 129.497 100.41 128.837C100.456 128.689 100.513 128.496 100.649 128.428C100.82 128.337 101.082 128.348 101.252 128.382C101.298 128.394 101.355 128.405 101.378 128.451C101.389 128.485 101.389 128.519 101.389 128.553C101.298 129.224 101.207 129.895 101.127 130.577C101.116 130.668 101.104 130.759 101.127 130.838C101.173 130.997 101.332 131.077 101.48 131.157C102.072 131.452 102.641 131.793 103.119 132.248C103.13 132.259 103.142 132.271 103.142 132.282C103.153 132.294 103.153 132.316 103.142 132.328C103.142 132.362 103.13 132.396 103.119 132.43C103.108 132.464 103.096 132.498 103.073 132.521C102.982 132.612 102.766 132.646 102.641 132.669C102.47 132.703 102.299 132.714 102.117 132.714C101.765 132.714 101.423 132.646 101.082 132.566C100.444 132.407 99.8071 132.18 99.1584 132.134C98.7259 132.1 98.2934 132.157 97.861 132.191C97.8155 132.191 97.7585 132.191 97.7472 132.146C97.7358 132.123 97.7585 132.089 97.7813 132.066C97.9065 131.93 98.0772 131.839 98.2479 131.748C98.4869 131.634 98.7259 131.509 98.9649 131.407C99.1015 131.338 99.2494 131.282 99.3632 131.168C99.4088 131.111 99.4429 131.088 99.4657 131.066Z" fill="#F5BD1A"/>
<path d="M101.082 132.566C101.423 132.646 101.765 132.714 102.117 132.714C102.299 132.714 102.47 132.703 102.641 132.669C102.766 132.646 102.982 132.612 103.073 132.521C103.096 132.498 103.108 132.464 103.119 132.43C103.13 132.396 103.142 132.362 103.142 132.328C103.153 132.316 103.153 132.294 103.142 132.282C103.142 132.271 103.13 132.259 103.119 132.248C102.641 131.793 102.072 131.452 101.48 131.157C101.332 131.077 101.173 130.997 101.127 130.838C101.104 130.759 101.116 130.668 101.127 130.577C101.207 129.895 101.298 129.224 101.389 128.553C101.389 128.519 101.389 128.485 101.378 128.451C101.355 128.405 101.298 128.394 101.252 128.382C101.082 128.348 100.82 128.337 100.649 128.428C100.513 128.496 100.456 128.689 100.41 128.837C100.205 129.497 99.9437 130.145 99.6364 130.77C99.5909 130.872 99.5339 130.975 99.4657 131.066C99.4429 131.088 99.4088 131.111 99.3632 131.168C99.2494 131.282 99.1015 131.338 98.9649 131.407C98.7259 131.509 98.4869 131.634 98.2479 131.748C98.0772 131.839 97.9065 131.93 97.7813 132.066C97.7585 132.089 97.7358 132.123 97.7472 132.146C97.7585 132.191 97.8155 132.191 97.861 132.191C98.2934 132.157 98.7259 132.1 99.1584 132.134C99.8071 132.18 100.444 132.407 101.082 132.566ZM101.082 132.566L100.649 131.748" stroke="#2E3032" stroke-width="0.705746" stroke-linecap="round"/>
<path d="M104.381 131.135C104.543 130.362 104.739 129.657 104.808 128.861C104.819 128.783 104.819 128.693 104.854 128.626C104.934 128.458 105.176 128.357 105.361 128.357C105.649 128.357 105.626 128.402 105.684 128.66C105.822 129.22 105.799 129.87 105.833 130.452C105.845 130.598 105.856 130.755 105.972 130.844C106.029 130.9 106.121 130.911 106.202 130.934C106.824 131.079 107.435 131.292 108.011 131.561C108.53 131.796 107.942 132.099 107.666 132.211C107.239 132.379 106.755 132.412 106.294 132.401C105.937 132.39 105.591 132.368 105.234 132.345C104.888 132.323 104.531 132.356 104.197 132.412C103.817 132.48 103.436 132.58 103.068 132.692C102.987 132.715 102.837 132.748 102.814 132.625C102.791 132.513 102.975 132.424 103.056 132.368C103.171 132.278 103.298 132.177 103.413 132.088C103.655 131.897 103.897 131.707 104.139 131.527C104.279 131.414 104.345 131.31 104.381 131.135Z" fill="#F5BD1A"/>
<path d="M106.294 132.401C106.755 132.412 107.239 132.379 107.666 132.211C107.942 132.099 108.53 131.796 108.011 131.561C107.435 131.292 106.824 131.079 106.202 130.934C106.121 130.911 106.029 130.9 105.972 130.844C105.856 130.755 105.845 130.598 105.833 130.452C105.799 129.87 105.822 129.22 105.684 128.66C105.626 128.402 105.649 128.357 105.361 128.357C105.176 128.357 104.934 128.458 104.854 128.626C104.819 128.693 104.819 128.783 104.808 128.861C104.739 129.657 104.543 130.362 104.381 131.135C104.345 131.31 104.279 131.414 104.139 131.527C103.897 131.707 103.655 131.897 103.413 132.088C103.298 132.177 103.171 132.278 103.056 132.368C102.975 132.424 102.791 132.513 102.814 132.625C102.837 132.748 102.987 132.715 103.068 132.692C103.436 132.58 103.817 132.48 104.197 132.412C104.531 132.356 104.888 132.323 105.234 132.345C105.591 132.368 105.937 132.39 106.294 132.401ZM106.294 132.401L105.626 131.415" stroke="#2E3032" stroke-width="0.705746" stroke-linecap="round"/>
<path d="M103.138 115.413C103.24 115.247 103.319 115.059 103.342 114.86C103.376 114.594 103.331 114.328 103.274 114.074C103.059 113.155 102.776 111.982 101.996 111.362C101.487 110.941 100.798 110.687 100.447 110.111C100.198 109.702 100.176 109.214 100.198 108.75C100.221 108.285 100.165 107.809 100.232 107.344C100.425 105.993 101.442 104.942 102.596 104.256C103.851 103.514 105.535 102.905 106.983 103.414C107.955 103.757 108.792 104.654 109.142 105.595C109.629 106.879 109.222 108.539 108.995 109.845C108.905 110.344 109.007 111.14 108.577 111.506C108.419 111.639 108.226 111.727 108.034 111.805C107.718 111.937 107.401 112.059 107.073 112.192C106.214 112.546 105.999 113.022 106.067 113.93C106.123 114.86 106.711 115.457 107.277 116.177C108.26 117.428 109.176 118.756 109.719 120.239C110.137 121.39 110.386 122.697 110.16 123.914C109.945 125.087 109.142 126.061 108.215 126.792C106.564 128.098 104.586 128.973 102.437 129.028C100.413 129.072 98.4007 128.486 96.6255 127.545C96.0149 127.224 95.4382 126.858 94.8842 126.449C94.5336 126.194 94.2057 125.918 93.8778 125.63C93.2795 125.044 94.2895 123.43 94.4658 122.697C94.6015 122.121 95.099 120.04 95.5852 119.641C96.2523 119.088 97.123 119.21 97.9145 118.977C98.2876 118.867 98.6381 118.723 98.9886 118.546C100.323 117.87 101.487 116.985 102.607 116.011C102.81 115.845 103.003 115.646 103.138 115.413Z" fill="white"/>
<path d="M107.073 112.192C107.401 112.059 107.718 111.937 108.034 111.805C108.226 111.727 108.419 111.639 108.577 111.506C109.007 111.14 108.905 110.344 108.995 109.845C109.222 108.539 109.629 106.879 109.142 105.595C108.792 104.654 107.955 103.757 106.983 103.414C105.535 102.905 103.851 103.514 102.596 104.256C101.442 104.942 100.425 105.993 100.232 107.344C100.165 107.809 100.221 108.285 100.198 108.75C100.176 109.214 100.198 109.702 100.447 110.111C100.798 110.687 101.487 110.941 101.996 111.362C102.776 111.982 103.059 113.155 103.274 114.074C103.331 114.328 103.376 114.594 103.342 114.86C103.319 115.059 103.24 115.247 103.138 115.413C103.003 115.646 102.81 115.845 102.607 116.011C101.487 116.985 100.323 117.87 98.9886 118.546C98.6381 118.723 98.2876 118.867 97.9145 118.977C97.123 119.21 96.2523 119.088 95.5852 119.641C95.099 120.04 94.6015 122.121 94.4658 122.697C94.2895 123.43 93.2795 125.044 93.8778 125.63C94.2057 125.918 94.5336 126.194 94.8842 126.449C95.4382 126.858 96.0149 127.224 96.6255 127.545C98.4007 128.486 100.413 129.072 102.437 129.028C104.586 128.973 106.564 128.098 108.215 126.792C109.142 126.061 109.945 125.087 110.16 123.914C110.386 122.697 110.137 121.39 109.719 120.239C109.176 118.756 108.26 117.428 107.277 116.177C106.711 115.457 106.123 114.86 106.067 113.93C105.999 113.022 106.214 112.546 107.073 112.192ZM107.073 112.192C106.809 112.317 106.056 112.557 105.151 112.513" stroke="#2E3032" stroke-width="0.705746" stroke-linecap="round"/>
<path d="M102.655 103.807C103.287 103.428 104.389 103.071 104.78 102.981C105.871 102.714 107.146 103.037 108.03 103.807C108.317 104.063 108.593 104.365 108.8 104.677C109.041 105.023 109.305 105.514 109.213 105.949C109.156 106.216 109.018 106.44 108.834 106.64C108.375 107.109 107.72 107.366 107.111 107.577C106.491 107.778 105.836 107.934 105.182 108.024C104.481 108.124 103.769 108.213 103.057 108.247C102.862 108.258 102.655 108.258 102.471 108.325C102.012 108.47 101.908 108.938 101.908 109.362C101.908 109.753 102.035 110.099 102.069 110.478C102.103 110.824 101.816 110.991 101.483 110.913C101.276 110.846 101.093 110.734 100.932 110.589C100.116 110.009 100.128 109.318 100.116 108.57C100.093 107.923 100.116 107.176 100.346 106.562C100.863 105.201 102.023 104.186 102.655 103.807Z" fill="#848484" stroke="#2E3032" stroke-width="0.705746" stroke-linecap="round"/>
<path d="M109.89 106.886C109.945 106.382 109.89 105.821 109.356 105.638C109.09 105.546 108.757 105.558 108.479 105.615C107.446 105.867 108.479 107.195 107.879 107.63C108.102 108.236 108.912 108.317 109.445 108.214C109.49 108.202 109.534 108.191 109.579 108.156C109.612 108.122 109.623 108.076 109.645 108.03C109.723 107.756 109.801 107.481 109.856 107.195C109.867 107.114 109.878 107 109.89 106.886Z" fill="white" stroke="#2E3032" stroke-width="0.705746" stroke-linecap="round"/>
<path d="M100.451 116.984C99.3352 116.827 98.0633 117.658 97.1931 118.276C96.613 118.692 96.0663 119.141 95.5419 119.613C95.0176 120.085 94.4263 120.568 94.0135 121.141C93.7234 121.557 93.2883 122.501 93.9242 122.793C93.9912 122.826 94.1027 122.871 94.3259 122.894C93.7539 123.412 92.8086 124.1 93.054 124.972C93.3776 126.141 95.5419 126.04 96.4679 125.983C98.2976 125.871 100.205 125.186 101.366 123.691C102.459 122.287 102.771 120.4 102.18 118.714C102.035 118.288 101.823 117.872 101.511 117.535C101.198 117.22 100.841 117.04 100.451 116.984Z" fill="#848484"/>
<path d="M94.3259 122.894C94.1027 122.871 93.9912 122.826 93.9242 122.793C93.2883 122.501 93.7234 121.557 94.0135 121.141C94.4263 120.568 95.0176 120.085 95.5419 119.613C96.0663 119.141 96.613 118.692 97.1931 118.276C98.0633 117.658 99.3352 116.827 100.451 116.984C100.841 117.04 101.198 117.22 101.511 117.535C101.823 117.872 102.035 118.288 102.18 118.714C102.771 120.4 102.459 122.287 101.366 123.691C100.205 125.186 98.2976 125.871 96.4679 125.983C95.5419 126.04 93.3776 126.141 93.054 124.972C92.8086 124.1 93.7539 123.412 94.3259 122.894ZM94.3259 122.894C95.237 122.905 97.4497 122.692 99.0116 121.748" stroke="#2E3032" stroke-width="0.705746" stroke-linecap="round"/>
<path d="M111.877 110.677C111.728 110.785 111.34 110.893 111.249 110.929C109.227 111.637 106.532 111.277 105.093 109.452C104.968 109.284 104.602 108.839 105.071 108.935C106.293 109.212 107.514 109.488 108.748 109.764C109.365 109.896 109.97 110.04 110.586 110.172C110.895 110.244 111.203 110.304 111.5 110.376C111.603 110.4 111.945 110.448 111.934 110.605C111.934 110.629 111.911 110.653 111.877 110.677Z" fill="#F5BD1A" stroke="#2E3032" stroke-width="0.705746" stroke-linecap="round"/>
<ellipse cx="108.65" cy="106.909" rx="0.337878" ry="0.335134" fill="#2E3032"/>
<path d="M104.408 104.326C104.804 103.77 105.425 103.714 106.16 104.048" stroke="#2E3032" stroke-width="0.705746" stroke-linecap="round"/>
<path d="M107.742 104.576C108.081 104.269 108.477 104.324 108.759 104.435" stroke="#2E3032" stroke-width="0.705746" stroke-linecap="round"/>
<path d="M103.317 125.032C103.191 125.393 103.013 126.209 103.317 126.594C103.466 126.782 103.707 126.767 103.951 126.669C104.43 126.478 104.944 126.378 104.944 126.894V126.894C104.944 127.555 106.68 125.393 106.517 124.672" stroke="#2E3032" stroke-width="0.705746" stroke-linecap="round"/>
<path d="M106.83 107.959C106.629 108.07 106.439 108.169 106.226 108.231C105.555 108.416 104.861 108.268 104.179 108.317C104.067 108.329 104.593 108.811 104.604 108.823C104.85 108.996 105.108 109.144 105.376 109.28C105.891 109.539 106.439 109.749 106.987 109.91C107.826 110.144 108.676 110.293 109.537 110.404C110.32 110.502 111.159 110.7 111.953 110.539C112.3 110.465 112.647 110.317 112.915 110.058C113.105 109.873 113.486 109.564 113.586 109.305C113.676 109.083 113.597 108.823 113.452 108.638C113.038 108.132 112.434 108.231 111.886 108.305C111.181 108.404 110.454 108.428 109.75 108.255C109.09 108.095 108.452 107.527 107.759 107.589C107.434 107.613 107.132 107.786 106.83 107.959Z" fill="#F5BD1A" stroke="#2E3032" stroke-width="0.705746" stroke-linecap="round"/>
<path d="M111.183 110.591C111.97 110.559 112.78 110.265 113.19 109.591C113.509 109.08 112.974 108.624 112.449 108.591C111.697 108.537 110.99 108.928 110.306 109.178C109.412 109.504 106.086 109.923 108.173 110.254C108.527 110.309 108.869 110.363 109.222 110.417C109.849 110.504 110.534 110.624 111.183 110.591Z" fill="#DA8C06" stroke="#2E3032" stroke-width="0.705746" stroke-linecap="round"/>
<path d="M106.883 105.55C106.636 105.071 106.191 104.837 105.549 104.915C104.955 104.993 104.226 105.216 103.979 105.739C103.67 106.385 103.843 107.142 104.375 107.655C104.646 107.911 104.968 108.111 105.301 108.301C105.61 108.49 105.956 108.657 106.34 108.557C106.587 108.49 106.784 108.312 106.908 108.111C107.353 107.41 107.229 106.508 106.982 105.773C106.957 105.706 106.92 105.628 106.883 105.55Z" fill="white" stroke="#2E3032" stroke-width="0.705746" stroke-linecap="round"/>
<ellipse cx="104.839" cy="106.909" rx="0.337878" ry="0.335134" fill="#2E3032"/>
<path d="M107.628 108.57C107.798 108.403 108.129 108.398 108.318 108.505" stroke="#2E3032" stroke-width="0.705746" stroke-linecap="round"/>
</g>
</g>
<g clip-path="url(#clip4_11937_26135)">
<rect opacity="0.4" x="206.528" y="92.1347" width="31.4983" height="31.4983" rx="15.7492" fill="#33A175" stroke="#2F3032" stroke-width="2.24988"/>
<path opacity="0.4" d="M222.301 100.023C224.5 100.023 226.7 100.023 228.907 100.023C229.103 100.023 229.157 100.074 229.157 100.291C229.157 101.338 229.157 102.382 229.157 103.425C229.157 103.627 229.103 103.672 228.927 103.668C227.401 103.668 225.881 103.668 224.345 103.668C224.145 103.668 224.104 103.727 224.108 103.929C224.121 104.558 224.121 105.187 224.108 105.814C224.108 106.012 224.145 106.075 224.341 106.086C225.948 106.143 227.546 106.377 229.11 106.784C229.624 106.914 230.121 107.11 230.592 107.368C230.782 107.47 230.954 107.607 231.1 107.773C231.156 107.827 231.2 107.893 231.231 107.967C231.261 108.041 231.277 108.121 231.277 108.203C231.277 108.284 231.261 108.364 231.231 108.438C231.2 108.512 231.156 108.578 231.1 108.633C230.813 108.935 230.466 109.16 230.085 109.29C229.157 109.648 228.195 109.895 227.218 110.025C226.252 110.186 225.278 110.284 224.301 110.319C224.118 110.319 224.118 110.422 224.118 110.569C224.118 112.95 224.118 115.346 224.118 117.713C224.118 117.955 224.06 118.007 223.844 118.007C222.788 118.007 221.729 118.007 220.673 118.007C220.493 118.007 220.459 117.952 220.459 117.772C220.459 115.412 220.459 113.057 220.459 110.698C220.459 110.33 220.459 110.33 220.121 110.33C218.54 110.254 216.97 110.011 215.434 109.603C214.853 109.466 214.297 109.229 213.785 108.901C213.109 108.441 213.109 107.931 213.785 107.479C214.468 107.06 215.212 106.776 215.985 106.637C217.395 106.317 218.827 106.127 220.267 106.068C220.432 106.068 220.47 106.009 220.466 105.84C220.466 105.2 220.466 104.565 220.466 103.929C220.466 103.723 220.429 103.653 220.223 103.657C218.7 103.657 217.177 103.657 215.657 103.657C215.451 103.657 215.413 103.587 215.413 103.381C215.413 102.345 215.413 101.309 215.413 100.269C215.413 100.041 215.481 100.008 215.667 100.008C217.881 100.026 220.091 100.023 222.301 100.023ZM222.419 109.709C223.574 109.722 224.728 109.669 225.878 109.548C226.906 109.456 227.925 109.27 228.924 108.989C229.326 108.889 229.711 108.721 230.064 108.489C230.514 108.169 230.508 107.831 230.064 107.512C229.845 107.353 229.605 107.229 229.354 107.144C227.684 106.645 225.964 106.375 224.233 106.339C224.074 106.339 224.101 106.435 224.101 106.534C224.101 107.269 224.101 108.026 224.101 108.772C224.101 108.941 224.064 109.011 223.901 109.018C222.808 109.062 221.715 109.07 220.622 109.018C220.48 109.018 220.446 108.956 220.446 108.809C220.446 108.052 220.446 107.299 220.446 106.545C220.446 106.376 220.402 106.339 220.25 106.343C219.498 106.38 218.747 106.45 217.999 106.545C217.048 106.648 216.11 106.854 215.197 107.159C214.927 107.241 214.669 107.364 214.432 107.526C214.022 107.831 214.026 108.162 214.432 108.467C214.59 108.58 214.759 108.673 214.936 108.746C215.534 108.985 216.152 109.159 216.781 109.265C218.644 109.593 220.531 109.742 222.419 109.709Z" fill="white"/>
<rect x="204.278" y="90.5762" width="34.6296" height="34.6296" fill="url(#paint12_linear_11937_26135)"/>
</g>
<path d="M154.73 112.422C153.814 112.111 152.982 111.799 152.232 111.488C151.483 111.155 150.838 110.761 150.296 110.304C149.755 109.847 149.328 109.307 149.016 108.684C148.725 108.04 148.579 107.261 148.579 106.348C148.579 104.935 149.016 103.752 149.89 102.796C150.765 101.82 152.014 101.156 153.637 100.803V98.2792C153.825 98.2377 154.116 98.1858 154.511 98.1235C154.907 98.0612 155.313 98.03 155.729 98.03C156.541 98.03 157.176 98.1754 157.634 98.4661C158.092 98.7361 158.321 99.328 158.321 100.242V100.647C159.611 100.813 160.642 101.145 161.412 101.644C162.203 102.142 162.598 102.827 162.598 103.7C162.598 104.24 162.473 104.707 162.224 105.101C161.974 105.475 161.672 105.797 161.318 106.067C160.86 105.776 160.246 105.527 159.476 105.32C158.706 105.091 157.863 104.977 156.947 104.977C156.01 104.977 155.323 105.112 154.886 105.382C154.449 105.631 154.23 105.953 154.23 106.348C154.23 106.659 154.366 106.919 154.636 107.126C154.907 107.313 155.313 107.49 155.854 107.656L157.509 108.186C159.466 108.809 160.964 109.608 162.005 110.584C163.067 111.54 163.597 112.848 163.597 114.509C163.597 115.922 163.15 117.126 162.255 118.123C161.36 119.099 160.048 119.764 158.321 120.117V122.609C158.133 122.65 157.842 122.702 157.446 122.765C157.051 122.827 156.645 122.858 156.229 122.858C155.417 122.858 154.782 122.713 154.324 122.422C153.866 122.152 153.637 121.56 153.637 120.646V120.335C152.888 120.252 152.201 120.117 151.577 119.93C150.973 119.743 150.442 119.504 149.984 119.213C149.547 118.923 149.204 118.58 148.954 118.185C148.704 117.791 148.579 117.344 148.579 116.846C148.579 116.243 148.756 115.735 149.11 115.319C149.464 114.883 149.849 114.551 150.265 114.322C150.848 114.779 151.556 115.174 152.388 115.506C153.242 115.839 154.168 116.005 155.167 116.005C156.187 116.005 156.905 115.849 157.322 115.537C157.738 115.226 157.946 114.862 157.946 114.447C157.946 114.032 157.78 113.72 157.446 113.513C157.113 113.284 156.645 113.066 156.041 112.858L154.73 112.422Z" fill="#2F3032"/>
<path d="M172.119 99.0892L167.436 100.538C166.967 100.226 166.499 99.7901 166.031 99.2294C165.562 98.6686 165.328 97.8898 165.328 96.893C165.328 95.0239 166.468 93.7155 168.747 92.9678L173.992 91.1922H175.725C177.068 91.1922 178.13 91.5816 178.91 92.3604C179.691 93.1392 180.081 94.1983 180.081 95.5379V119.883C179.738 119.945 179.222 120.023 178.535 120.117C177.88 120.241 177.208 120.304 176.522 120.304C175.835 120.304 175.21 120.257 174.648 120.163C174.117 120.07 173.665 119.883 173.29 119.603C172.915 119.322 172.619 118.949 172.4 118.481C172.213 117.983 172.119 117.344 172.119 116.565V99.0892Z" fill="#2F3032"/>
<path d="M201.98 105.725C201.98 102.983 201.574 100.865 200.762 99.3696C199.982 97.8743 198.858 97.1266 197.39 97.1266C195.923 97.1266 194.799 97.8743 194.018 99.3696C193.269 100.865 192.894 102.983 192.894 105.725C192.894 108.466 193.269 110.6 194.018 112.126C194.799 113.622 195.923 114.369 197.39 114.369C198.858 114.369 199.982 113.622 200.762 112.126C201.574 110.6 201.98 108.466 201.98 105.725ZM209.989 105.725C209.989 108.123 209.676 110.257 209.052 112.126C208.427 113.995 207.553 115.569 206.429 116.846C205.336 118.092 204.009 119.042 202.448 119.696C200.918 120.35 199.248 120.677 197.437 120.677C195.595 120.677 193.893 120.35 192.332 119.696C190.802 119.042 189.475 118.092 188.351 116.846C187.258 115.569 186.4 113.995 185.775 112.126C185.182 110.257 184.885 108.123 184.885 105.725C184.885 103.326 185.182 101.208 185.775 99.3696C186.4 97.5004 187.258 95.9428 188.351 94.6968C189.475 93.4195 190.802 92.4538 192.332 91.7996C193.893 91.1455 195.595 90.8184 197.437 90.8184C199.248 90.8184 200.918 91.1455 202.448 91.7996C204.009 92.4538 205.336 93.4195 206.429 94.6968C207.553 95.9428 208.427 97.5004 209.052 99.3696C209.676 101.208 209.989 103.326 209.989 105.725Z" fill="#2F3032"/>
<defs>
<filter id="filter0_f_11937_26135" x="0.772853" y="0.772853" width="338.899" height="193.454" filterUnits="userSpaceOnUse" color-interpolation-filters="sRGB">
<feFlood flood-opacity="0" result="BackgroundImageFix"/>
<feBlend mode="normal" in="SourceGraphic" in2="BackgroundImageFix" result="shape"/>
<feGaussianBlur stdDeviation="1.61357" result="effect1_foregroundBlur_11937_26135"/>
</filter>
<linearGradient id="paint0_linear_11937_26135" x1="197.793" y1="80.2482" x2="214.174" y2="54.0951" gradientUnits="userSpaceOnUse">
<stop stop-color="#FFE60C"/>
<stop offset="1" stop-color="white" stop-opacity="0.1"/>
</linearGradient>
<linearGradient id="paint1_linear_11937_26135" x1="147.62" y1="103.598" x2="110.445" y2="28.2583" gradientUnits="userSpaceOnUse">
<stop stop-color="#FFE60C"/>
<stop offset="1" stop-color="white" stop-opacity="0.1"/>
</linearGradient>
<linearGradient id="paint2_linear_11937_26135" x1="220.294" y1="110.192" x2="276.576" y2="57.9204" gradientUnits="userSpaceOnUse">
<stop stop-color="#FFE60C"/>
<stop offset="1" stop-color="white" stop-opacity="0.1"/>
</linearGradient>
<linearGradient id="paint3_linear_11937_26135" x1="136.536" y1="115.456" x2="0.75588" y2="96.2437" gradientUnits="userSpaceOnUse">
<stop stop-color="#FFE60C"/>
<stop offset="1" stop-color="white" stop-opacity="0.1"/>
</linearGradient>
<linearGradient id="paint4_linear_11937_26135" x1="195.66" y1="127.649" x2="301.574" y2="97.9463" gradientUnits="userSpaceOnUse">
<stop stop-color="#FFE60C"/>
<stop offset="1" stop-color="white" stop-opacity="0.1"/>
</linearGradient>
<linearGradient id="paint5_linear_11937_26135" x1="124.798" y1="137.595" x2="86.2023" y2="204.513" gradientUnits="userSpaceOnUse">
<stop stop-color="#FFE60C"/>
<stop offset="1" stop-color="white" stop-opacity="0.1"/>
</linearGradient>
<linearGradient id="paint6_linear_11937_26135" x1="166.356" y1="130.253" x2="178.704" y2="179.879" gradientUnits="userSpaceOnUse">
<stop stop-color="#FFE60C"/>
<stop offset="1" stop-color="white" stop-opacity="0.1"/>
</linearGradient>
<linearGradient id="paint7_linear_11937_26135" x1="227.778" y1="129.137" x2="217.601" y2="176.932" gradientUnits="userSpaceOnUse">
<stop stop-color="#FFE60C"/>
<stop offset="1" stop-color="white"/>
</linearGradient>
<linearGradient id="paint8_linear_11937_26135" x1="117.824" y1="94.1625" x2="26.6599" y2="24.2201" gradientUnits="userSpaceOnUse">
<stop stop-color="#FFE60C"/>
<stop offset="1" stop-color="white" stop-opacity="0.1"/>
</linearGradient>
<linearGradient id="paint9_linear_11937_26135" x1="161.011" y1="124.612" x2="63.0044" y2="148.379" gradientUnits="userSpaceOnUse">
<stop stop-color="#FFE60C"/>
<stop offset="1" stop-color="white" stop-opacity="0.1"/>
</linearGradient>
<linearGradient id="paint10_linear_11937_26135" x1="166.684" y1="114.844" x2="163.74" y2="10.9954" gradientUnits="userSpaceOnUse">
<stop stop-color="#FFE60C"/>
<stop offset="1" stop-color="white" stop-opacity="0.1"/>
</linearGradient>
<linearGradient id="paint11_linear_11937_26135" x1="93.693" y1="106.494" x2="251.613" y2="103.206" gradientUnits="userSpaceOnUse">
<stop stop-color="#FFCD1E"/>
<stop offset="1" stop-color="#FEA63F"/>
</linearGradient>
<linearGradient id="paint12_linear_11937_26135" x1="204.278" y1="107.764" x2="238.803" y2="109.662" gradientUnits="userSpaceOnUse">
<stop stop-color="#FFB435"/>
<stop offset="1" stop-color="#FEA63F" stop-opacity="0"/>
</linearGradient>
<clipPath id="clip0_11937_26135">
<rect width="332.444" height="187" fill="white" transform="translate(4 4)"/>
</clipPath>
<clipPath id="clip1_11937_26135">
<rect width="109.949" height="52.8102" fill="white" transform="translate(94.3291 80.1875)"/>
</clipPath>
<clipPath id="clip2_11937_26135">
<rect width="45.1678" height="46.5793" fill="white" transform="translate(90.3105 88.1465)"/>
</clipPath>
<clipPath id="clip3_11937_26135">
<rect width="26.3529" height="35.8572" fill="white" transform="translate(90.3105 98.8691)"/>
</clipPath>
<clipPath id="clip4_11937_26135">
<rect width="36.3611" height="34.6296" fill="white" transform="translate(204.278 90.5762)"/>
</clipPath>
</defs>
</svg>
