<svg width="129" height="33" viewBox="0 0 129 33" fill="none" xmlns="http://www.w3.org/2000/svg">
<path d="M53.645 12.5733C53.2257 12.1306 52.7278 11.7941 52.1513 11.5639C51.5748 11.316 50.9197 11.192 50.186 11.192C49.4348 11.192 48.7623 11.3249 48.1683 11.5905C47.5918 11.8384 47.1027 12.2015 46.7009 12.6796C46.2991 13.1577 45.9934 13.7333 45.7837 14.4062C45.5741 15.0615 45.4693 15.7876 45.4693 16.5845C45.4693 18.2137 45.8798 19.5242 46.7009 20.5159C47.5219 21.4899 48.6836 21.9769 50.186 21.9769C50.9721 21.9769 51.6709 21.8441 52.2823 21.5784C52.8938 21.2951 53.4004 20.9055 53.8022 20.4096L56.9205 24.0489C56.0819 24.8104 55.0949 25.3948 53.9594 25.8021C52.8239 26.2094 51.5748 26.413 50.2122 26.413C48.7623 26.413 47.4433 26.1828 46.2554 25.7224C45.0675 25.2442 44.0455 24.5713 43.1895 23.7035C42.351 22.8358 41.6959 21.7998 41.2242 20.5956C40.77 19.3914 40.5429 18.0455 40.5429 16.5579C40.5429 15.088 40.77 13.751 41.2242 12.5468C41.6959 11.3426 42.351 10.3154 43.1895 9.46539C44.0455 8.59764 45.0675 7.93355 46.2554 7.47311C47.4608 6.99497 48.7885 6.75589 50.2384 6.75589C51.6534 6.75589 52.9462 6.97726 54.1166 7.41999C55.2871 7.86271 56.3003 8.50024 57.1563 9.33257L53.645 12.5733Z" fill="#2F3032"/>
<path d="M58.9933 7.28717H65.0202L67.7192 11.4842L70.3921 7.28717H76.419L70.2872 16.8767V21.18L65.256 25.8818V17.0095L58.9933 7.28717Z" fill="#2F3032"/>
<path d="M90.1874 12.5733C89.7682 12.1306 89.2703 11.7941 88.6938 11.5639C88.1173 11.316 87.4622 11.192 86.7285 11.192C85.9773 11.192 85.3047 11.3249 84.7108 11.5905C84.1343 11.8384 83.6451 12.2015 83.2433 12.6796C82.8415 13.1577 82.5358 13.7333 82.3262 14.4062C82.1166 15.0615 82.0117 15.7876 82.0117 16.5845C82.0117 18.2137 82.4223 19.5242 83.2433 20.5159C84.0644 21.4899 85.2261 21.9769 86.7285 21.9769C87.5146 21.9769 88.2134 21.8441 88.8248 21.5784C89.4362 21.2951 89.9428 20.9055 90.3446 20.4096L93.4629 24.0489C92.6244 24.8104 91.6374 25.3948 90.5019 25.8021C89.3664 26.2094 88.1173 26.413 86.7547 26.413C85.3047 26.413 83.9858 26.1828 82.7979 25.7224C81.6099 25.2442 80.588 24.5713 79.732 23.7035C78.8934 22.8358 78.2383 21.7998 77.7667 20.5956C77.3125 19.3914 77.0854 18.0455 77.0854 16.5579C77.0854 15.088 77.3125 13.751 77.7667 12.5468C78.2383 11.3426 78.8934 10.3154 79.732 9.46539C80.588 8.59764 81.6099 7.93355 82.7979 7.47311C84.0033 6.99497 85.3309 6.75589 86.7809 6.75589C88.1959 6.75589 89.4886 6.97726 90.6591 7.41999C91.8295 7.86271 92.8428 8.50024 93.6988 9.33257L90.1874 12.5733Z" fill="#2F3032"/>
<path d="M100.619 7.28717V21.4456H111.101V25.8818H95.5619V12.0421L100.619 7.28717Z" fill="#2F3032"/>
<path d="M129 7.28717V11.7233H118.492V14.0875H126.361L124.309 18.5236H118.518V21.4456H129V25.8818H113.461V7.28717H129Z" fill="#2F3032"/>
<path fill-rule="evenodd" clip-rule="evenodd" d="M22.0199 1.05424L31.0017 10.0128C32.1969 11.2049 31.3504 13.2432 29.6602 13.2432H24.7413C24.2382 13.2432 23.7556 13.0438 23.3998 12.6889L14.418 3.73034L2.79153 15.3268L14.418 26.9232L15.9831 25.3622L12.4111 21.7993C11.9171 21.3067 11.9171 20.5079 12.4111 20.0153C12.905 19.5226 13.7058 19.5226 14.1997 20.0153L17.7718 23.5781L21.7282 19.6319C22.0746 19.2864 22.5414 19.088 23.0311 19.078L29.7016 18.9427C31.4102 18.908 32.2901 20.9674 31.0817 22.1726L25.5065 27.7334C25.2986 27.9409 25.0397 28.09 24.756 28.1658C23.4602 28.5121 22.5625 26.9953 23.5178 26.0538C25.0674 24.5265 26.6485 23.0263 28.1816 21.4971L23.337 21.5954L15.7595 29.1533C15.0186 29.8923 13.8174 29.8923 13.0765 29.1533L0.555674 16.6648C-0.185224 15.9258 -0.185226 14.7277 0.555674 13.9887L13.0765 1.50026C13.8174 0.761272 15.0186 0.761269 15.7595 1.50026L17.3246 3.06131L19.3369 1.05424C20.0778 0.315254 21.279 0.315254 22.0199 1.05424ZM20.6784 3.28432L19.1133 4.84538L25.0033 10.7201H28.1335L20.6784 3.28432Z" fill="#2F3032"/>
<path d="M14.4868 7.74449C14.9807 8.23715 14.9807 9.0359 14.4868 9.52856L9.08632 14.9151L10.8105 16.6348C11.3045 17.1275 11.3045 17.9262 10.8105 18.4189C10.3166 18.9115 9.51576 18.9115 9.02183 18.4189L6.85046 16.2531C6.10956 15.5141 6.10956 14.316 6.85046 13.577L12.6981 7.74449C13.192 7.25184 13.9928 7.25184 14.4868 7.74449Z" fill="#2F3032"/>
<path d="M17.8426 11.2927C17.3487 10.8 16.5478 10.8 16.0539 11.2927C15.56 11.7854 15.56 12.5841 16.0539 13.0768L19.6631 16.6766C20.0189 17.0315 20.5014 17.2308 21.0046 17.2308H29.9978C30.6964 17.2308 31.2626 16.666 31.2626 15.9693C31.2626 15.2726 30.6964 14.7078 29.9978 14.7078H21.2665L17.8426 11.2927Z" fill="#2F3032"/>
</svg>
