<svg width="68" height="91" viewBox="0 0 68 91" fill="none" xmlns="http://www.w3.org/2000/svg">
<g clip-path="url(#clip0_10387_20110)">
<rect width="68" height="68" rx="14" fill="#FFC300"/>
<path d="M33.8256 18.9861C32.9603 17.3436 32.5505 15.9826 32.6871 14.8562C32.8693 13.3544 34.281 12.6035 35.6928 12.6035C37.5145 12.6035 39.9282 14.3869 41.5677 15.1847C42.8428 15.7948 42.2508 16.6865 41.1122 17.2497L35.875 19.6901C35.1008 20.0656 34.2355 19.737 33.8256 18.9861Z" fill="white" stroke="#2F3032" stroke-width="2"/>
<path d="M31.2545 24.9674C30.0266 23.6374 29.306 22.4599 29.1695 21.3683C28.9875 19.9129 30.173 18.8602 31.5375 18.5129C33.2982 18.0647 36.0563 19.1459 37.8311 19.4919C39.209 19.7512 38.8494 20.7344 37.8832 21.5435L33.4031 25.1244C32.7443 25.6675 31.8297 25.5718 31.2545 24.9674Z" fill="white" stroke="#2F3032" stroke-width="2"/>
<path d="M45.8879 65.8919C45.7969 67.7859 45.8879 69.7251 45.5693 71.1681C45.1141 73.3778 45.0686 75.9483 46.6617 77.5266C47.481 78.2932 48.5735 78.6991 49.5294 79.3304C50.0756 79.6912 50.6218 80.0971 51.2591 80.1873C53.6261 80.548 54.4909 79.1951 56.1296 81.495C57.2676 83.0734 57.3131 85.2831 59.0883 86.3654C60.1808 87.0418 61.5919 86.9516 62.7299 86.3654C67.919 83.5694 65.2334 74.1895 63.3671 70.1309C61.5919 66.2527 52.215 53.671 47.1624 60.4353C46.161 61.7882 45.9334 63.8175 45.8879 65.8919Z" fill="white" stroke="#2F3032" stroke-width="2"/>
<path d="M49.6451 40.6965C49.8267 44.282 49.1911 47.8674 49.5543 51.4529C50.3714 59.9401 58.6788 65.0233 60.9032 73.0112C62.265 77.9129 62.719 83.45 61.1302 88.3516C57.0446 101.105 36.9797 103.238 27.5375 95.9765C21.0459 90.984 18.7307 84.7208 22.317 76.9598C23.9966 73.3743 26.448 70.2427 28.7178 66.9749C29.6711 65.5679 30.6698 64.3425 31.8047 63.0717C34.0744 60.6209 35.6633 59.4408 36.4804 55.9915C37.2975 52.5876 38.16 49.1836 38.1146 45.6889C38.0692 39.6072 33.8928 35.7948 32.4856 30.167C31.6231 26.6269 31.6685 22.4967 33.8928 19.229C35.1185 17.4589 36.8435 16.1427 38.8863 15.7342C43.2897 15.0081 45.6049 17.8674 46.5128 21.7252C47.9655 27.6253 49.1003 33.8886 49.5997 39.9249C49.6451 40.1972 49.6451 40.4695 49.6451 40.6965Z" fill="white" stroke="#2F3032" stroke-width="2"/>
<path d="M44.091 23.8238C44.5409 20.6997 46.3856 15.2666 50.4348 18.3454C54.4841 21.4694 54.3511 23.2684 54.3041 24.5935M44.091 23.8238C44.4059 24.8651 45.9806 27.4911 49.535 29.5738C53.0893 31.6565 54.2141 27.1289 54.3041 24.5935M44.091 23.8238C45.1258 22.4202 48.6546 17.9424 54.3041 24.5935L44.091 23.8238Z" fill="white"/>
<path d="M44.091 23.8238C44.5409 20.6997 46.3856 15.2666 50.4348 18.3454C54.4841 21.4694 54.3511 23.2684 54.3041 24.5935M44.091 23.8238C44.4059 24.8651 45.9806 27.4911 49.535 29.5738C53.0893 31.6565 54.2141 27.1289 54.3041 24.5935M44.091 23.8238C45.1258 22.4202 48.6546 17.9424 54.3041 24.5935" stroke="#2F3032" stroke-width="2"/>
<path d="M54.0677 40.2766L47.9611 41.2047C47.8024 41.245 47.6588 41.2425 47.5001 41.2829C47.039 41.3611 46.578 41.4393 46.0893 41.4594C45.4141 41.4619 44.7566 41.2777 44.0462 40.8336C42.7966 40.006 42.1694 38.916 42.3634 37.6823C42.5271 36.5343 43.3333 35.6135 44.278 34.9828C46.1826 33.6785 49.3241 33.1009 51.8836 34.5846C53.0777 35.2961 54.1862 35.9774 55.1082 36.641C55.8741 37.2011 56.2469 38.0564 55.9446 38.9142C55.6725 39.6863 54.9167 40.1908 54.0677 40.2766Z" fill="#FFC300" stroke="#2F3032" stroke-width="2"/>
<path d="M55.6167 27.5419C57.1035 28.8718 58.7254 30.0688 60.4825 31.0441C62.2396 32.0638 64.267 32.5957 65.979 33.5711C66.6548 33.9257 67.1954 34.5464 66.835 35.3C66.6548 35.699 66.2042 35.965 65.9339 36.1423C62.7802 37.7826 58.9507 37.6939 55.5266 37.8713C51.607 38.0486 47.4621 38.0486 43.7677 36.63C41.5151 35.7877 39.2624 33.4381 41.2447 31.1771C42.6864 29.5368 45.0743 28.8718 47.0116 27.9852C48.1379 27.4976 49.2642 26.9656 50.4807 26.6996C52.1476 26.3006 54.2651 26.3893 55.6167 27.5419Z" fill="#FFC300" stroke="#2F3032" stroke-width="2"/>
<path d="M50.2324 25C49.6801 25 49.2324 24.7761 49.2324 24.5C49.2324 24.2239 49.6801 24 50.2324 24C50.7847 24 51.2324 24.2239 51.2324 24.5C51.2324 24.7761 50.7847 25 50.2324 25Z" fill="#2F3032"/>
<path d="M37.6036 69.2893C37.5592 70.1063 37.5148 70.878 37.6925 71.7858C38.048 73.6921 38.759 75.4623 38.6701 77.4594C38.5368 79.5927 37.337 81.4991 35.604 82.5884C33.3377 84.0409 32.2268 82.9062 29.9606 83.1785C29.2496 83.2693 28.7163 83.8594 28.4053 84.4948C28.0942 85.1303 27.9609 85.8565 27.7387 86.5373C27.1611 88.2621 25.9168 89.8054 24.1838 90.3047C21.2954 91.1217 19.5624 88.6252 19.0736 86.0834C17.4739 76.9602 23.8283 64.9319 32.7156 62.254C35.7817 61.3462 37.5592 64.5234 37.6925 67.2014C37.7369 67.9276 37.6481 68.6085 37.6036 69.2893Z" fill="white" stroke="#2F3032" stroke-width="2"/>
<path d="M54.9189 32.5216C54.4288 32.1192 53.0207 31.3145 51.3096 31.3145" stroke="#2F3032" stroke-width="2" stroke-linecap="round"/>
<path d="M42.1404 61.965C42.4067 62.9789 43.244 65.1279 44.4629 65.6123C45.2049 65.9071 45.383 64.669 45.4625 63.4129C45.5453 62.1034 46.0686 61.9195 46.9173 62.9187C47.3439 63.421 47.8445 63.8998 48.3768 64.099C50.2279 64.7918 51.7649 60.687 48.4233 56.7678" stroke="#2E3032" stroke-width="2" stroke-linecap="round"/>
<path d="M47.7002 25.0308C47.2279 21.9068 45.2916 16.4737 41.0413 19.5524C36.7909 22.6312 36.602 24.9855 37.027 25.8005M47.7002 25.0308C47.7002 26.9812 45.7167 28.6982 41.9858 30.7808C38.2549 32.8635 37.0742 28.336 36.9798 25.8005M47.7002 25.0308C46.614 23.6273 42.9775 21.8162 36.9798 25.8005L47.7002 25.0308Z" fill="white"/>
<path d="M47.7002 25.0308C47.2279 21.9068 45.2916 16.4737 41.0413 19.5524C36.7909 22.6312 36.602 24.9855 37.027 25.8005M47.7002 25.0308C47.7002 26.9812 45.7167 28.6982 41.9858 30.7809C38.2549 32.8635 37.0742 28.336 36.9798 25.8005C42.9775 21.8162 46.614 23.6273 47.7002 25.0308Z" stroke="#2F3032" stroke-width="2"/>
<path d="M44.3916 27.088C43.8933 27.088 43.4893 26.8177 43.4893 26.4844C43.4893 26.1511 43.8933 25.8809 44.3916 25.8809C44.89 25.8809 45.2939 26.1511 45.2939 26.4844C45.2939 26.8177 44.89 27.088 44.3916 27.088Z" fill="#2F3032"/>
<path d="M21.9879 6.20519L15.0864 16.3993C14.8501 16.7822 15.1337 17.165 15.5119 16.9257C17.6863 15.6814 21.0425 12.762 22.8388 11.4697C24.8241 10.034 23.926 7.7367 22.6497 6.15733C22.5079 5.91803 22.177 5.96589 21.9879 6.20519Z" fill="#848484" stroke="#2E3032" stroke-width="2" stroke-linecap="round"/>
<path d="M13.9641 50.3654C14.2653 49.87 14.4996 49.3085 14.5665 48.7139C14.6669 47.9212 14.533 47.1284 14.3657 46.3687C13.7298 43.6272 12.8932 40.126 10.5839 38.2763C9.07793 37.0211 7.03647 36.2614 5.99899 34.5438C5.26272 33.3217 5.19578 31.8683 5.26272 30.4811C5.32965 29.0938 5.16232 27.6735 5.36312 26.2862C5.93205 22.2564 8.94407 19.1185 12.3577 17.0706C16.0725 14.8576 21.0591 13.0409 25.3429 14.5603C28.221 15.5843 30.6976 18.2597 31.7351 21.0673C33.1741 24.8989 31.9693 29.8535 31.3 33.7511C31.0323 35.2374 31.3335 37.6157 30.0617 38.7057C29.5932 39.102 29.0242 39.3663 28.4553 39.5975C27.5182 39.9938 26.5811 40.3572 25.6106 40.7535C23.0671 41.8105 22.4312 43.2308 22.632 45.9393C22.7994 48.7139 24.5397 50.4976 26.213 52.6446C29.1246 56.377 31.8355 60.3407 33.4419 64.7668C34.6802 68.2019 35.4164 72.0995 34.7471 75.7329C34.1112 79.2341 31.7351 82.1408 28.9908 84.3208C24.1046 88.2184 18.2479 90.8279 11.8892 90.993C5.89858 91.1251 -0.0585241 89.3745 -5.31283 86.5669C-7.12005 85.609 -8.82686 84.519 -10.4667 83.2969C-11.5042 82.5372 -12.4748 81.7114 -13.4453 80.8526C-15.2161 79.1049 -12.2267 74.2879 -11.705 72.0996C-11.3034 70.382 -9.83087 64.1722 -8.39179 62.9831C-6.41724 61.3316 -3.84029 61.6949 -1.4976 61.0013C-0.393191 60.671 0.644283 60.2416 1.68176 59.7131C5.63086 57.6982 9.07794 55.0558 12.3912 52.1491C12.9936 51.6536 13.5625 51.0591 13.9641 50.3654Z" fill="white"/>
<path d="M25.6106 40.7536C26.5811 40.3572 27.5182 39.9938 28.4553 39.5975C29.0242 39.3663 29.5932 39.102 30.0617 38.7057C31.3335 37.6156 31.0323 35.2374 31.3 33.7511C31.9693 29.8535 33.1741 24.8989 31.7351 21.0673C30.6976 18.2597 28.221 15.5843 25.3429 14.5603C21.0591 13.0409 16.0725 14.8576 12.3577 17.0706C8.94407 19.1185 5.93206 22.2564 5.36312 26.2862C5.16232 27.6735 5.32965 29.0938 5.26272 30.4811C5.19578 31.8683 5.26272 33.3217 5.99899 34.5438C7.03647 36.2614 9.07794 37.0211 10.5839 38.2763C12.8932 40.126 13.7298 43.6272 14.3657 46.3687C14.533 47.1284 14.6669 47.9212 14.5665 48.7139C14.4996 49.3085 14.2653 49.87 13.9641 50.3654C13.5625 51.0591 12.9936 51.6536 12.3912 52.1491C9.07794 55.0558 5.63086 57.6982 1.68176 59.7131C0.644283 60.2416 -0.393192 60.671 -1.4976 61.0013C-3.84029 61.6949 -6.41724 61.3316 -8.39179 62.9831C-9.83087 64.1722 -11.3034 70.382 -11.705 72.0996C-12.2267 74.2879 -15.2161 79.1049 -13.4453 80.8526C-12.4748 81.7114 -11.5042 82.5372 -10.4667 83.2969C-8.82686 84.519 -7.12005 85.609 -5.31283 86.5669C-0.0585242 89.3745 5.89858 91.1251 11.8892 90.993C18.2479 90.8279 24.1046 88.2184 28.9908 84.3208C31.7351 82.1408 34.1112 79.2341 34.7471 75.7329C35.4164 72.0995 34.6802 68.2019 33.4419 64.7668C31.8355 60.3407 29.1246 56.377 26.213 52.6445C24.5397 50.4976 22.7994 48.7139 22.632 45.9393C22.4312 43.2308 23.0671 41.8105 25.6106 40.7536ZM25.6106 40.7536C24.8297 41.1279 22.5985 41.8436 19.9212 41.7115" stroke="#2E3032" stroke-width="2" stroke-linecap="round"/>
<path d="M12.5336 15.7398C14.4034 14.6081 17.6669 13.5429 18.8227 13.2766C22.0522 12.4777 25.8256 13.443 28.4432 15.7398C29.2931 16.5054 30.1089 17.4042 30.7208 18.3362C31.4347 19.3681 32.2166 20.8327 31.9447 22.1309C31.7747 22.9298 31.3668 23.5955 30.8228 24.1947C29.463 25.5927 27.5253 26.3583 25.7236 26.9908C23.8879 27.59 21.9502 28.056 20.0125 28.3223C17.9388 28.6218 15.8311 28.8881 13.7234 28.988C13.1455 29.0213 12.5336 29.0213 11.9897 29.221C10.6299 29.6537 10.324 31.0518 10.324 32.3167C10.324 33.4817 10.6979 34.5136 10.7999 35.6454C10.9019 36.6773 10.052 37.1766 9.06615 36.9436C8.45424 36.7438 7.91032 36.411 7.4344 35.9782C5.02077 34.2474 5.05476 32.1835 5.02077 29.9533C4.95278 28.0227 5.02077 25.7925 5.70066 23.9617C7.23043 19.9007 10.6639 16.8716 12.5336 15.7398Z" fill="#848484" stroke="#2E3032" stroke-width="2" stroke-linecap="round"/>
<path d="M33.9494 24.9244C34.1137 23.4214 33.9494 21.7475 32.3716 21.2009C31.5828 20.9277 30.5967 20.9618 29.7749 21.1326C26.7181 21.8842 29.7749 25.8468 28 27.1449C28.6574 28.9554 31.0569 29.1945 32.6346 28.8871C32.7661 28.8529 32.8975 28.8187 33.029 28.7163C33.1276 28.6138 33.1605 28.4771 33.2262 28.3405C33.4563 27.5206 33.6864 26.7008 33.8508 25.8468C33.8836 25.6077 33.9165 25.266 33.9494 24.9244Z" fill="white" stroke="#2E3032" stroke-width="2" stroke-linecap="round"/>
<path d="M6.00998 55.058C2.70801 54.5886 -1.05622 57.0694 -3.63176 58.9132C-5.34878 60.1535 -6.96674 61.4945 -8.51867 62.9025C-10.0706 64.3105 -11.8206 65.752 -13.0424 67.4617C-13.9009 68.702 -15.1886 71.518 -13.3065 72.3896C-13.1084 72.4902 -12.7782 72.6243 -12.1178 72.6913C-13.8106 74.2381 -16.6084 76.2903 -15.882 78.8932C-14.9245 82.3797 -8.51867 82.0779 -5.77804 81.9103C-0.362814 81.5751 5.28354 79.5302 8.71759 75.0715C11.9535 70.8811 12.8781 65.2491 11.128 60.2206C10.6988 58.9467 10.0714 57.7063 9.14684 56.7006C8.22229 55.7619 7.16566 55.2256 6.00998 55.058Z" fill="#848484"/>
<path d="M-12.1178 72.6913C-12.7782 72.6243 -13.1084 72.4902 -13.3065 72.3896C-15.1886 71.518 -13.9009 68.702 -13.0424 67.4617C-11.8206 65.752 -10.0706 64.3105 -8.51867 62.9025C-6.96674 61.4945 -5.34878 60.1535 -3.63176 58.9132C-1.05623 57.0694 2.70801 54.5886 6.00998 55.058C7.16566 55.2256 8.22229 55.7619 9.14684 56.7006C10.0714 57.7063 10.6988 58.9467 11.128 60.2206C12.8781 65.2491 11.9535 70.8811 8.71759 75.0715C5.28354 79.5302 -0.362814 81.5751 -5.77804 81.9103C-8.51867 82.0779 -14.9245 82.3797 -15.882 78.8932C-16.6084 76.2903 -13.8106 74.2381 -12.1178 72.6913ZM-12.1178 72.6913C-9.4212 72.7249 -2.8723 72.0879 1.75045 69.2719" stroke="#2E3032" stroke-width="2" stroke-linecap="round"/>
<path d="M39.8302 36.2359C39.3908 36.5584 38.2416 36.8809 37.9712 36.9884C31.9887 39.1025 24.0121 38.0275 19.7534 32.5809C19.3816 32.0793 18.3 30.7535 19.6858 31.0401C23.3023 31.8643 26.9189 32.6884 30.5692 33.5126C32.3943 33.9068 34.1857 34.3368 36.0109 34.7309C36.9234 34.9459 37.836 35.1251 38.7148 35.3401C39.019 35.4117 40.033 35.5551 39.9992 36.0209C39.9992 36.0926 39.9316 36.1642 39.8302 36.2359Z" fill="#F5BD1A" stroke="#2E3032" stroke-width="2" stroke-linecap="round"/>
<circle cx="29" cy="25" r="1" fill="#2E3032"/>
<path d="M17.7236 18.3398C18.8944 16.6806 20.7342 16.5147 22.9085 17.5102" stroke="#2E3032" stroke-width="2" stroke-linecap="round"/>
<path d="M27.5918 19.0918C28.5953 18.174 29.7661 18.3399 30.6024 18.6718" stroke="#2E3032" stroke-width="2" stroke-linecap="round"/>
<path d="M24.8921 28.1192C24.2962 28.4507 23.7334 28.7455 23.1044 28.9297C21.1181 29.4823 19.0656 29.0402 17.0462 29.1875C16.7151 29.2244 18.2711 30.6612 18.3042 30.698C19.0325 31.2138 19.7939 31.6559 20.5884 32.0611C22.1113 32.8348 23.7334 33.4611 25.3556 33.94C27.8385 34.64 30.3545 35.0821 32.9035 35.4136C35.2209 35.7084 37.7038 36.2978 40.0543 35.8189C41.0805 35.5978 42.1068 35.1558 42.9013 34.3821C43.4641 33.8295 44.5897 32.9085 44.8876 32.1348C45.1524 31.4717 44.9207 30.698 44.4903 30.1454C43.2655 28.6349 41.4778 28.9297 39.8556 29.1507C37.77 29.4454 35.6182 29.5191 33.5325 29.0033C31.5793 28.5244 29.6923 26.8297 27.6398 27.0139C26.6798 27.0876 25.7859 27.6034 24.8921 28.1192Z" fill="#F5BD1A" stroke="#2E3032" stroke-width="2" stroke-linecap="round"/>
<path d="M37.7771 35.9836C40.1055 35.8863 42.5014 35.0105 43.7162 32.9994C44.661 31.4749 43.075 30.1126 41.5228 30.0153C39.2956 29.8531 37.2035 31.0208 35.1788 31.7668C32.5328 32.7385 22.6896 33.9882 28.8686 34.9781C29.9147 35.1403 30.927 35.3024 31.9731 35.4646C33.829 35.7241 35.8537 36.0809 37.7771 35.9836Z" fill="#DA8C06" stroke="#2E3032" stroke-width="2" stroke-linecap="round"/>
<path d="M25.048 20.9381C24.3165 19.5092 22.9997 18.8114 21.0977 19.044C19.342 19.2766 17.184 19.9412 16.4525 21.5031C15.5381 23.4304 16.0501 25.6901 17.6229 27.2187C18.4276 27.983 19.3786 28.5811 20.3662 29.146C21.2806 29.7109 22.3048 30.2094 23.4387 29.9103C24.1702 29.7109 24.7554 29.1792 25.1212 28.5811C26.438 26.4876 26.0722 23.7959 25.3406 21.6027C25.2675 21.4034 25.1578 21.1707 25.048 20.9381Z" fill="white" stroke="#2E3032" stroke-width="2" stroke-linecap="round"/>
<circle cx="19" cy="25" r="1" fill="#2E3032"/>
<path d="M27.2568 29.9531C27.7586 29.4553 28.7372 29.44 29.2965 29.7582" stroke="#2E3032" stroke-width="2" stroke-linecap="round"/>
</g>
<path d="M14.2161 79.2352C14.4222 79.2352 14.6137 79.2757 14.7904 79.3567C14.9745 79.4303 15.1328 79.5334 15.2654 79.6659C15.4053 79.7911 15.512 79.9421 15.5857 80.1188C15.6667 80.2882 15.7072 80.4759 15.7072 80.6821V83.9846C15.7072 84.2129 15.6593 84.4154 15.5636 84.5921C15.4752 84.7615 15.3611 84.9198 15.2212 85.0671C14.3523 85.8182 13.4723 86.352 12.5814 86.6686C11.6904 86.9779 10.7663 87.1325 9.809 87.1325C9.16837 87.1252 8.54247 87.0331 7.9313 86.8564C7.3275 86.6797 6.75682 86.433 6.21929 86.1164C5.68912 85.7997 5.20312 85.4205 4.76131 84.9787C4.3195 84.5369 3.9366 84.0472 3.61261 83.5097C3.29598 82.9648 3.0493 82.3831 2.87258 81.7645C2.69585 81.1386 2.60749 80.487 2.60749 79.8095C2.60749 79.1395 2.69217 78.4915 2.86153 77.8656C3.03089 77.2397 3.2702 76.6543 3.57947 76.1094C3.8961 75.5571 4.27164 75.0564 4.70609 74.6072C5.1479 74.158 5.63757 73.7715 6.17511 73.4475C6.72001 73.1235 7.30172 72.8731 7.92026 72.6964C8.54616 72.5123 9.19783 72.4203 9.87527 72.4203C10.9209 72.4203 11.8745 72.6043 12.736 72.9725C13.6049 73.3333 14.4075 73.8782 15.1439 74.6072C15.2911 74.7545 15.3979 74.9165 15.4642 75.0932C15.5378 75.2626 15.5746 75.4393 15.5746 75.6234C15.5746 75.8148 15.5341 75.9989 15.4531 76.1756C15.3721 76.3524 15.2617 76.507 15.1218 76.6395C14.9892 76.7721 14.8309 76.8789 14.6468 76.9599C14.4627 77.0409 14.2713 77.0814 14.0725 77.0814C13.8884 77.0814 13.7117 77.0482 13.5423 76.982C13.3729 76.9157 13.2183 76.8126 13.0784 76.6727C12.6292 76.2309 12.1322 75.9069 11.5873 75.7007C11.0497 75.4945 10.4901 75.3914 9.90841 75.3914C9.31932 75.3914 8.7597 75.5056 8.22953 75.7338C7.70672 75.9547 7.2465 76.264 6.84887 76.6616C6.45124 77.0519 6.13461 77.5158 5.89898 78.0533C5.67071 78.5909 5.55657 79.1689 5.55657 79.7874C5.55657 80.3839 5.66703 80.9509 5.88793 81.4884C6.1162 82.0186 6.42547 82.4862 6.81573 82.8912C7.21336 83.2888 7.68094 83.6054 8.21848 83.8411C8.75602 84.0767 9.34142 84.1945 9.97468 84.1945C10.4754 84.1945 10.954 84.1319 11.4106 84.0067C11.8671 83.8816 12.3126 83.6533 12.747 83.3219V82.1511H11.5541C11.348 82.1511 11.1565 82.1143 10.9798 82.0407C10.8031 81.9597 10.6484 81.8529 10.5159 81.7204C10.3907 81.5878 10.2913 81.4332 10.2177 81.2565C10.144 81.0724 10.1072 80.8809 10.1072 80.6821C10.1072 80.4833 10.144 80.2955 10.2177 80.1188C10.2913 79.9421 10.3907 79.7838 10.5159 79.6439C10.6484 79.504 10.8031 79.3972 10.9798 79.3235C11.1565 79.2425 11.348 79.202 11.5541 79.202L14.2161 79.2352ZM19.8602 81.7425C19.8602 82.0812 19.9228 82.3978 20.048 82.6923C20.1805 82.9869 20.3572 83.2446 20.5781 83.4655C20.8064 83.6864 21.0678 83.8595 21.3623 83.9846C21.6569 84.1098 21.9698 84.1724 22.3012 84.1724C22.6399 84.1724 22.9565 84.1098 23.2511 83.9846C23.553 83.8595 23.8144 83.6864 24.0353 83.4655C24.2562 83.2446 24.4292 82.9869 24.5544 82.6923C24.687 82.3978 24.7532 82.0812 24.7532 81.7425C24.7532 81.4037 24.687 81.0871 24.5544 80.7926C24.4292 80.498 24.2562 80.2403 24.0353 80.0194C23.8144 79.7985 23.553 79.6254 23.2511 79.5003C22.9565 79.3751 22.6399 79.3125 22.3012 79.3125C21.9698 79.3125 21.6569 79.3751 21.3623 79.5003C21.0678 79.6254 20.8064 79.7985 20.5781 80.0194C20.3572 80.2403 20.1805 80.498 20.048 80.7926C19.9228 81.0871 19.8602 81.4037 19.8602 81.7425ZM16.9111 81.7425C16.9111 80.9987 17.051 80.2992 17.3308 79.6439C17.618 78.9885 18.0046 78.4178 18.4906 77.9318C18.9839 77.4385 19.5546 77.0519 20.2026 76.7721C20.8579 76.4849 21.5575 76.3413 22.3012 76.3413C23.0449 76.3413 23.7444 76.4849 24.3998 76.7721C25.0551 77.0519 25.6258 77.4385 26.1118 77.9318C26.5978 78.4178 26.9807 78.9885 27.2605 79.6439C27.5477 80.2992 27.6913 80.9987 27.6913 81.7425C27.6913 82.4862 27.5477 83.1857 27.2605 83.8411C26.9807 84.489 26.5978 85.056 26.1118 85.542C25.6258 86.028 25.0551 86.4146 24.3998 86.7018C23.7444 86.9816 23.0449 87.1215 22.3012 87.1215C21.5575 87.1215 20.8579 86.9816 20.2026 86.7018C19.5546 86.4146 18.9839 86.028 18.4906 85.542C18.0046 85.056 17.618 84.489 17.3308 83.8411C17.051 83.1857 16.9111 82.4862 16.9111 81.7425ZM31.6123 81.7425C31.6123 82.0812 31.6749 82.3978 31.8001 82.6923C31.9327 82.9869 32.1094 83.2446 32.3303 83.4655C32.5585 83.6864 32.82 83.8595 33.1145 83.9846C33.409 84.1098 33.722 84.1724 34.0533 84.1724C34.3921 84.1724 34.7087 84.1098 35.0032 83.9846C35.3051 83.8595 35.5665 83.6864 35.7874 83.4655C36.0084 83.2446 36.1814 82.9869 36.3066 82.6923C36.4391 82.3978 36.5054 82.0812 36.5054 81.7425C36.5054 81.4037 36.4391 81.0871 36.3066 80.7926C36.1814 80.498 36.0084 80.2403 35.7874 80.0194C35.5665 79.7985 35.3051 79.6254 35.0032 79.5003C34.7087 79.3751 34.3921 79.3125 34.0533 79.3125C33.722 79.3125 33.409 79.3751 33.1145 79.5003C32.82 79.6254 32.5585 79.7985 32.3303 80.0194C32.1094 80.2403 31.9327 80.498 31.8001 80.7926C31.6749 81.0871 31.6123 81.4037 31.6123 81.7425ZM28.6633 81.7425C28.6633 80.9987 28.8032 80.2992 29.083 79.6439C29.3702 78.9885 29.7567 78.4178 30.2427 77.9318C30.7361 77.4385 31.3068 77.0519 31.9547 76.7721C32.6101 76.4849 33.3096 76.3413 34.0533 76.3413C34.7971 76.3413 35.4966 76.4849 36.1519 76.7721C36.8073 77.0519 37.378 77.4385 37.864 77.9318C38.3499 78.4178 38.7328 78.9885 39.0127 79.6439C39.2998 80.2992 39.4434 80.9987 39.4434 81.7425C39.4434 82.4862 39.2998 83.1857 39.0127 83.8411C38.7328 84.489 38.3499 85.056 37.864 85.542C37.378 86.028 36.8073 86.4146 36.1519 86.7018C35.4966 86.9816 34.7971 87.1215 34.0533 87.1215C33.3096 87.1215 32.6101 86.9816 31.9547 86.7018C31.3068 86.4146 30.7361 86.028 30.2427 85.542C29.7567 85.056 29.3702 84.489 29.083 83.8411C28.8032 83.1857 28.6633 82.4862 28.6633 81.7425ZM45.7945 84.062C45.8607 84.062 45.9307 84.0546 46.0043 84.0399C46.0779 84.0251 46.1442 83.9994 46.2031 83.9626C46.262 83.9257 46.3099 83.8742 46.3467 83.8079C46.3909 83.7416 46.413 83.657 46.413 83.5539C46.413 83.4434 46.3909 83.3587 46.3467 83.2998C46.3099 83.2336 46.2584 83.1857 46.1921 83.1563C46.1258 83.1268 46.0522 83.1084 45.9712 83.101C45.8902 83.0937 45.8129 83.09 45.7392 83.09H43.983C43.5044 83.09 43.0626 82.9943 42.6576 82.8028C42.2526 82.6114 41.9028 82.3536 41.6083 82.0296C41.3211 81.7056 41.0929 81.3338 40.9235 80.9141C40.7615 80.4943 40.6805 80.0562 40.6805 79.5997C40.6805 79.1579 40.7652 78.7381 40.9345 78.3405C41.1113 77.9429 41.3469 77.5968 41.6414 77.3023C41.9433 77.0077 42.2931 76.7758 42.6907 76.6064C43.0957 76.4297 43.5265 76.3413 43.983 76.3413H47.4071C47.6059 76.3413 47.7936 76.3745 47.9704 76.4407C48.1471 76.4996 48.3017 76.5917 48.4343 76.7169C48.5668 76.8347 48.6699 76.982 48.7435 77.1587C48.8245 77.3354 48.865 77.5379 48.865 77.7662C48.865 77.9797 48.8282 78.1785 48.7546 78.3626C48.6809 78.5467 48.5815 78.7087 48.4564 78.8486C48.3385 78.9811 48.195 79.0879 48.0256 79.1689C47.8562 79.2425 47.6795 79.2794 47.4954 79.2794H47.4071H44.0383C43.9352 79.2794 43.8394 79.3199 43.7511 79.4009C43.6627 79.4745 43.6185 79.5776 43.6185 79.7101C43.6185 79.8795 43.6627 79.9936 43.7511 80.0525C43.8468 80.1114 43.9352 80.1409 44.0162 80.1409H46.0264C46.5124 80.1409 46.9579 80.2366 47.3629 80.4281C47.7752 80.6195 48.1287 80.8772 48.4232 81.2012C48.7178 81.5179 48.946 81.886 49.108 82.3058C49.27 82.7255 49.351 83.1636 49.351 83.6202C49.351 84.0767 49.27 84.5075 49.108 84.9124C48.9534 85.3101 48.7325 85.6635 48.4453 85.9728C48.1655 86.2747 47.8268 86.5177 47.4292 86.7018C47.0315 86.8859 46.5971 86.9853 46.1258 87H41.8403C41.6414 87 41.461 86.9632 41.299 86.8895C41.137 86.8159 40.9934 86.7128 40.8683 86.5803C40.7505 86.4477 40.6584 86.2894 40.5921 86.1053C40.5259 85.9212 40.4927 85.7188 40.4927 85.4978C40.4927 85.056 40.6179 84.7063 40.8683 84.4485C41.1186 84.1908 41.4426 84.062 41.8403 84.062H45.7945ZM53.5261 83.0568C53.7618 83.4397 54.0673 83.7416 54.4429 83.9626C54.8184 84.1835 55.2308 84.2939 55.68 84.2939C55.9671 84.2939 56.1954 84.2718 56.3648 84.2276C56.5415 84.1761 56.6998 84.1098 56.8397 84.0288C56.987 83.9331 57.1306 83.8668 57.2705 83.83C57.4177 83.7858 57.5576 83.7637 57.6902 83.7637C57.8964 83.7637 58.0841 83.8042 58.2535 83.8852C58.4302 83.9662 58.5812 84.0767 58.7064 84.2166C58.8389 84.3565 58.942 84.5185 59.0156 84.7026C59.0893 84.8867 59.1261 85.0781 59.1261 85.2769C59.1261 85.5273 59.0561 85.7666 58.9162 85.9949C58.7763 86.2158 58.5628 86.4109 58.2756 86.5803C57.9884 86.7423 57.6276 86.8748 57.1932 86.9779C56.7661 87.0736 56.2617 87.1215 55.68 87.1215C54.9362 87.1215 54.233 86.9816 53.5703 86.7018C52.915 86.4146 52.3406 86.028 51.8473 85.542C51.3539 85.056 50.9636 84.489 50.6765 83.8411C50.3893 83.1857 50.2457 82.4862 50.2457 81.7425C50.2457 80.9914 50.3893 80.2882 50.6765 79.6328C50.9636 78.9775 51.3539 78.4068 51.8473 77.9208C52.3406 77.4274 52.915 77.0409 53.5703 76.761C54.233 76.4812 54.9362 76.3413 55.68 76.3413C56.4163 76.3413 57.1085 76.4812 57.7565 76.761C58.4118 77.0335 58.9825 77.4127 59.4685 77.8987C59.9618 78.3773 60.3521 78.9406 60.6393 79.5886C60.9338 80.2366 61.0885 80.9288 61.1032 81.6651C61.1032 82.0849 60.967 82.4236 60.6945 82.6813C60.4294 82.9317 60.0833 83.0568 59.6562 83.0568H53.5261ZM58.0878 80.6048C57.8816 80.163 57.5724 79.8095 57.16 79.5445C56.7477 79.2794 56.2727 79.1468 55.7352 79.1468C55.1829 79.1468 54.7117 79.2867 54.3214 79.5665C53.9311 79.839 53.6366 80.1851 53.4378 80.6048H58.0878Z" fill="#2F3032"/>
<defs>
<clipPath id="clip0_10387_20110">
<rect width="68" height="68" rx="14" fill="white"/>
</clipPath>
</defs>
</svg>
