<svg width="134" height="141" viewBox="0 0 134 141" fill="none" xmlns="http://www.w3.org/2000/svg">
<g clip-path="url(#clip0_10934_8318)">
<path d="M53.6173 73.7227C57.3492 70.7371 63.7917 71.0309 68.3061 71.4114C71.3237 71.6788 74.2922 72.1418 77.2279 72.7352C80.1635 73.3286 83.3679 73.8185 86.1152 75.0228C88.074 75.9169 91.7055 78.4293 90.0167 80.8717C89.8453 81.1396 89.5353 81.545 88.7695 82.1093C91.9796 82.7699 96.9193 83.2438 97.9121 86.9652C99.2608 91.9385 91.1413 96.2444 87.6396 98.0394C80.7176 101.581 72.2699 103.195 64.7995 100.236C57.7679 97.4602 52.5412 91.2303 51.0509 83.7879C50.656 81.9127 50.5298 79.9341 50.9403 78.0263C51.3995 76.2006 52.3135 74.7717 53.6173 73.7227Z" fill="#E2BA2A"/>
<path d="M88.7695 82.1093C89.5353 81.545 89.8453 81.1396 90.0167 80.8717C91.7055 78.4293 88.074 75.9169 86.1152 75.0228C83.3679 73.8185 80.1635 73.3286 77.2279 72.7352C74.2922 72.1418 71.3237 71.6788 68.3061 71.4114C63.7917 71.0309 57.3492 70.7371 53.6173 73.7227C52.3135 74.7717 51.3995 76.2006 50.9403 78.0263C50.5298 79.9341 50.656 81.9127 51.0509 83.7879C52.5412 91.2303 57.7679 97.4602 64.7995 100.236C72.2699 103.195 80.7176 101.581 87.6396 98.0394C91.1413 96.2444 99.2608 91.9385 97.9121 86.9652C96.9193 83.2438 91.9796 82.7699 88.7695 82.1093ZM88.7695 82.1093C85.468 84.1187 76.9288 88.118 69.1842 88.0399" stroke="#2E3032" stroke-width="2.57339" stroke-linecap="round"/>
<path d="M67.1517 2.43598L57.2242 17.0126C56.8842 17.5601 57.2922 18.1076 57.8362 17.7654C60.964 15.9861 65.7918 11.8115 68.3756 9.96381C71.2315 7.91076 69.9395 4.62589 68.1036 2.36754C67.8996 2.02537 67.4237 2.0938 67.1517 2.43598Z" fill="#E2BA2A" stroke="#2E3032" stroke-width="2.57339" stroke-linecap="round"/>
<path d="M7.78386 94.9186C9.32244 97.6467 15.6187 103.085 18.2166 104.78C20.3088 106.161 23.2024 107.798 25.8359 107.13C26.7414 106.892 27.5486 106.382 28.3324 105.831C32.7398 102.583 35.8854 97.4851 36.4114 92.0127C36.796 88.0365 35.4425 84.2778 32.6589 81.3801C30.5259 79.1507 23.6545 73.9538 20.5343 73.3707C17.4699 72.7905 26.7934 87.0925 22.9911 84.3263C18.8663 81.4767 14.8771 77.8969 9.90733 77.4308C6.50162 77.1177 9.15188 81.2347 9.86945 82.41C11.5144 85.1326 13.5331 87.6445 15.7724 89.8684C17.0502 91.1636 18.4759 92.4299 19.4681 93.9952C19.6546 94.3258 19.8462 94.7626 19.5839 95.074C19.4229 95.2737 19.1039 95.2902 18.8263 95.2833C17.1143 95.1592 11.8183 91.0088 10.2156 90.4961C9.09005 90.1502 7.65054 89.9269 7.01675 90.9381C6.58039 91.6201 6.81569 92.5225 7.12894 93.2721C7.24259 93.8618 7.50412 94.4225 7.78386 94.9186Z" fill="#E2BA2A" stroke="#2E3032" stroke-width="2.57339" stroke-linecap="round"/>
<path d="M39.9788 132.379C40.2695 131.991 40.5117 131.555 40.7055 131.118C42.0137 128.45 43.1281 125.685 44.0003 122.871C44.1941 122.241 44.4363 121.416 45.0178 121.125C45.7445 120.737 46.8589 120.786 47.5857 120.931C47.7795 120.98 48.0218 121.028 48.1187 121.222C48.1671 121.368 48.1671 121.513 48.1671 121.659C47.7795 124.521 47.3919 127.383 47.0527 130.293C47.0043 130.681 46.9558 131.069 47.0527 131.409C47.2465 132.088 47.9249 132.428 48.5547 132.767C51.0742 134.029 53.4968 135.484 55.5318 137.424C55.5803 137.473 55.6287 137.521 55.6287 137.57C55.6772 137.618 55.6772 137.715 55.6287 137.764C55.6287 137.909 55.5803 138.055 55.5318 138.2C55.4834 138.346 55.4349 138.491 55.338 138.588C54.9504 138.976 54.0298 139.122 53.4968 139.219C52.7701 139.364 52.0433 139.413 51.268 139.413C49.766 139.413 48.3125 139.122 46.8589 138.782C44.1456 138.103 41.4323 137.133 38.6706 136.939C36.8294 136.794 34.9882 137.036 33.1471 137.182C32.9533 137.182 32.711 137.182 32.6625 136.988C32.6141 136.891 32.711 136.745 32.8079 136.648C33.3409 136.066 34.0676 135.678 34.7944 135.29C35.8119 134.805 36.8294 134.271 37.8469 133.834C38.4283 133.543 39.0582 133.301 39.5427 132.816C39.7365 132.573 39.8819 132.476 39.9788 132.379Z" fill="#F5BD1A"/>
<path d="M46.8589 138.782C48.3125 139.122 49.766 139.413 51.268 139.413C52.0433 139.413 52.7701 139.364 53.4968 139.219C54.0298 139.122 54.9504 138.976 55.338 138.588C55.4349 138.491 55.4834 138.346 55.5318 138.2C55.5803 138.055 55.6287 137.909 55.6287 137.764C55.6772 137.715 55.6772 137.618 55.6287 137.57C55.6287 137.521 55.5803 137.473 55.5318 137.424C53.4968 135.484 51.0742 134.029 48.5547 132.767C47.9249 132.428 47.2465 132.088 47.0527 131.409C46.9558 131.069 47.0043 130.681 47.0527 130.293C47.3919 127.383 47.7795 124.521 48.1671 121.659C48.1671 121.513 48.1671 121.368 48.1187 121.222C48.0218 121.028 47.7795 120.98 47.5857 120.931C46.8589 120.786 45.7445 120.737 45.0178 121.125C44.4363 121.416 44.1941 122.241 44.0003 122.871C43.1281 125.685 42.0137 128.45 40.7055 131.118C40.5117 131.555 40.2695 131.991 39.9788 132.379C39.8819 132.476 39.7365 132.573 39.5427 132.816C39.0582 133.301 38.4283 133.543 37.8469 133.834C36.8294 134.271 35.8119 134.805 34.7944 135.29C34.0676 135.678 33.3409 136.066 32.8079 136.648C32.711 136.745 32.6141 136.891 32.6625 136.988C32.711 137.182 32.9533 137.182 33.1471 137.182C34.9882 137.036 36.8294 136.794 38.6706 136.939C41.4323 137.133 44.1456 138.103 46.8589 138.782ZM46.8589 138.782L45.0178 135.29" stroke="#2E3032" stroke-width="2.57339" stroke-linecap="round"/>
<path d="M60.907 132.677C61.5939 129.379 62.428 126.368 62.7223 122.975C62.7714 122.64 62.7714 122.258 62.9186 121.971C63.262 121.254 64.2923 120.824 65.0773 120.824C66.3039 120.824 66.2058 121.015 66.4511 122.115C67.0398 124.504 66.9417 127.276 67.0889 129.762C67.138 130.383 67.187 131.052 67.6777 131.434C67.923 131.673 68.3155 131.721 68.6589 131.817C71.3083 132.438 73.9086 133.346 76.3617 134.493C78.5696 135.497 76.0674 136.787 74.8899 137.265C73.0745 137.982 71.0139 138.125 69.0514 138.078C67.5305 138.03 66.0586 137.934 64.5376 137.839C63.0658 137.743 61.5448 137.886 60.122 138.125C58.5029 138.412 56.8839 138.842 55.3139 139.32C54.9704 139.416 54.3326 139.559 54.2345 139.033C54.1364 138.555 54.9214 138.173 55.2648 137.934C55.7554 137.552 56.2951 137.122 56.7858 136.739C57.8161 135.927 58.8464 135.114 59.8767 134.35C60.4716 133.867 60.7544 133.42 60.907 132.677Z" fill="#F5BD1A"/>
<path d="M69.0514 138.078C71.0139 138.125 73.0745 137.982 74.8899 137.265C76.0674 136.787 78.5696 135.497 76.3617 134.493C73.9086 133.346 71.3083 132.438 68.6589 131.817C68.3155 131.721 67.923 131.673 67.6777 131.434C67.187 131.052 67.138 130.383 67.0889 129.762C66.9417 127.276 67.0398 124.504 66.4511 122.115C66.2058 121.015 66.3039 120.824 65.0773 120.824C64.2923 120.824 63.262 121.254 62.9186 121.971C62.7714 122.258 62.7714 122.64 62.7223 122.975C62.428 126.368 61.5939 129.379 60.907 132.677C60.7544 133.42 60.4716 133.867 59.8767 134.35C58.8464 135.114 57.8161 135.927 56.7858 136.739C56.2951 137.122 55.7554 137.552 55.2648 137.934C54.9214 138.173 54.1364 138.555 54.2345 139.033C54.3326 139.559 54.9704 139.416 55.3139 139.32C56.8839 138.842 58.5029 138.412 60.122 138.125C61.5448 137.886 63.0658 137.743 64.5376 137.839C66.0586 137.934 67.5305 138.03 69.0514 138.078ZM69.0514 138.078L66.2057 133.872" stroke="#2E3032" stroke-width="2.57339" stroke-linecap="round"/>
<path d="M55.6095 65.5929C56.0428 64.8845 56.3798 64.0816 56.4761 63.2314C56.6205 62.0979 56.4279 60.9643 56.1872 59.878C55.2725 55.9579 54.069 50.9514 50.7473 48.3065C48.5809 46.5118 45.6444 45.4255 44.152 42.9695C43.0929 41.2219 42.9966 39.1438 43.0929 37.1601C43.1892 35.1764 42.9485 33.1455 43.2373 31.1618C44.0557 25.3997 48.3884 20.9128 53.2988 17.9845C58.6424 14.82 65.8154 12.2224 71.9774 14.395C76.1175 15.8591 79.68 19.6848 81.1723 23.6994C83.2424 29.1781 81.5093 36.2627 80.5465 41.8359C80.1614 43.9613 80.5947 47.3619 78.7653 48.9205C78.0913 49.4873 77.2729 49.8651 76.4545 50.1958C75.1066 50.7625 73.7586 51.2821 72.3625 51.8488C68.7038 53.3602 67.7892 55.3911 68.078 59.264C68.3187 63.2314 70.822 65.7819 73.2291 68.8518C77.4173 74.1889 81.3168 79.8566 83.6275 86.1855C85.4087 91.0975 86.4678 96.6707 85.505 101.866C84.5903 106.872 81.1724 111.029 77.2248 114.146C70.1962 119.719 61.7716 123.45 52.6248 123.687C28.9224 124.206 16.5041 101.866 33.3684 80.8012C34.9571 80.3289 36.4495 79.7149 37.9418 78.9592C43.6225 76.0781 48.5809 72.2997 53.3469 68.1434C54.2134 67.4349 55.0318 66.5848 55.6095 65.5929Z" fill="#FFE60A"/>
<path d="M72.3625 51.8488C73.7586 51.2821 75.1066 50.7625 76.4545 50.1958C77.2729 49.8651 78.0913 49.4873 78.7653 48.9205C80.5946 47.3619 80.1614 43.9613 80.5465 41.8359C81.5093 36.2627 83.2424 29.1781 81.1723 23.6994C79.68 19.6848 76.1175 15.8591 71.9774 14.395C65.8154 12.2224 58.6424 14.82 53.2988 17.9845C48.3884 20.9128 44.0557 25.3997 43.2373 31.1618C42.9485 33.1455 43.1892 35.1764 43.0929 37.1601C42.9966 39.1438 43.0929 41.2219 44.152 42.9695C45.6444 45.4255 48.5809 46.5118 50.7473 48.3065C54.069 50.9514 55.2725 55.9579 56.1872 59.878C56.4279 60.9643 56.6205 62.0979 56.4761 63.2314C56.3798 64.0816 56.0428 64.8845 55.6095 65.5929C55.0318 66.5848 54.2134 67.4349 53.3469 68.1434C48.5809 72.2997 43.6225 76.0781 37.9418 78.9592C36.4495 79.7149 34.9571 80.3289 33.3684 80.8012C16.5041 101.866 28.9224 124.206 52.6248 123.687C61.7716 123.45 70.1962 119.719 77.2248 114.146C81.1724 111.029 84.5903 106.872 85.505 101.866C86.4678 96.6707 85.4087 91.0975 83.6275 86.1855C81.3168 79.8566 77.4173 74.1889 73.2291 68.8518C70.822 65.7819 68.3187 63.2314 68.078 59.264C67.7892 55.3911 68.7038 53.3602 72.3625 51.8488ZM72.3625 51.8488C71.2392 52.3841 68.0298 53.4075 64.1785 53.2186" stroke="#2E3032" stroke-width="2.57339" stroke-linecap="round"/>
<path d="M53.5527 16.0701C56.2422 14.4518 60.9366 12.9287 62.5992 12.5479C67.2447 11.4056 72.6726 12.7859 76.438 16.0701C77.6605 17.1648 78.8341 18.4499 79.7143 19.7826C80.7412 21.2581 81.8659 23.3524 81.4747 25.2087C81.2302 26.351 80.6434 27.303 79.861 28.1597C77.905 30.1588 75.1176 31.2535 72.5259 32.1579C69.8853 33.0146 67.098 33.681 64.3107 34.0618C61.3278 34.4901 58.296 34.8709 55.2642 35.0137C54.4328 35.0613 53.5526 35.0613 52.7702 35.3469C50.8142 35.9656 50.3741 37.9647 50.3741 39.7734C50.3741 41.4393 50.912 42.9148 51.0587 44.5331C51.2054 46.0086 49.9829 46.7226 48.5648 46.3894C47.6846 46.1038 46.9022 45.6278 46.2176 45.0091C42.7457 42.5341 42.7946 39.583 42.7457 36.394C42.6479 33.6334 42.7457 30.4444 43.7237 27.8265C45.9242 22.0197 50.8632 17.6883 53.5527 16.0701Z" fill="#E2BA2A" stroke="#2E3032" stroke-width="2.57339" stroke-linecap="round"/>
<path d="M91.3586 48.4703C90.66 48.8225 88.9539 49.0086 88.5452 49.097C79.5625 50.6798 68.4913 47.2967 63.7138 38.6158C63.3028 37.821 62.0761 35.6974 63.9762 36.4261C68.9175 38.4351 73.8587 40.4441 78.8479 42.4611C81.3467 43.4443 83.7891 44.4701 86.2879 45.4533C87.5331 45.9702 88.7867 46.4365 89.9839 46.9454C90.399 47.1177 91.8048 47.5572 91.6485 48.2065C91.6318 48.3076 91.5192 48.3929 91.3586 48.4703Z" fill="#F5BD1A" stroke="#2E3032" stroke-width="2.57339" stroke-linecap="round"/>
<path d="M56.3769 106.635C55.8381 108.172 55.0837 111.657 56.3769 113.297C57.1798 114.315 58.6177 113.938 59.9058 113.218C61.3052 112.437 63.0175 112.067 63.2441 113.653C63.2828 113.924 63.3047 114.231 63.3047 114.578C63.3047 117.397 70.6944 108.172 70.0016 105.098" stroke="#2E3032" stroke-width="2.57339" stroke-linecap="round"/>
<path d="M73.2184 32.6996C72.4864 33.3505 71.7892 33.9395 70.9644 34.3952C68.3506 35.7939 65.3314 35.8259 62.5438 36.6698C62.0909 36.8258 64.7257 38.3383 64.7838 38.3792C65.9679 38.8685 67.1753 39.2445 68.4175 39.5587C70.7976 40.1567 73.2708 40.5176 75.6976 40.673C79.4018 40.8647 83.0714 40.6862 86.7527 40.3431C90.0973 40.0218 93.7668 40.0593 96.9147 38.6483C98.2854 38.0156 99.5867 37.0745 100.459 35.7442C101.075 34.7955 102.365 33.1549 102.54 31.9815C102.703 30.9728 102.135 29.9668 101.357 29.3319C99.164 27.612 96.7479 28.5882 94.541 29.4092C91.7068 30.4795 88.7102 31.2624 85.6214 31.2021C82.73 31.1514 79.5495 29.3837 76.7271 30.2894C75.403 30.6956 74.3107 31.6976 73.2184 32.6996Z" fill="#F5BD1A" stroke="#2E3032" stroke-width="2.04" stroke-linecap="round"/>
<path d="M93.7677 39.5856C97.0045 38.7139 100.091 36.735 101.164 33.5457C102.011 31.1204 99.3577 29.7213 97.1488 30.0761C93.9725 30.5538 91.4034 32.844 88.7966 34.5246C85.3887 36.7163 71.9683 41.5706 80.9503 40.9985C82.4692 40.8942 83.9408 40.8004 85.4597 40.6961C88.1457 40.4714 91.0991 40.3293 93.7677 39.5856Z" fill="#DA8C06" stroke="#2E3032" stroke-width="2.57339" stroke-linecap="round"/>
<path d="M77.1157 34.5059C77.6635 33.6529 79.032 33.3222 79.9168 33.5893" stroke="#2E3032" stroke-width="2.04" stroke-linecap="round"/>
<g opacity="0.8" clip-path="url(#clip1_10934_8318)" filter="url(#filter0_f_10934_8318)">
<path d="M87.1753 72.4993L85.3928 70.3808L99.9567 46.1873L103.966 50.9524L87.1753 72.4993Z" fill="url(#paint0_linear_10934_8318)"/>
<path d="M74.3718 73.0037L76.5298 71.0976L53.0322 41.8506L48.178 46.1379L74.3718 73.0037Z" fill="url(#paint1_linear_10934_8318)"/>
<path d="M81.6019 74.888L82.839 79.7151L122.105 72.4562L119.323 61.598L81.6019 74.888Z" fill="url(#paint2_linear_10934_8318)"/>
<path d="M73.5713 80.4485L74.4972 76.3774L24.0884 70.3701L22.0056 79.5278L73.5713 80.4485Z" fill="url(#paint3_linear_10934_8318)"/>
<path d="M83.5544 80.3225L84.0175 86.6807L129.218 96.4631L128.177 82.1611L83.5544 80.3225Z" fill="url(#paint4_linear_10934_8318)"/>
<path d="M80.2044 88.4817L77.6236 84.8507L46.2154 102.683L52.0205 110.851L80.2044 88.4817Z" fill="url(#paint5_linear_10934_8318)"/>
<path d="M86.5708 82.6536L82.3069 82.9286L73.2362 109.635L82.8273 109.016L86.5708 82.6536Z" fill="url(#paint6_linear_10934_8318)"/>
<path d="M83.2341 83.0476L86.1466 82.0718L109.306 105.425L102.753 107.621L83.2341 83.0476Z" fill="url(#paint7_linear_10934_8318)"/>
<path d="M77.6329 77.5945L73.8238 79.7793L31.606 58.2948L40.1765 53.3789L77.6329 77.5945Z" fill="url(#paint8_linear_10934_8318)"/>
<path d="M77.9179 81.7781L78.4319 84.8448L39.6234 93.3098L38.4668 86.4102L77.9179 81.7781Z" fill="url(#paint9_linear_10934_8318)"/>
<path d="M84.8203 81.8734H79.4338L76.0676 32.4492H88.1865L84.8203 81.8734Z" fill="url(#paint10_linear_10934_8318)"/>
</g>
<path d="M17.2794 49C17.2794 49 18.1631 50.9228 18.8326 51.6244C19.6842 52.5188 21.5641 53.2794 21.5641 53.2794C21.5641 53.2794 19.6306 54.2167 18.9772 54.8594C18.3184 55.5074 17.2794 57.5641 17.2794 57.5641C17.2794 57.5641 16.4117 55.6895 15.6512 54.8594C14.9013 54.0453 13 53.2794 13 53.2794C13 53.2794 14.8103 52.401 15.5762 51.6994C16.4439 50.9067 17.2794 49 17.2794 49Z" fill="url(#paint11_angular_10934_8318)"/>
<path d="M75.5043 101.344C84.8429 101.344 92.4034 93.7444 92.4034 84.3831C92.4034 78.3077 90.6056 72.103 87.6667 67.3803C84.757 62.7045 80.5074 59.1674 75.5043 59.1674C70.4963 59.1674 66.2473 62.7371 63.3408 67.4213C60.4038 72.1548 58.6051 78.3585 58.6051 84.3831C58.6051 93.7444 66.1657 101.344 75.5043 101.344Z" fill="#FFE60A" stroke="#2F3032" stroke-width="3.00116"/>
<path d="M90.9026 84.3837C90.9026 92.9219 84.0083 99.8437 75.504 99.8437C68.6415 99.8437 62.8273 95.3372 60.8376 89.1094C63.3162 93.1479 67.7615 95.8394 72.8323 95.8394C80.6088 95.8394 86.9143 89.5089 86.9143 81.7012C86.9143 72.6426 82.3188 63.246 76.1362 60.6914C84.3471 61.2713 90.9026 73.0672 90.9026 84.3837Z" fill="#E2BA2A"/>
<path opacity="0.7" d="M70.8521 69.8694C68.551 72.9582 67.0411 75.7274 65.6859 74.7092C64.3307 73.691 65.097 70.3625 67.3981 67.2737C69.697 64.1872 72.6621 62.5092 74.0173 63.5251C75.3725 64.5433 73.1533 66.7806 70.8521 69.8694Z" fill="#FFFCF6"/>
<path opacity="0.7" d="M64.8444 79.7908C64.3578 81.4528 64.1531 82.8568 63.4232 82.6422C62.6933 82.4276 62.209 80.7519 62.6956 79.09C63.1822 77.428 64.4555 76.4075 65.1855 76.6221C65.9154 76.8367 65.331 78.1266 64.8444 79.7908Z" fill="#FFFCF6"/>
<path d="M74.3625 92.7101C74.3625 93.1484 73.8168 93.5046 73.1415 93.5046C72.4684 93.5046 71.9204 93.1484 71.9204 92.7101C71.9204 92.2718 72.382 92.1074 73.0551 92.1074C73.7281 92.1074 74.3625 92.2695 74.3625 92.7101Z" fill="#E2BA2A"/>
<path d="M79.321 91.5236C79.5734 91.882 79.3346 92.4892 78.7843 92.8819C78.2341 93.2746 77.5837 93.302 77.3313 92.9436C77.0789 92.5851 77.3609 92.1856 77.9089 91.793C78.4569 91.4003 79.0663 91.1674 79.321 91.5236Z" fill="#E2BA2A"/>
<path d="M76.9423 90.7767C77.0287 91.1831 76.5944 91.6191 75.9714 91.7538C75.3484 91.8885 74.7731 91.6671 74.6867 91.2607C74.6003 90.8543 74.9936 90.6123 75.6167 90.4799C76.2397 90.3475 76.8559 90.3726 76.9423 90.7767Z" fill="#E2BA2A"/>
<path d="M84.2794 66C84.2794 66 85.1631 67.9228 85.8326 68.6244C86.6842 69.5188 88.5641 70.2794 88.5641 70.2794C88.5641 70.2794 86.6306 71.2167 85.9772 71.8594C85.3184 72.5074 84.2794 74.5641 84.2794 74.5641C84.2794 74.5641 83.4117 72.6895 82.6512 71.8594C81.9013 71.0453 80 70.2794 80 70.2794C80 70.2794 81.8103 69.401 82.5762 68.6994C83.4439 67.9067 84.2794 66 84.2794 66Z" fill="url(#paint12_angular_10934_8318)"/>
<path d="M29.036 79.3145C32.8718 76.2458 39.4937 76.5478 44.1338 76.9389C47.2354 77.2137 50.2865 77.6896 53.3039 78.2996C56.3213 78.9095 59.6149 79.413 62.4387 80.6509C64.4521 81.5698 68.1847 84.1522 66.4488 86.6626C66.2727 86.938 65.954 87.3547 65.1669 87.9346C68.4664 88.6137 73.5437 89.1008 74.564 92.9257C75.9503 98.0375 67.6048 102.463 64.0056 104.308C56.8908 107.949 48.208 109.608 40.5295 106.566C33.3022 103.713 27.9299 97.3096 26.3982 89.66C25.9923 87.7326 25.8626 85.6989 26.2845 83.7379C26.7565 81.8614 27.696 80.3928 29.036 79.3145Z" fill="#E2BA2A"/>
<path d="M65.1669 87.9346C65.954 87.3547 66.2727 86.938 66.4488 86.6626C68.1847 84.1522 64.4521 81.5698 62.4387 80.6509C59.6149 79.413 56.3213 78.9095 53.3039 78.2996C50.2865 77.6896 47.2354 77.2137 44.1338 76.9389C39.4937 76.5478 32.8718 76.2458 29.036 79.3145C27.696 80.3928 26.7565 81.8614 26.2845 83.7379C25.8626 85.6989 25.9923 87.7326 26.3982 89.66C27.9299 97.3096 33.3022 103.713 40.5295 106.566C48.208 109.608 56.8908 107.949 64.0056 104.308C67.6048 102.463 75.9503 98.0375 74.564 92.9257C73.5437 89.1008 68.4664 88.6137 65.1669 87.9346ZM65.1669 87.9346C61.7735 90 52.9966 94.1106 45.0363 94.0303" stroke="#2E3032" stroke-width="2.57339" stroke-linecap="round"/>
<circle cx="68.116" cy="30.7012" r="1.836" fill="#2E3032"/>
<ellipse cx="80.9679" cy="27.846" rx="1.632" ry="1.428" fill="#2E3032"/>
<path d="M70.7731 20.1302L56.1305 19.4722C55.1766 19.4293 54.4091 20.2473 54.5127 21.1966L55.7365 32.414C55.8349 33.3161 56.6807 33.9433 57.5725 33.7754L71.5854 31.1379C72.3648 30.9912 72.9094 30.2821 72.8501 29.4912L72.2559 21.5693C72.197 20.7835 71.5603 20.1656 70.7731 20.1302Z" fill="#2F3032" stroke="#2F3032" stroke-width="2.67628" stroke-linecap="round"/>
<path d="M38.1395 37.6259L41.9823 31.834C42.145 31.5887 42.374 31.3946 42.6426 31.2741L55.61 25.4586" stroke="#2F3032" stroke-width="2.67628" stroke-linecap="round"/>
<path d="M78.5901 20.1063L87.8429 17.493C88.7624 17.2333 89.6184 17.8614 89.6518 18.8205L89.9432 27.1863C89.9759 28.1227 89.2078 28.9531 88.2974 28.9657L79.1322 29.093C78.3722 29.1036 77.7702 28.5331 77.72 27.7548L77.3409 21.8749C77.2897 21.082 77.8266 20.322 78.5901 20.1063Z" fill="#2F3032" stroke="#2F3032" stroke-width="2.67628" stroke-linecap="round"/>
<path d="M73.1792 25.4082L78.9483 24.5176" stroke="#2F3032" stroke-width="2.67628" stroke-linecap="round"/>
<path d="M67.6285 23.4062L65.4097 29.1956" stroke="white" stroke-width="2.67628" stroke-linecap="round"/>
<path d="M62.1345 20.6407L57.8081 31.8001" stroke="white" stroke-width="2.67628" stroke-linecap="round"/>
<path d="M87.8945 19.2927L85.6596 26.7045" stroke="white" stroke-width="2.67628" stroke-linecap="round"/>
<path d="M81.3853 23.4062L80.054 26.9689" stroke="white" stroke-width="2.67628" stroke-linecap="round"/>
<path d="M30.2794 120C30.2794 120 31.1631 121.923 31.8326 122.624C32.6842 123.519 34.5641 124.279 34.5641 124.279C34.5641 124.279 32.6306 125.217 31.9772 125.859C31.3184 126.507 30.2794 128.564 30.2794 128.564C30.2794 128.564 29.4117 126.69 28.6512 125.859C27.9013 125.045 26 124.279 26 124.279C26 124.279 27.8103 123.401 28.5762 122.699C29.4439 121.907 30.2794 120 30.2794 120Z" fill="url(#paint13_angular_10934_8318)"/>
<path d="M39.2794 83.6543C39.2794 83.6543 40.1631 85.5771 40.8326 86.2787C41.6842 87.1731 43.5641 87.9337 43.5641 87.9337C43.5641 87.9337 41.6306 88.871 40.9772 89.5137C40.3184 90.1617 39.2794 92.2184 39.2794 92.2184C39.2794 92.2184 38.4117 90.3438 37.6512 89.5137C36.9013 88.6996 35 87.9337 35 87.9337C35 87.9337 36.8103 87.0553 37.5762 86.3537C38.4439 85.561 39.2794 83.6543 39.2794 83.6543Z" fill="url(#paint14_angular_10934_8318)"/>
<path d="M89.2794 123C89.2794 123 90.1631 124.923 90.8326 125.624C91.6842 126.519 93.5641 127.279 93.5641 127.279C93.5641 127.279 91.6306 128.217 90.9772 128.859C90.3184 129.507 89.2794 131.564 89.2794 131.564C89.2794 131.564 88.4117 129.69 87.6512 128.859C86.9013 128.045 85 127.279 85 127.279C85 127.279 86.8103 126.401 87.5762 125.699C88.4439 124.907 89.2794 123 89.2794 123Z" fill="url(#paint15_angular_10934_8318)"/>
<path d="M125.279 69C125.279 69 126.163 70.9228 126.833 71.6244C127.684 72.5188 129.564 73.2794 129.564 73.2794C129.564 73.2794 127.631 74.2167 126.977 74.8594C126.318 75.5074 125.279 77.5641 125.279 77.5641C125.279 77.5641 124.412 75.6895 123.651 74.8594C122.901 74.0453 121 73.2794 121 73.2794C121 73.2794 122.81 72.401 123.576 71.6994C124.444 70.9067 125.279 69 125.279 69Z" fill="url(#paint16_angular_10934_8318)"/>
</g>
<defs>
<filter id="filter0_f_10934_8318" x="15.8571" y="28.5104" width="120.635" height="95.4206" filterUnits="userSpaceOnUse" color-interpolation-filters="sRGB">
<feFlood flood-opacity="0" result="BackgroundImageFix"/>
<feBlend mode="normal" in="SourceGraphic" in2="BackgroundImageFix" result="shape"/>
<feGaussianBlur stdDeviation="1.9694" result="effect1_foregroundBlur_10934_8318"/>
</filter>
<linearGradient id="paint0_linear_10934_8318" x1="91.3987" y1="64.7087" x2="98.8734" y2="55.1424" gradientUnits="userSpaceOnUse">
<stop stop-color="#FFE60C"/>
<stop offset="1" stop-color="white" stop-opacity="0.1"/>
</linearGradient>
<linearGradient id="paint1_linear_10934_8318" x1="74.3801" y1="70.9242" x2="56.6867" y2="42.1781" gradientUnits="userSpaceOnUse">
<stop stop-color="#FFE60C"/>
<stop offset="1" stop-color="white" stop-opacity="0.1"/>
</linearGradient>
<linearGradient id="paint2_linear_10934_8318" x1="93.1572" y1="77.3802" x2="116.032" y2="60.3489" gradientUnits="userSpaceOnUse">
<stop stop-color="#FFE60C"/>
<stop offset="1" stop-color="white" stop-opacity="0.1"/>
</linearGradient>
<linearGradient id="paint3_linear_10934_8318" x1="70.6215" y1="79.6023" x2="24.2428" y2="74.3414" gradientUnits="userSpaceOnUse">
<stop stop-color="#FFE60C"/>
<stop offset="1" stop-color="white" stop-opacity="0.1"/>
</linearGradient>
<linearGradient id="paint4_linear_10934_8318" x1="87.7388" y1="84.7607" x2="124.624" y2="76.4683" gradientUnits="userSpaceOnUse">
<stop stop-color="#FFE60C"/>
<stop offset="1" stop-color="white" stop-opacity="0.1"/>
</linearGradient>
<linearGradient id="paint5_linear_10934_8318" x1="75.4487" y1="88.9727" x2="57.5617" y2="113.834" gradientUnits="userSpaceOnUse">
<stop stop-color="#FFE60C"/>
<stop offset="1" stop-color="white" stop-opacity="0.1"/>
</linearGradient>
<linearGradient id="paint6_linear_10934_8318" x1="83.6722" y1="85.8654" x2="89.9845" y2="106.202" gradientUnits="userSpaceOnUse">
<stop stop-color="#FFE60C"/>
<stop offset="1" stop-color="white" stop-opacity="0.1"/>
</linearGradient>
<linearGradient id="paint7_linear_10934_8318" x1="98.6321" y1="85.388" x2="93.3877" y2="105.134" gradientUnits="userSpaceOnUse">
<stop stop-color="#FFE60C"/>
<stop offset="1" stop-color="white"/>
</linearGradient>
<linearGradient id="paint8_linear_10934_8318" x1="73.084" y1="77.9217" x2="37.4444" y2="56.0017" gradientUnits="userSpaceOnUse">
<stop stop-color="#FFE60C"/>
<stop offset="1" stop-color="white" stop-opacity="0.1"/>
</linearGradient>
<linearGradient id="paint9_linear_10934_8318" x1="73.0508" y1="83.4751" x2="39.1361" y2="90.0684" gradientUnits="userSpaceOnUse">
<stop stop-color="#FFE60C"/>
<stop offset="1" stop-color="white" stop-opacity="0.1"/>
</linearGradient>
<linearGradient id="paint10_linear_10934_8318" x1="83.7843" y1="79.3464" x2="82.231" y2="35.4285" gradientUnits="userSpaceOnUse">
<stop stop-color="#FFE60C"/>
<stop offset="1" stop-color="white" stop-opacity="0.1"/>
</linearGradient>
<radialGradient id="paint11_angular_10934_8318" cx="0" cy="0" r="1" gradientUnits="userSpaceOnUse" gradientTransform="translate(17.2821 53.2821) rotate(90) scale(4.28205)">
<stop stop-color="#FFF6AF"/>
<stop offset="1" stop-color="white"/>
</radialGradient>
<radialGradient id="paint12_angular_10934_8318" cx="0" cy="0" r="1" gradientUnits="userSpaceOnUse" gradientTransform="translate(84.2821 70.2821) rotate(90) scale(4.28205)">
<stop stop-color="#FFF6AF"/>
<stop offset="1" stop-color="white"/>
</radialGradient>
<radialGradient id="paint13_angular_10934_8318" cx="0" cy="0" r="1" gradientUnits="userSpaceOnUse" gradientTransform="translate(30.2821 124.282) rotate(90) scale(4.28205)">
<stop stop-color="#FFF6AF"/>
<stop offset="1" stop-color="white"/>
</radialGradient>
<radialGradient id="paint14_angular_10934_8318" cx="0" cy="0" r="1" gradientUnits="userSpaceOnUse" gradientTransform="translate(39.2821 87.9363) rotate(90) scale(4.28205)">
<stop stop-color="#FFF6AF"/>
<stop offset="1" stop-color="white"/>
</radialGradient>
<radialGradient id="paint15_angular_10934_8318" cx="0" cy="0" r="1" gradientUnits="userSpaceOnUse" gradientTransform="translate(89.2821 127.282) rotate(90) scale(4.28205)">
<stop stop-color="#FFF6AF"/>
<stop offset="1" stop-color="white"/>
</radialGradient>
<radialGradient id="paint16_angular_10934_8318" cx="0" cy="0" r="1" gradientUnits="userSpaceOnUse" gradientTransform="translate(125.282 73.2821) rotate(90) scale(4.28205)">
<stop stop-color="#FFF6AF"/>
<stop offset="1" stop-color="white"/>
</radialGradient>
<clipPath id="clip0_10934_8318">
<rect width="133.408" height="141" fill="white" transform="translate(0.591797)"/>
</clipPath>
<clipPath id="clip1_10934_8318">
<rect width="112.758" height="87.5427" fill="white" transform="translate(19.7959 32.4492)"/>
</clipPath>
</defs>
</svg>
