<svg width="75" height="93" viewBox="0 0 75 93" fill="none" xmlns="http://www.w3.org/2000/svg">
<path d="M46.3836 61.9211C45.7969 63.7089 46.4814 66.9135 46.0577 68.0942C45.9273 68.4315 45.7969 68.8026 45.5362 69.0724C45.1776 69.4435 44.6561 69.5784 44.1672 69.7134C42.8634 70.0507 41.5922 70.3543 40.2884 70.6916C39.8647 70.7928 39.4084 70.9615 39.2454 71.3325C39.0824 71.6699 39.2454 72.1084 39.4736 72.3783C41.2663 74.3685 44.9821 73.795 47.2963 73.6264C48.1112 73.5589 48.9912 73.424 49.6757 72.9517C51.338 71.7711 50.3276 68.5327 50.2624 66.8123C50.1646 64.8221 51.7944 62.0223 49.9365 61.3139C48.0786 60.6392 46.8074 60.5717 46.3836 61.9211Z" fill="#FFC300" stroke="#2F3032" stroke-width="1.14776"/>
<path d="M40.9055 72.5344C41.3157 72.2457 42.4942 71.6685 43.9262 71.6685" stroke="#2F3032" stroke-width="1.14776" stroke-linecap="round"/>
<path d="M58.2501 62.9557C58.0177 64.3025 58.0177 66.9641 59.4455 69.7861C59.4455 69.7861 65.0239 71.197 65.0571 71.197C66.7173 71.6139 65.7212 73.2494 64.5258 73.4418C63.098 73.6662 61.637 73.7945 60.176 73.8266C58.8478 73.8586 57.4864 73.7945 56.1914 73.3776C55.6269 73.2173 55.0957 72.9607 54.7304 72.5118C54.2323 71.9025 54.2323 71.0367 54.3652 70.2671C54.5312 69.0485 54.5644 67.9262 54.498 66.7076C54.4648 65.97 54.3652 65.2325 54.2323 64.4949C54.1659 64.046 53.7675 63.3084 53.8671 62.8916C53.9667 62.4747 54.4316 62.2502 54.83 62.1219C55.3281 61.9616 55.8262 61.8333 56.3574 61.7692C57.254 61.5768 58.4161 61.8333 58.2501 62.9557Z" fill="#FFC300" stroke="#2F3032" stroke-width="1.14776"/>
<path d="M59.9186 72.055C60.4984 72.0813 61.9498 72.396 63.1172 73.4445" stroke="#2F3032" stroke-width="1.14776" stroke-linecap="round"/>
<path d="M58.6259 5.24263C59.2466 4.06432 59.5406 3.08801 59.4426 2.28003C59.3119 1.20272 58.2992 0.664063 57.2865 0.664063C55.9797 0.664063 54.2482 1.94337 53.0722 2.51569C52.1574 2.95334 52.5821 3.593 53.3989 3.99699L57.1558 5.74762C57.7112 6.01694 58.3319 5.78128 58.6259 5.24263Z" fill="white" stroke="#2F3032" stroke-width="1.14776"/>
<path d="M60.4706 9.5336C61.3514 8.57955 61.8684 7.73486 61.9663 6.95182C62.0968 5.90777 61.2464 5.15264 60.2676 4.90346C59.0045 4.58194 57.026 5.35756 55.7529 5.60576C54.7644 5.79178 55.0224 6.49709 55.7155 7.07751L58.9293 9.64622C59.4019 10.0358 60.058 9.96721 60.4706 9.5336Z" fill="white" stroke="#2F3032" stroke-width="1.14776"/>
<path d="M70.5872 52.7953C72.1025 52.2318 73.152 51.5847 73.7011 50.7697C74.4332 49.6831 73.9128 48.3643 72.9651 47.5354C71.7424 46.4658 69.1076 46.2119 67.5532 45.7697C66.3501 45.419 66.2402 46.3483 66.684 47.3841L68.8111 52.0512C69.1171 52.7507 69.8849 53.0444 70.5872 52.7953Z" fill="white" stroke="#2F3032" stroke-width="1.14776"/>
<path d="M49.9732 38.8906C50.0385 40.2492 49.9732 41.6402 50.2018 42.6754C50.5283 44.2605 50.561 46.1045 49.4181 47.2367C48.8304 47.7866 48.0467 48.0778 47.361 48.5307C46.9692 48.7894 46.5773 49.0806 46.1202 49.1453C44.4223 49.4041 43.8019 48.4336 42.6264 50.0834C41.81 51.2156 41.7774 52.8008 40.5039 53.5771C39.7202 54.0624 38.708 53.9977 37.8917 53.5771C34.1693 51.5715 36.0958 44.8428 37.4346 41.9314C38.708 39.1493 45.4345 30.1239 49.059 34.9763C49.7773 35.9468 49.9406 37.4025 49.9732 38.8906Z" fill="white" stroke="#2F3032" stroke-width="1.14776"/>
<path d="M47.278 20.8169C47.1477 23.3889 47.6036 25.961 47.3431 28.533C46.7569 34.6212 40.7976 38.2677 39.202 43.9978C38.2251 47.514 37.8994 51.486 39.0392 55.0022C41.97 64.1509 56.3634 65.6811 63.1368 60.4719C67.7935 56.8906 69.4543 52.3976 66.8817 46.8303C65.6768 44.2583 63.9184 42.0118 62.2901 39.6677C61.6063 38.6584 60.8899 37.7793 60.0758 36.8677C58.4475 35.1096 57.3078 34.2631 56.7216 31.7888C56.1355 29.3469 55.5167 26.9051 55.5493 24.3982C55.5819 20.0355 58.5778 17.3007 59.5873 13.2635C60.206 10.7241 60.1735 7.76133 58.5778 5.4172C57.6986 4.14746 56.4611 3.20329 54.9957 2.91027C51.837 2.38935 50.1762 4.44047 49.5249 7.20786C48.4828 11.4403 47.6687 15.9333 47.3105 20.2634C47.278 20.4587 47.278 20.6541 47.278 20.8169Z" fill="white" stroke="#2F3032" stroke-width="1.14776"/>
<path d="M51.262 8.71283C50.9393 6.47181 49.616 2.57438 46.7113 4.78292C43.8066 7.02394 43.902 8.31441 43.9357 9.26497M51.262 8.71283C51.0361 9.45984 49.9065 11.3436 47.3568 12.8376C44.8071 14.3316 44.0002 11.0838 43.9357 9.26497M51.262 8.71283C50.5197 7.706 47.9884 4.49384 43.9357 9.26497L51.262 8.71283Z" fill="white"/>
<path d="M51.262 8.71283C50.9393 6.47181 49.616 2.57438 46.7113 4.78292C43.8066 7.02394 43.902 8.31441 43.9357 9.26497M51.262 8.71283C51.0361 9.45984 49.9065 11.3436 47.3568 12.8376C44.8071 14.3316 44.0002 11.0838 43.9357 9.26497M51.262 8.71283C50.5197 7.706 47.9884 4.49384 43.9357 9.26497" stroke="#2F3032" stroke-width="1.14776"/>
<path d="M44.1054 20.515L48.486 21.1808C48.5999 21.2098 48.7029 21.2079 48.8167 21.2369C49.1474 21.293 49.4782 21.3491 49.8287 21.3635C50.3131 21.3653 50.7847 21.2332 51.2944 20.9146C52.1907 20.3209 52.6407 19.539 52.5015 18.654C52.3841 17.8305 51.8057 17.17 51.1281 16.7175C49.7618 15.7819 47.5083 15.3676 45.6722 16.4319C44.8156 16.9423 44.0204 17.431 43.359 17.907C42.8096 18.3089 42.5422 18.9224 42.7591 19.5378C42.9542 20.0916 43.4964 20.4535 44.1054 20.515Z" fill="#FFC300" stroke="#2F3032" stroke-width="1.14776"/>
<path d="M42.9943 11.3807C41.9278 12.3347 40.7643 13.1934 39.5039 13.893C38.2434 14.6244 36.7891 15.0061 35.561 15.7057C35.0762 15.9601 34.6883 16.4053 34.9469 16.9459C35.0762 17.2322 35.3994 17.423 35.5933 17.5502C37.8556 18.7268 40.6027 18.6632 43.0589 18.7904C45.8707 18.9176 48.844 18.9176 51.4942 17.9C53.1101 17.2958 54.7261 15.6103 53.304 13.9884C52.2698 12.8117 50.5569 12.3347 49.1672 11.6987C48.3592 11.3489 47.5513 10.9673 46.6787 10.7764C45.4829 10.4902 43.9639 10.5538 42.9943 11.3807Z" fill="#FFC300" stroke="#2F3032" stroke-width="1.14776"/>
<path d="M46.6276 9.55677C47.0238 9.55677 47.345 9.2356 47.345 8.83942C47.345 8.44324 47.0238 8.12207 46.6276 8.12207C46.2314 8.12207 45.9103 8.44324 45.9103 8.83942C45.9103 9.2356 46.2314 9.55677 46.6276 9.55677Z" fill="#2F3032"/>
<path d="M55.9163 41.3268C55.9481 41.9129 55.98 42.4664 55.8525 43.1176C55.5975 44.4852 55.0875 45.755 55.1512 47.1877C55.2468 48.718 56.1075 50.0855 57.3507 50.8669C58.9764 51.9089 59.7733 51.0949 61.399 51.2902C61.909 51.3553 62.2915 51.7786 62.5147 52.2345C62.7378 52.6903 62.8334 53.2113 62.9928 53.6997C63.4072 54.9369 64.2998 56.044 65.5429 56.4022C67.6149 56.9882 68.8581 55.1974 69.2087 53.3741C70.3563 46.8295 65.798 38.2011 59.4227 36.28C57.2232 35.6288 55.9481 37.908 55.8525 39.8291C55.8206 40.35 55.8844 40.8384 55.9163 41.3268Z" fill="white" stroke="#2F3032" stroke-width="1.14776"/>
<path d="M43.4946 14.9514C43.8462 14.6627 44.8563 14.0854 46.0838 14.0854" stroke="#2F3032" stroke-width="1.14776" stroke-linecap="round"/>
<path d="M56.6073 63.1176C53.8428 63.743 50.5352 63.2522 47.4727 58.2218" stroke="#2F3032" stroke-width="1.14776" stroke-linecap="round"/>
<path d="M52.6618 36.0728C52.4708 36.8002 51.8701 38.3417 50.9957 38.6892C50.4635 38.9008 50.3357 38.0126 50.2787 37.1115C50.2193 36.1722 49.8439 36.0402 49.2351 36.757C48.929 37.1173 48.57 37.4608 48.1881 37.6037C46.8602 38.1007 45.7577 35.1561 48.1548 32.3447" stroke="#2E3032" stroke-width="1.14776" stroke-linecap="round"/>
<path d="M48.673 9.57855C49.0118 7.33753 50.4007 3.4401 53.4498 5.64865C56.4988 7.85719 56.6343 9.54608 56.3294 10.1307M48.673 9.57855C48.673 10.9776 50.0958 12.2093 52.7722 13.7033C55.4485 15.1974 56.2955 11.9495 56.3633 10.1307M48.673 9.57855C49.4522 8.57172 52.0608 7.27257 56.3633 10.1307L48.673 9.57855Z" fill="white"/>
<path d="M48.673 9.57855C49.0118 7.33753 50.4007 3.4401 53.4498 5.64865C56.4988 7.85719 56.6343 9.54608 56.3294 10.1307M48.673 9.57855C48.673 10.9776 50.0958 12.2093 52.7722 13.7033C55.4485 15.1973 56.2955 11.9495 56.3633 10.1307C52.0608 7.27257 49.4522 8.57172 48.673 9.57855Z" stroke="#2F3032" stroke-width="1.14776"/>
<path d="M50.9317 10.9913C51.3279 10.9913 51.6491 10.6702 51.6491 10.274C51.6491 9.87781 51.3279 9.55664 50.9317 9.55664C50.5355 9.55664 50.2144 9.87781 50.2144 10.274C50.2144 10.6702 50.5355 10.9913 50.9317 10.9913Z" fill="#2F3032"/>
<g clip-path="url(#clip0_9533_10953)">
<path d="M25.7994 20.3437L21.9276 26.0162C21.795 26.2292 21.9542 26.4423 22.1663 26.3091C23.3862 25.6167 25.269 23.9922 26.2767 23.2731C27.3905 22.4742 26.8867 21.1959 26.1707 20.317C26.0911 20.1839 25.9055 20.2105 25.7994 20.3437Z" fill="#848484" stroke="#2E3032" stroke-width="1.14776" stroke-linecap="round"/>
<path d="M0.561035 51.5236C0.561035 52.7425 1.65795 55.7896 2.21572 56.8607C2.66194 57.7287 3.33127 58.8367 4.35385 59.1137C4.70711 59.2061 5.07896 59.1876 5.45081 59.1507C7.57034 58.8921 9.61551 57.7656 10.8426 56.0112C11.735 54.737 11.9953 53.2042 11.6049 51.6898C11.3074 50.5264 9.9688 47.4513 9.02059 46.6572C8.09074 45.8747 8.51797 52.5048 7.75626 50.8403C6.90101 49.0859 6.23169 47.1099 4.63274 46.0019C3.53579 45.2447 3.64734 47.1469 3.66593 47.6824C3.70312 48.9197 3.90763 50.1571 4.2423 51.339C4.42822 52.0223 4.66992 52.724 4.70711 53.4442C4.70711 53.592 4.68852 53.7767 4.53978 53.8321C4.44681 53.869 4.33526 53.8136 4.2423 53.7582C3.68453 53.3888 2.68057 50.9696 2.23435 50.4895C1.91828 50.1571 1.47206 49.8062 1.06303 50.0278C0.784144 50.1755 0.691182 50.5264 0.653997 50.8403C0.579628 51.062 0.561035 51.302 0.561035 51.5236Z" fill="#848484" stroke="#2E3032" stroke-width="1.14776" stroke-linecap="round"/>
<path d="M15.2004 70.9117C15.3138 70.7606 15.4083 70.5908 15.4839 70.4209C15.9941 69.3826 16.4287 68.3066 16.7688 67.2117C16.8444 66.9663 16.9389 66.6454 17.1656 66.5322C17.4491 66.3811 17.8837 66.4 18.1671 66.4566C18.2427 66.4755 18.3372 66.4944 18.375 66.5699C18.3939 66.6265 18.3939 66.6832 18.3939 66.7398C18.2427 67.8536 18.0915 68.9673 17.9593 70.0999C17.9404 70.251 17.9215 70.402 17.9593 70.5341C18.0349 70.7984 18.2994 70.9305 18.5451 71.0627C19.5277 71.5535 20.4725 72.1198 21.2661 72.8749C21.285 72.8938 21.3039 72.9127 21.3039 72.9315C21.3228 72.9504 21.3228 72.9882 21.3039 73.007C21.3039 73.0637 21.285 73.1203 21.2661 73.1769C21.2472 73.2336 21.2283 73.2902 21.1905 73.328C21.0394 73.479 20.6803 73.5356 20.4725 73.5734C20.189 73.63 19.9056 73.6489 19.6033 73.6489C19.0175 73.6489 18.4506 73.5356 17.8837 73.4035C16.8255 73.1392 15.7673 72.7616 14.6902 72.6861C13.9721 72.6295 13.2541 72.7239 12.536 72.7805C12.4604 72.7805 12.366 72.7805 12.3471 72.705C12.3282 72.6672 12.366 72.6106 12.4038 72.5729C12.6116 72.3463 12.8951 72.1953 13.1785 72.0443C13.5753 71.8555 13.9722 71.6479 14.369 71.478C14.5957 71.3647 14.8414 71.2703 15.0303 71.0816C15.1059 70.9872 15.1626 70.9494 15.2004 70.9117Z" fill="#F5BD1A"/>
<path d="M17.8837 73.4035C18.4506 73.5356 19.0175 73.6489 19.6033 73.6489C19.9056 73.6489 20.189 73.63 20.4725 73.5734C20.6803 73.5356 21.0394 73.479 21.1905 73.328C21.2283 73.2902 21.2472 73.2336 21.2661 73.1769C21.285 73.1203 21.3039 73.0637 21.3039 73.007C21.3228 72.9882 21.3228 72.9504 21.3039 72.9315C21.3039 72.9127 21.285 72.8938 21.2661 72.8749C20.4725 72.1198 19.5277 71.5535 18.5451 71.0627C18.2994 70.9305 18.0349 70.7984 17.9593 70.5341C17.9215 70.402 17.9404 70.251 17.9593 70.0999C18.0915 68.9673 18.2427 67.8536 18.3939 66.7398C18.3939 66.6832 18.3939 66.6265 18.375 66.5699C18.3372 66.4944 18.2427 66.4755 18.1671 66.4566C17.8837 66.4 17.4491 66.3811 17.1656 66.5322C16.9389 66.6454 16.8444 66.9663 16.7688 67.2117C16.4287 68.3066 15.9941 69.3826 15.4839 70.4209C15.4083 70.5908 15.3138 70.7606 15.2004 70.9117C15.1626 70.9494 15.1059 70.9872 15.0303 71.0816C14.8414 71.2703 14.5957 71.3647 14.369 71.478C13.9722 71.6479 13.5753 71.8555 13.1785 72.0443C12.8951 72.1953 12.6116 72.3463 12.4038 72.5729C12.366 72.6106 12.3282 72.6672 12.3471 72.705C12.366 72.7805 12.4604 72.7805 12.536 72.7805C13.2541 72.7239 13.9721 72.6295 14.6902 72.6861C15.7673 72.7616 16.8255 73.1392 17.8837 73.4035ZM17.8837 73.4035L17.1656 72.0443" stroke="#2E3032" stroke-width="1.14776" stroke-linecap="round"/>
<path d="M23.3627 71.0275C23.6305 69.7442 23.9558 68.5725 24.0706 67.252C24.0898 67.1218 24.0898 66.973 24.1472 66.8614C24.2811 66.5824 24.6829 66.415 24.9891 66.415C25.4675 66.415 25.4292 66.4894 25.5249 66.9172C25.7545 67.8471 25.7162 68.9259 25.7736 69.893C25.7927 70.1348 25.8119 70.3952 26.0032 70.5439C26.0989 70.6369 26.252 70.6555 26.3859 70.6927C27.4192 70.9345 28.4333 71.2879 29.39 71.7343C30.2511 72.1248 29.2752 72.627 28.816 72.813C28.108 73.092 27.3044 73.1478 26.539 73.1292C25.9458 73.1106 25.3718 73.0734 24.7786 73.0362C24.2046 72.999 23.6114 73.0548 23.0565 73.1478C22.4251 73.2593 21.7936 73.4267 21.1813 73.6127C21.0474 73.6499 20.7986 73.7057 20.7604 73.5011C20.7221 73.3151 21.0282 73.1664 21.1622 73.0734C21.3535 72.9246 21.564 72.7572 21.7554 72.6084C22.1572 72.2922 22.559 71.976 22.9608 71.6785C23.1928 71.4905 23.3032 71.3167 23.3627 71.0275Z" fill="#F5BD1A"/>
<path d="M26.539 73.1292C27.3044 73.1478 28.108 73.092 28.816 72.813C29.2752 72.627 30.2511 72.1248 29.39 71.7343C28.4333 71.2879 27.4192 70.9345 26.3859 70.6927C26.252 70.6555 26.0989 70.6369 26.0032 70.5439C25.8119 70.3952 25.7927 70.1348 25.7736 69.893C25.7162 68.9259 25.7545 67.8471 25.5249 66.9172C25.4292 66.4894 25.4675 66.415 24.9891 66.415C24.6829 66.415 24.2811 66.5824 24.1472 66.8614C24.0898 66.973 24.0898 67.1218 24.0706 67.252C23.9558 68.5725 23.6305 69.7442 23.3627 71.0275C23.3032 71.3167 23.1928 71.4905 22.9608 71.6785C22.559 71.976 22.1572 72.2922 21.7554 72.6084C21.564 72.7572 21.3535 72.9246 21.1622 73.0734C21.0282 73.1664 20.7221 73.3151 20.7604 73.5011C20.7986 73.7057 21.0474 73.6499 21.1813 73.6127C21.7936 73.4267 22.4251 73.2593 23.0565 73.1478C23.6114 73.0548 24.2046 72.999 24.7786 73.0362C25.3718 73.0734 25.9458 73.1106 26.539 73.1292ZM26.539 73.1292L25.4292 71.4924" stroke="#2E3032" stroke-width="1.14776" stroke-linecap="round"/>
<path d="M21.2981 44.9166C21.467 44.6409 21.5985 44.3285 21.636 43.9976C21.6923 43.5565 21.6172 43.1154 21.5234 42.6927C21.1666 41.1671 20.6973 39.2189 19.4018 38.1896C18.5569 37.4912 17.4116 37.0685 16.8296 36.1127C16.4166 35.4327 16.379 34.6239 16.4166 33.852C16.4541 33.08 16.3602 32.2897 16.4729 31.5178C16.7921 29.2754 18.4818 27.5294 20.3969 26.3898C22.4809 25.1584 25.2784 24.1475 27.6816 24.9929C29.2962 25.5627 30.6856 27.0515 31.2676 28.6138C32.075 30.7458 31.3991 33.5028 31.0236 35.6716C30.8734 36.4987 31.0423 37.822 30.3289 38.4286C30.066 38.6491 29.7468 38.7962 29.4277 38.9248C28.902 39.1454 28.3763 39.3475 27.8318 39.5681C26.4049 40.1563 26.0482 40.9466 26.1608 42.4537C26.2547 43.9976 27.231 44.9901 28.1697 46.1848C29.8032 48.2617 31.3239 50.4673 32.2252 52.9302C32.9198 54.8417 33.3329 57.0105 32.9574 59.0323C32.6007 60.9805 31.2676 62.598 29.7281 63.811C26.9869 65.9798 23.7013 67.4318 20.134 67.5237C16.7733 67.5973 13.4313 66.6231 10.4836 65.0608C9.46978 64.5278 8.51225 63.9213 7.59228 63.2412C7.01025 62.8185 6.46577 62.359 5.9213 61.8811C4.92785 60.9086 6.60492 58.2282 6.89759 57.0105C7.12289 56.0548 7.949 52.5994 8.75633 51.9377C9.86406 51.0187 11.3097 51.2209 12.624 50.8349C13.2436 50.6511 13.8256 50.4122 14.4076 50.1181C16.6231 48.9969 18.5569 47.5265 20.4156 45.9091C20.7536 45.6334 21.0728 45.3026 21.2981 44.9166Z" fill="white"/>
<path d="M27.8318 39.5681C28.3763 39.3475 28.902 39.1454 29.4277 38.9248C29.7468 38.7962 30.066 38.6491 30.3289 38.4286C31.0423 37.822 30.8733 36.4987 31.0236 35.6716C31.3991 33.5028 32.075 30.7458 31.2676 28.6138C30.6856 27.0515 29.2962 25.5627 27.6816 24.9929C25.2784 24.1475 22.4809 25.1584 20.3969 26.3898C18.4818 27.5294 16.7921 29.2754 16.4729 31.5178C16.3602 32.2897 16.4541 33.08 16.4166 33.852C16.379 34.6239 16.4166 35.4327 16.8296 36.1127C17.4116 37.0685 18.5569 37.4912 19.4018 38.1896C20.6973 39.2189 21.1666 41.1671 21.5234 42.6927C21.6172 43.1154 21.6923 43.5565 21.636 43.9976C21.5985 44.3285 21.467 44.6409 21.2981 44.9166C21.0728 45.3026 20.7536 45.6334 20.4156 45.9091C18.5569 47.5265 16.6231 48.9969 14.4076 50.1181C13.8256 50.4122 13.2436 50.6511 12.624 50.8349C11.3097 51.2209 9.86406 51.0187 8.75633 51.9377C7.949 52.5994 7.12289 56.0548 6.89759 57.0105C6.60492 58.2282 4.92785 60.9086 5.9213 61.8811C6.46577 62.359 7.01025 62.8185 7.59228 63.2412C8.51225 63.9213 9.46978 64.5278 10.4836 65.0608C13.4313 66.6231 16.7733 67.5973 20.134 67.5237C23.7013 67.4318 26.9869 65.9798 29.7281 63.811C31.2676 62.598 32.6007 60.9805 32.9574 59.0323C33.3329 57.0105 32.9198 54.8417 32.2252 52.9302C31.3239 50.4673 29.8032 48.2617 28.1697 46.1848C27.231 44.9901 26.2547 43.9976 26.1608 42.4537C26.0482 40.9466 26.4049 40.1563 27.8318 39.5681ZM27.8318 39.5681C27.3937 39.7764 26.142 40.1747 24.64 40.1011" stroke="#2E3032" stroke-width="1.14776" stroke-linecap="round"/>
<path d="M20.4954 25.6496C21.5444 25.0198 23.3752 24.4271 24.0236 24.2789C25.8354 23.8344 27.9523 24.3715 29.4207 25.6496C29.8975 26.0756 30.3552 26.5757 30.6985 27.0943C31.099 27.6685 31.5377 28.4835 31.3851 29.2059C31.2897 29.6504 31.0609 30.0209 30.7557 30.3543C29.9929 31.1322 28.9058 31.5582 27.8951 31.9101C26.8652 32.2435 25.7781 32.5029 24.6911 32.651C23.5277 32.8177 22.3453 32.9659 21.1629 33.0215C20.8387 33.04 20.4954 33.04 20.1903 33.1511C19.4274 33.3919 19.2558 34.1699 19.2558 34.8737C19.2558 35.522 19.4656 36.0962 19.5228 36.726C19.58 37.3002 19.1032 37.578 18.5502 37.4483C18.2069 37.3372 17.9017 37.152 17.6347 36.9112C16.2807 35.948 16.2998 34.7996 16.2807 33.5586C16.2426 32.4843 16.2807 31.2433 16.6621 30.2246C17.5203 27.9649 19.4465 26.2793 20.4954 25.6496Z" fill="#848484" stroke="#2E3032" stroke-width="1.14776" stroke-linecap="round"/>
<path d="M32.5097 30.7604C32.6019 29.924 32.5097 28.9926 31.6246 28.6885C31.1821 28.5364 30.6289 28.5554 30.1679 28.6505C28.453 29.0687 30.1678 31.2736 29.1721 31.996C29.5409 33.0034 30.887 33.1365 31.7721 32.9654C31.8459 32.9464 31.9197 32.9274 31.9934 32.8704C32.0487 32.8133 32.0672 32.7373 32.1041 32.6613C32.2331 32.2051 32.3622 31.7489 32.4544 31.2736C32.4728 31.1406 32.4913 30.9505 32.5097 30.7604Z" fill="white" stroke="#2E3032" stroke-width="1.14776" stroke-linecap="round"/>
<path d="M16.8357 47.5279C14.9833 47.2667 12.8715 48.6471 11.4267 49.6731C10.4634 50.3633 9.55572 51.1094 8.68509 51.8929C7.81446 52.6764 6.83268 53.4785 6.14728 54.4299C5.66566 55.1201 4.94322 56.687 5.99909 57.172C6.11024 57.228 6.29548 57.3026 6.66596 57.3399C5.71629 58.2006 4.1467 59.3426 4.55421 60.7909C5.09141 62.731 8.68509 62.5631 10.2226 62.4698C13.2605 62.2833 16.4282 61.1454 18.3547 58.6644C20.17 56.3326 20.6887 53.1987 19.7069 50.4006C19.4661 49.6917 19.1142 49.0015 18.5955 48.4419C18.0768 47.9196 17.484 47.6211 16.8357 47.5279Z" fill="#848484"/>
<path d="M6.66596 57.3399C6.29548 57.3026 6.11024 57.228 5.99909 57.172C4.94322 56.687 5.66566 55.1201 6.14728 54.4299C6.83268 53.4785 7.81446 52.6764 8.68509 51.8929C9.55572 51.1094 10.4634 50.3633 11.4267 49.6731C12.8715 48.6471 14.9833 47.2667 16.8357 47.5279C17.484 47.6211 18.0768 47.9196 18.5955 48.4419C19.1142 49.0015 19.4661 49.6917 19.7069 50.4006C20.6887 53.1987 20.17 56.3326 18.3547 58.6644C16.4282 61.1454 13.2605 62.2833 10.2226 62.4698C8.68509 62.5631 5.09141 62.731 4.55421 60.7909C4.1467 59.3426 5.71629 58.2006 6.66596 57.3399ZM6.66596 57.3399C8.17876 57.3586 11.8527 57.0041 14.4461 55.4372" stroke="#2E3032" stroke-width="1.14776" stroke-linecap="round"/>
<path d="M35.809 37.0541C35.5625 37.2336 34.9178 37.413 34.7661 37.4729C31.4099 38.6493 26.935 38.0511 24.5458 35.0203C24.3373 34.7412 23.7305 34.0034 24.5079 34.163C26.5368 34.6216 28.5657 35.0802 30.6135 35.5388C31.6374 35.7581 32.6424 35.9974 33.6663 36.2167C34.1783 36.3363 34.6902 36.436 35.1832 36.5557C35.3539 36.5955 35.9227 36.6753 35.9038 36.9345C35.9038 36.9744 35.8658 37.0143 35.809 37.0541Z" fill="#F5BD1A" stroke="#2E3032" stroke-width="1.14776" stroke-linecap="round"/>
<ellipse cx="30.4505" cy="30.8021" rx="0.561003" ry="0.556448" fill="#2E3032"/>
<path d="M23.4071 27.0957C24.0639 26.1724 25.096 26.0801 26.3158 26.6341" stroke="#2E3032" stroke-width="1.14776" stroke-linecap="round"/>
<path d="M28.943 27.5142C29.506 27.0035 30.1628 27.0958 30.6319 27.2805" stroke="#2E3032" stroke-width="1.14776" stroke-linecap="round"/>
<path d="M21.5966 60.8922C21.3864 61.4905 21.0922 62.8466 21.5966 63.4848C21.8433 63.797 22.2438 63.7719 22.6483 63.6104C23.4436 63.2927 24.2985 63.1269 24.2985 63.9834V63.9834C24.2985 65.0802 27.1805 61.4905 26.9103 60.2939" stroke="#2E3032" stroke-width="1.14776" stroke-linecap="round"/>
<path d="M27.4286 32.5378C27.0943 32.7223 26.7786 32.8863 26.4257 32.9888C25.3114 33.2963 24.1599 33.0503 23.027 33.1323C22.8413 33.1528 23.7142 33.9523 23.7327 33.9728C24.1413 34.2598 24.5685 34.5058 25.0142 34.7313C25.8685 35.1618 26.7786 35.5103 27.6886 35.7768C29.0815 36.1663 30.493 36.4123 31.923 36.5968C33.2231 36.7608 34.616 37.0888 35.9346 36.8223C36.5103 36.6993 37.0861 36.4533 37.5318 36.0228C37.8475 35.7153 38.479 35.2028 38.6461 34.7723C38.7947 34.4033 38.6647 33.9728 38.4233 33.6653C37.7361 32.8248 36.7332 32.9888 35.8232 33.1118C34.6531 33.2758 33.4459 33.3168 32.2759 33.0298C31.1802 32.7633 30.1215 31.8203 28.9701 31.9228C28.4315 31.9638 27.93 32.2508 27.4286 32.5378Z" fill="#F5BD1A" stroke="#2E3032" stroke-width="1.14776" stroke-linecap="round"/>
<path d="M34.657 36.9135C35.9632 36.8594 37.3073 36.3721 37.9888 35.253C38.5189 34.4047 37.6291 33.6466 36.7583 33.5925C35.5089 33.5022 34.3352 34.152 33.1993 34.5671C31.7149 35.1078 26.1929 35.8032 29.6593 36.354C30.2462 36.4443 30.8141 36.5345 31.4009 36.6248C32.4421 36.7692 33.578 36.9677 34.657 36.9135Z" fill="#DA8C06" stroke="#2E3032" stroke-width="1.14776" stroke-linecap="round"/>
<path d="M27.5162 28.5419C27.1058 27.7467 26.3671 27.3584 25.3 27.4879C24.3151 27.6173 23.1044 27.9871 22.694 28.8562C22.181 29.9287 22.4683 31.1861 23.3507 32.0366C23.8021 32.4619 24.3356 32.7948 24.8896 33.1091C25.4026 33.4235 25.9772 33.7008 26.6133 33.5344C27.0237 33.4235 27.352 33.1276 27.5572 32.7948C28.2959 31.6298 28.0907 30.1321 27.6803 28.9117C27.6393 28.8007 27.5777 28.6713 27.5162 28.5419Z" fill="white" stroke="#2E3032" stroke-width="1.14776" stroke-linecap="round"/>
<ellipse cx="24.1231" cy="30.8021" rx="0.561003" ry="0.556448" fill="#2E3032"/>
<path d="M28.7554 33.5586C29.0369 33.2816 29.5859 33.2731 29.8996 33.4501" stroke="#2E3032" stroke-width="1.14776" stroke-linecap="round"/>
</g>
<path d="M26.5743 84.647C26.7202 84.647 26.8556 84.6756 26.9806 84.7329C27.1108 84.785 27.2228 84.8579 27.3165 84.9517C27.4155 85.0402 27.491 85.147 27.5431 85.272C27.6004 85.3918 27.629 85.5246 27.629 85.6704V88.0063C27.629 88.1678 27.5952 88.311 27.5275 88.436C27.465 88.5558 27.3842 88.6678 27.2853 88.772C26.6707 89.3032 26.0483 89.6808 25.4181 89.9048C24.7879 90.1235 24.1342 90.2329 23.4572 90.2329C23.004 90.2277 22.5613 90.1626 22.129 90.0376C21.7019 89.9126 21.2983 89.7381 20.9181 89.5142C20.5431 89.2902 20.1993 89.022 19.8868 88.7095C19.5743 88.397 19.3035 88.0506 19.0743 87.6704C18.8504 87.285 18.6759 86.8735 18.5509 86.436C18.4259 85.9933 18.3634 85.5324 18.3634 85.0532C18.3634 84.5793 18.4233 84.1209 18.5431 83.6782C18.6629 83.2355 18.8322 82.8215 19.0509 82.436C19.2749 82.0454 19.5405 81.6912 19.8478 81.3735C20.1603 81.0558 20.5066 80.7824 20.8868 80.5532C21.2723 80.3241 21.6837 80.147 22.1212 80.022C22.5639 79.8918 23.0249 79.8267 23.504 79.8267C24.2436 79.8267 24.9181 79.9569 25.5275 80.2173C26.142 80.4725 26.7098 80.8579 27.2306 81.3735C27.3348 81.4777 27.4103 81.5923 27.4572 81.7173C27.5092 81.8371 27.5353 81.9621 27.5353 82.0923C27.5353 82.2277 27.5066 82.3579 27.4493 82.4829C27.392 82.6079 27.3139 82.7173 27.215 82.811C27.1212 82.9048 27.0092 82.9803 26.879 83.0376C26.7488 83.0949 26.6134 83.1235 26.4728 83.1235C26.3426 83.1235 26.2176 83.1001 26.0978 83.0532C25.978 83.0063 25.8686 82.9334 25.7697 82.8345C25.4519 82.522 25.1004 82.2928 24.715 82.147C24.3348 82.0011 23.9389 81.9282 23.5275 81.9282C23.1108 81.9282 22.715 82.009 22.34 82.1704C21.9702 82.3267 21.6447 82.5454 21.3634 82.8267C21.0822 83.1027 20.8582 83.4308 20.6915 83.811C20.5301 84.1912 20.4493 84.6001 20.4493 85.0376C20.4493 85.4595 20.5275 85.8605 20.6837 86.2407C20.8452 86.6157 21.0639 86.9465 21.34 87.2329C21.6212 87.5142 21.9519 87.7381 22.3322 87.9048C22.7124 88.0715 23.1264 88.1548 23.5743 88.1548C23.9285 88.1548 24.267 88.1105 24.59 88.022C24.9129 87.9334 25.228 87.772 25.5353 87.5376V86.7095H24.6915C24.5457 86.7095 24.4103 86.6834 24.2853 86.6313C24.1603 86.5741 24.0509 86.4985 23.9572 86.4048C23.8686 86.311 23.7983 86.2017 23.7462 86.0767C23.6941 85.9465 23.6681 85.811 23.6681 85.6704C23.6681 85.5298 23.6941 85.397 23.7462 85.272C23.7983 85.147 23.8686 85.035 23.9572 84.936C24.0509 84.8371 24.1603 84.7616 24.2853 84.7095C24.4103 84.6522 24.5457 84.6235 24.6915 84.6235L26.5743 84.647ZM30.5665 86.4204C30.5665 86.66 30.6108 86.884 30.6993 87.0923C30.7931 87.3006 30.9181 87.4829 31.0743 87.6392C31.2358 87.7954 31.4207 87.9178 31.629 88.0063C31.8374 88.0949 32.0587 88.1392 32.2931 88.1392C32.5327 88.1392 32.7566 88.0949 32.965 88.0063C33.1785 87.9178 33.3634 87.7954 33.5197 87.6392C33.6759 87.4829 33.7983 87.3006 33.8868 87.0923C33.9806 86.884 34.0275 86.66 34.0275 86.4204C34.0275 86.1808 33.9806 85.9569 33.8868 85.7485C33.7983 85.5402 33.6759 85.3579 33.5197 85.2017C33.3634 85.0454 33.1785 84.923 32.965 84.8345C32.7566 84.7459 32.5327 84.7017 32.2931 84.7017C32.0587 84.7017 31.8374 84.7459 31.629 84.8345C31.4207 84.923 31.2358 85.0454 31.0743 85.2017C30.9181 85.3579 30.7931 85.5402 30.6993 85.7485C30.6108 85.9569 30.5665 86.1808 30.5665 86.4204ZM28.4806 86.4204C28.4806 85.8944 28.5795 85.3996 28.7775 84.936C28.9806 84.4725 29.254 84.0688 29.5978 83.7251C29.9467 83.3761 30.3504 83.1027 30.8087 82.9048C31.2723 82.7017 31.767 82.6001 32.2931 82.6001C32.8191 82.6001 33.3139 82.7017 33.7775 82.9048C34.241 83.1027 34.6447 83.3761 34.9884 83.7251C35.3322 84.0688 35.603 84.4725 35.8009 84.936C36.004 85.3996 36.1056 85.8944 36.1056 86.4204C36.1056 86.9465 36.004 87.4412 35.8009 87.9048C35.603 88.3631 35.3322 88.7642 34.9884 89.1079C34.6447 89.4517 34.241 89.7251 33.7775 89.9282C33.3139 90.1261 32.8191 90.2251 32.2931 90.2251C31.767 90.2251 31.2723 90.1261 30.8087 89.9282C30.3504 89.7251 29.9467 89.4517 29.5978 89.1079C29.254 88.7642 28.9806 88.3631 28.7775 87.9048C28.5795 87.4412 28.4806 86.9465 28.4806 86.4204ZM38.879 86.4204C38.879 86.66 38.9233 86.884 39.0118 87.0923C39.1056 87.3006 39.2306 87.4829 39.3868 87.6392C39.5483 87.7954 39.7332 87.9178 39.9415 88.0063C40.1499 88.0949 40.3712 88.1392 40.6056 88.1392C40.8452 88.1392 41.0691 88.0949 41.2775 88.0063C41.491 87.9178 41.6759 87.7954 41.8322 87.6392C41.9884 87.4829 42.1108 87.3006 42.1993 87.0923C42.2931 86.884 42.34 86.66 42.34 86.4204C42.34 86.1808 42.2931 85.9569 42.1993 85.7485C42.1108 85.5402 41.9884 85.3579 41.8322 85.2017C41.6759 85.0454 41.491 84.923 41.2775 84.8345C41.0691 84.7459 40.8452 84.7017 40.6056 84.7017C40.3712 84.7017 40.1499 84.7459 39.9415 84.8345C39.7332 84.923 39.5483 85.0454 39.3868 85.2017C39.2306 85.3579 39.1056 85.5402 39.0118 85.7485C38.9233 85.9569 38.879 86.1808 38.879 86.4204ZM36.7931 86.4204C36.7931 85.8944 36.892 85.3996 37.09 84.936C37.2931 84.4725 37.5665 84.0688 37.9103 83.7251C38.2592 83.3761 38.6629 83.1027 39.1212 82.9048C39.5848 82.7017 40.0795 82.6001 40.6056 82.6001C41.1316 82.6001 41.6264 82.7017 42.09 82.9048C42.5535 83.1027 42.9572 83.3761 43.3009 83.7251C43.6447 84.0688 43.9155 84.4725 44.1134 84.936C44.3165 85.3996 44.4181 85.8944 44.4181 86.4204C44.4181 86.9465 44.3165 87.4412 44.1134 87.9048C43.9155 88.3631 43.6447 88.7642 43.3009 89.1079C42.9572 89.4517 42.5535 89.7251 42.09 89.9282C41.6264 90.1261 41.1316 90.2251 40.6056 90.2251C40.0795 90.2251 39.5848 90.1261 39.1212 89.9282C38.6629 89.7251 38.2592 89.4517 37.9103 89.1079C37.5665 88.7642 37.2931 88.3631 37.09 87.9048C36.892 87.4412 36.7931 86.9465 36.7931 86.4204ZM48.9103 88.061C48.9572 88.061 49.0066 88.0558 49.0587 88.0454C49.1108 88.035 49.1577 88.0168 49.1993 87.9907C49.241 87.9647 49.2749 87.9282 49.3009 87.8813C49.3322 87.8345 49.3478 87.7746 49.3478 87.7017C49.3478 87.6235 49.3322 87.5636 49.3009 87.522C49.2749 87.4751 49.2384 87.4412 49.1915 87.4204C49.1447 87.3996 49.0926 87.3866 49.0353 87.3813C48.978 87.3761 48.9233 87.3735 48.8712 87.3735H47.629C47.2905 87.3735 46.978 87.3058 46.6915 87.1704C46.4051 87.035 46.1577 86.8527 45.9493 86.6235C45.7462 86.3944 45.5848 86.1313 45.465 85.8345C45.3504 85.5376 45.2931 85.2277 45.2931 84.9048C45.2931 84.5923 45.353 84.2954 45.4728 84.0142C45.5978 83.7329 45.7644 83.4881 45.9728 83.2798C46.1863 83.0715 46.4337 82.9074 46.715 82.7876C47.0014 82.6626 47.3061 82.6001 47.629 82.6001H50.0509C50.1915 82.6001 50.3243 82.6235 50.4493 82.6704C50.5743 82.7121 50.6837 82.7772 50.7775 82.8657C50.8712 82.9491 50.9441 83.0532 50.9962 83.1782C51.0535 83.3032 51.0822 83.4465 51.0822 83.6079C51.0822 83.759 51.0561 83.8996 51.004 84.0298C50.9519 84.16 50.8816 84.2746 50.7931 84.3735C50.7098 84.4673 50.6082 84.5428 50.4884 84.6001C50.3686 84.6522 50.2436 84.6782 50.1134 84.6782H50.0509H47.6681C47.5952 84.6782 47.5275 84.7069 47.465 84.7642C47.4025 84.8162 47.3712 84.8892 47.3712 84.9829C47.3712 85.1027 47.4025 85.1834 47.465 85.2251C47.5327 85.2668 47.5952 85.2876 47.6525 85.2876H49.0743C49.4181 85.2876 49.7332 85.3553 50.0197 85.4907C50.3113 85.6261 50.5613 85.8084 50.7697 86.0376C50.978 86.2616 51.1394 86.522 51.254 86.8188C51.3686 87.1157 51.4259 87.4256 51.4259 87.7485C51.4259 88.0715 51.3686 88.3761 51.254 88.6626C51.1447 88.9438 50.9884 89.1938 50.7853 89.4126C50.5874 89.6261 50.3478 89.798 50.0665 89.9282C49.7853 90.0584 49.478 90.1287 49.1447 90.1392H46.1134C45.9728 90.1392 45.8452 90.1131 45.7306 90.061C45.616 90.009 45.5144 89.936 45.4259 89.8423C45.3426 89.7485 45.2775 89.6366 45.2306 89.5063C45.1837 89.3761 45.1603 89.2329 45.1603 89.0767C45.1603 88.7642 45.2488 88.5168 45.4259 88.3345C45.603 88.1522 45.8322 88.061 46.1134 88.061H48.9103ZM54.379 87.3501C54.5457 87.6209 54.7618 87.8345 55.0275 87.9907C55.2931 88.147 55.5848 88.2251 55.9025 88.2251C56.1056 88.2251 56.267 88.2095 56.3868 88.1782C56.5118 88.1418 56.6238 88.0949 56.7228 88.0376C56.8269 87.9699 56.9285 87.923 57.0275 87.897C57.1316 87.8657 57.2306 87.8501 57.3243 87.8501C57.4702 87.8501 57.603 87.8787 57.7228 87.936C57.8478 87.9933 57.9545 88.0715 58.0431 88.1704C58.1368 88.2694 58.2098 88.384 58.2618 88.5142C58.3139 88.6444 58.34 88.7798 58.34 88.9204C58.34 89.0975 58.2905 89.2668 58.1915 89.4282C58.0926 89.5845 57.9415 89.7225 57.7384 89.8423C57.5353 89.9569 57.2801 90.0506 56.9728 90.1235C56.6707 90.1912 56.3139 90.2251 55.9025 90.2251C55.3764 90.2251 54.879 90.1261 54.4103 89.9282C53.9467 89.7251 53.5405 89.4517 53.1915 89.1079C52.8426 88.7642 52.5665 88.3631 52.3634 87.9048C52.1603 87.4412 52.0587 86.9465 52.0587 86.4204C52.0587 85.8892 52.1603 85.3918 52.3634 84.9282C52.5665 84.4647 52.8426 84.061 53.1915 83.7173C53.5405 83.3683 53.9467 83.0949 54.4103 82.897C54.879 82.6991 55.3764 82.6001 55.9025 82.6001C56.4233 82.6001 56.9129 82.6991 57.3712 82.897C57.8348 83.0897 58.2384 83.3579 58.5822 83.7017C58.9311 84.0402 59.2072 84.4386 59.4103 84.897C59.6186 85.3553 59.728 85.8449 59.7384 86.3657C59.7384 86.6626 59.642 86.9022 59.4493 87.0845C59.2618 87.2616 59.017 87.3501 58.715 87.3501H54.379ZM57.6056 85.6157C57.4598 85.3032 57.241 85.0532 56.9493 84.8657C56.6577 84.6782 56.3217 84.5845 55.9415 84.5845C55.5509 84.5845 55.2176 84.6834 54.9415 84.8813C54.6655 85.0741 54.4572 85.3188 54.3165 85.6157H57.6056Z" fill="#2F3032"/>
<defs>
<clipPath id="clip0_9533_10953">
<rect width="43.7582" height="59.5399" fill="white" transform="translate(0 17.4473)"/>
</clipPath>
</defs>
</svg>
