<svg width="375" height="114" viewBox="0 0 375 114" fill="none" xmlns="http://www.w3.org/2000/svg">
<g clip-path="url(#clip0_10938_10797)">
<path opacity="0.1" d="M176.86 14.4038C176.016 14.0743 175.292 13.6074 174.69 13.0031C174.087 12.3988 173.611 11.7268 173.263 10.9869C172.954 10.2292 172.782 9.42403 172.746 8.57127C172.71 7.7185 172.851 6.88456 173.169 6.06945L173.306 5.72012C174.3 3.25704 175.719 1.127 177.561 -0.669999C179.414 -2.49611 181.483 -3.88589 183.767 -4.83933C186.092 -5.81052 188.542 -6.33011 191.118 -6.39811C193.706 -6.49522 196.251 -6.05518 198.755 -5.07799C201.258 -4.10081 203.429 -2.70011 205.266 -0.875887C207.133 0.959698 208.587 3.03667 209.628 5.35503C210.668 7.67339 211.232 10.1408 211.317 12.7573C211.444 15.3561 211.012 17.9218 210.024 20.4545C209.069 22.8998 207.691 25.0121 205.89 26.7914C204.129 28.5529 202.121 29.916 199.866 30.8808C197.61 31.8456 195.213 32.4025 192.672 32.5515C190.143 32.6713 187.647 32.3179 185.186 31.4912L184.828 32.4082C184.498 33.2524 184.046 33.9816 183.471 34.5958C182.907 35.1808 182.27 35.6533 181.559 36.0133C180.859 36.3441 180.098 36.5333 179.274 36.5808C178.462 36.5992 177.648 36.4493 176.833 36.1312C175.989 35.8017 175.26 35.3493 174.646 34.7741C174.043 34.1699 173.582 33.5034 173.262 32.7749C172.954 32.0173 172.776 31.2266 172.729 30.403C172.722 29.5616 172.883 28.7188 173.213 27.8746L175.837 21.1499C176.155 20.3348 176.596 19.6347 177.16 19.0497C177.765 18.4469 178.431 17.9858 179.159 17.6663C179.917 17.3582 180.702 17.1949 181.514 17.1765C182.367 17.1403 183.216 17.287 184.06 17.6165L189.125 19.5936C189.998 19.9345 190.905 20.1039 191.845 20.1018C192.797 20.0707 193.686 19.8978 194.513 19.5833C195.381 19.2511 196.152 18.7804 196.826 18.1712C197.54 17.5443 198.068 16.7942 198.408 15.9208C198.738 15.0766 198.902 14.1844 198.9 13.2443C198.927 12.3156 198.768 11.4319 198.425 10.5934C198.093 9.72567 197.578 8.93784 196.882 8.22988C196.185 7.52192 195.313 6.96342 194.265 6.55436C193.392 6.21349 192.465 6.05296 191.484 6.07277C190.544 6.07484 189.634 6.25655 188.755 6.61791C187.888 6.95015 187.1 7.46453 186.392 8.16104C185.695 8.82843 185.159 9.64246 184.785 10.6031C184.466 11.4182 184.02 12.1329 183.445 12.747C182.898 13.3725 182.27 13.8653 181.559 14.2252C180.86 14.556 180.098 14.7452 179.275 14.7927C178.48 14.8516 177.675 14.722 176.86 14.4038ZM167.243 42.653C167.572 41.8088 168.025 41.0796 168.6 40.4655C169.216 39.8336 169.902 39.3636 170.66 39.0554C171.429 38.7182 172.24 38.5315 173.093 38.4954C173.945 38.4592 174.794 38.6059 175.638 38.9354C176.453 39.2536 177.162 39.7148 177.765 40.3191C178.368 40.9234 178.838 41.61 179.175 42.379C179.523 43.1189 179.71 43.9298 179.735 44.8117C179.771 45.6644 179.624 46.5129 179.295 47.3571C178.977 48.1722 178.516 48.8812 177.911 49.484C177.307 50.0868 176.62 50.5568 175.851 50.894C175.082 51.2312 174.271 51.4179 173.419 51.4541C172.566 51.4902 171.732 51.3492 170.917 51.0311C170.073 50.7015 169.349 50.2346 168.746 49.6304C168.144 49.0261 167.674 48.3394 167.336 47.5704C166.999 46.8014 166.812 45.9906 166.776 45.1378C166.769 44.2964 166.925 43.4681 167.243 42.653ZM258.08 46.1055C257.236 45.776 256.512 45.3091 255.91 44.7048C255.307 44.1005 254.831 43.4284 254.482 42.6885C254.174 41.9309 254.002 41.1257 253.966 40.2729C253.93 39.4201 254.071 38.5862 254.389 37.7711L254.525 37.4218C255.52 34.9587 256.939 32.8286 258.781 31.0316C260.634 29.2055 262.703 27.8157 264.987 26.8623C267.312 25.8911 269.762 25.3715 272.338 25.3035C274.926 25.2064 277.471 25.6465 279.975 26.6236C282.478 27.6008 284.649 29.0015 286.486 30.8257C288.353 32.6613 289.807 34.7383 290.847 37.0567C291.888 39.375 292.451 41.8425 292.537 44.459C292.663 47.0578 292.232 49.6235 291.244 52.1561C290.289 54.6015 288.911 56.7138 287.11 58.493C285.349 60.2545 283.341 61.6177 281.085 62.5825C278.83 63.5473 276.432 64.1041 273.892 64.2531C271.363 64.3729 268.867 64.0195 266.406 63.1929L266.048 64.1099C265.718 64.9541 265.266 65.6833 264.691 66.2974C264.127 66.8825 263.49 67.355 262.779 67.7149C262.079 68.0457 261.318 68.2349 260.494 68.2824C259.682 68.3008 258.868 68.151 258.053 67.8328C257.209 67.5033 256.48 67.051 255.866 66.4758C255.263 65.8715 254.802 65.2051 254.482 64.4766C254.174 63.7189 253.996 62.9283 253.949 62.1046C253.942 61.2632 254.103 60.4204 254.432 59.5762L257.057 52.8515C257.375 52.0364 257.816 51.3363 258.38 50.7513C258.984 50.1485 259.651 49.6874 260.379 49.3679C261.137 49.0598 261.922 48.8965 262.734 48.8781C263.587 48.842 264.435 48.9887 265.28 49.3182L270.345 51.2953C271.218 51.6361 272.125 51.8055 273.065 51.8035C274.017 51.7723 274.906 51.5995 275.733 51.285C276.601 50.9527 277.372 50.482 278.046 49.8728C278.76 49.2459 279.287 48.4958 279.628 47.6225C279.958 46.7782 280.122 45.8861 280.12 44.946C280.147 44.0172 279.988 43.1336 279.645 42.295C279.312 41.4273 278.798 40.6395 278.102 39.9315C277.405 39.2236 276.533 38.6651 275.485 38.256C274.611 37.9151 273.685 37.7546 272.704 37.7744C271.764 37.7765 270.854 37.9582 269.975 38.3195C269.108 38.6518 268.32 39.1662 267.612 39.8627C266.915 40.5301 266.379 41.3441 266.004 42.3048C265.686 43.1199 265.24 43.8345 264.664 44.4487C264.118 45.0742 263.49 45.5669 262.779 45.9268C262.08 46.2577 261.318 46.4469 260.495 46.4944C259.7 46.5533 258.895 46.4236 258.08 46.1055ZM248.463 74.3547C248.792 73.5104 249.245 72.7812 249.82 72.1671C250.435 71.5352 251.122 71.0652 251.88 70.7571C252.649 70.4199 253.46 70.2332 254.312 70.197C255.165 70.1609 256.014 70.3075 256.858 70.6371C257.673 70.9552 258.382 71.4164 258.985 72.0207C259.588 72.625 260.058 73.3116 260.395 74.0806C260.743 74.8205 260.93 75.6314 260.955 76.5133C260.991 77.3661 260.844 78.2145 260.515 79.0588C260.197 79.8739 259.735 80.5828 259.131 81.1856C258.527 81.7884 257.84 82.2584 257.071 82.5956C256.302 82.9328 255.491 83.1195 254.639 83.1557C253.786 83.1919 252.952 83.0509 252.137 82.7327C251.293 82.4032 250.569 81.9363 249.966 81.332C249.363 80.7277 248.893 80.0411 248.556 79.2721C248.219 78.5031 248.032 77.6922 247.996 76.8394C247.989 75.998 248.145 75.1698 248.463 74.3547ZM339.3 77.8071C338.456 77.4776 337.732 77.0107 337.129 76.4064C336.527 75.8021 336.051 75.13 335.702 74.3901C335.394 73.6325 335.222 72.8273 335.186 71.9745C335.15 71.1218 335.291 70.2878 335.609 69.4727L335.745 69.1234C336.74 66.6603 338.159 64.5303 340.001 62.7333C341.854 60.9072 343.923 59.5174 346.207 58.5639C348.532 57.5928 350.982 57.0732 353.558 57.0052C356.146 56.9081 358.691 57.3481 361.195 58.3253C363.698 59.3025 365.869 60.7032 367.706 62.5274C369.573 64.363 371.026 66.4399 372.067 68.7583C373.108 71.0767 373.671 73.5441 373.757 76.1606C373.883 78.7594 373.452 81.3251 372.464 83.8578C371.509 86.3031 370.131 88.4154 368.33 90.1946C366.569 91.9561 364.56 93.3193 362.305 94.2841C360.05 95.2489 357.652 95.8058 355.112 95.9547C352.583 96.0746 350.087 95.7211 347.625 94.8945L347.268 95.8115C346.938 96.6557 346.486 97.3849 345.911 97.9991C345.347 98.5841 344.709 99.0566 343.999 99.4165C343.299 99.7474 342.538 99.9365 341.714 99.9841C340.902 100.002 340.088 99.8526 339.273 99.5344C338.429 99.2049 337.7 98.7526 337.085 98.1774C336.483 97.5731 336.021 96.9067 335.702 96.1782C335.394 95.4206 335.216 94.6299 335.169 93.8063C335.161 92.9649 335.323 92.122 335.652 91.2778L338.277 84.5532C338.595 83.7381 339.036 83.038 339.6 82.4529C340.204 81.8502 340.871 81.389 341.599 81.0696C342.357 80.7614 343.142 80.5982 343.954 80.5798C344.807 80.5436 345.655 80.6903 346.5 81.0198L351.565 82.9969C352.438 83.3378 353.345 83.5072 354.285 83.5051C355.236 83.4739 356.126 83.3011 356.953 82.9866C357.821 82.6544 358.592 82.1836 359.265 81.5745C359.98 80.9476 360.507 80.1974 360.848 79.3241C361.178 78.4799 361.341 77.5877 361.339 76.6476C361.366 75.7189 361.208 74.8352 360.865 73.9966C360.532 73.1289 360.018 72.3411 359.321 71.6332C358.625 70.9252 357.753 70.3667 356.705 69.9576C355.831 69.6168 354.904 69.4562 353.924 69.476C352.984 69.4781 352.074 69.6598 351.195 70.0212C350.327 70.3534 349.54 70.8678 348.832 71.5643C348.135 72.2317 347.599 73.0457 347.224 74.0064C346.906 74.8215 346.459 75.5361 345.884 76.1503C345.338 76.7758 344.71 77.2685 343.999 77.6285C343.3 77.9593 342.538 78.1485 341.714 78.196C340.92 78.2549 340.115 78.1253 339.3 77.8071ZM329.683 106.056C330.012 105.212 330.465 104.483 331.04 103.869C331.655 103.237 332.342 102.767 333.1 102.459C333.869 102.121 334.68 101.935 335.532 101.899C336.385 101.862 337.234 102.009 338.078 102.339C338.893 102.657 339.602 103.118 340.205 103.722C340.807 104.327 341.277 105.013 341.615 105.782C341.963 106.522 342.15 107.333 342.175 108.215C342.211 109.068 342.064 109.916 341.735 110.76C341.416 111.576 340.955 112.284 340.351 112.887C339.747 113.49 339.06 113.96 338.291 114.297C337.522 114.634 336.711 114.821 335.858 114.857C335.006 114.893 334.172 114.752 333.357 114.434C332.512 114.105 331.789 113.638 331.186 113.034C330.583 112.429 330.113 111.743 329.776 110.974C329.439 110.205 329.252 109.394 329.216 108.541C329.209 107.7 329.365 106.871 329.683 106.056Z" fill="#665002"/>
<path opacity="0.1" d="M47.8602 52.4038C47.016 52.0743 46.2924 51.6074 45.6897 51.0031C45.0869 50.3988 44.6112 49.7268 44.2626 48.9869C43.9545 48.2292 43.7824 47.424 43.7462 46.5713C43.71 45.7185 43.851 44.8846 44.1692 44.0695L44.3055 43.7201C45.3005 41.257 46.7189 39.127 48.5609 37.33C50.4142 35.5039 52.483 34.1141 54.7673 33.1607C57.0921 32.1895 59.5425 31.6699 62.1185 31.6019C64.7059 31.5048 67.2514 31.9448 69.7549 32.922C72.2585 33.8992 74.429 35.2999 76.2665 37.1241C78.1331 38.9597 79.5867 41.0367 80.6275 43.355C81.6683 45.6734 82.2315 48.1408 82.3173 50.7573C82.4435 53.3561 82.0123 55.9218 81.0238 58.4545C80.0693 60.8998 78.6914 63.0121 76.8899 64.7914C75.1288 66.5529 73.1208 67.916 70.8656 68.8808C68.6104 69.8456 66.2126 70.4025 63.672 70.5515C61.1428 70.6713 58.6474 70.3179 56.1857 69.4912L55.8278 70.4082C55.4983 71.2524 55.046 71.9816 54.4708 72.5958C53.907 73.1808 53.2697 73.6533 52.5589 74.0133C51.8595 74.3441 51.098 74.5333 50.2743 74.5808C49.462 74.5992 48.6483 74.4493 47.8332 74.1312C46.989 73.8017 46.2598 73.3493 45.6456 72.7741C45.0429 72.1699 44.5817 71.5034 44.2623 70.7749C43.9541 70.0173 43.7763 69.2266 43.7288 68.403C43.7218 67.5616 43.883 66.7188 44.2125 65.8746L46.8373 59.1499C47.1554 58.3348 47.5964 57.6347 48.1602 57.0497C48.7645 56.4469 49.4309 55.9858 50.1594 55.6663C50.9171 55.3582 51.702 55.1949 52.5143 55.1765C53.3671 55.1403 54.2156 55.287 55.0598 55.6165L60.1251 57.5936C60.9985 57.9345 61.9052 58.1039 62.8453 58.1018C63.7967 58.0707 64.6861 57.8978 65.5133 57.5833C66.381 57.2511 67.1518 56.7804 67.8257 56.1712C68.54 55.5443 69.0676 54.7942 69.4085 53.9208C69.738 53.0766 69.9017 52.1844 69.8997 51.2443C69.9267 50.3156 69.7684 49.4319 69.4248 48.5934C69.0926 47.7257 68.5782 46.9378 67.8817 46.2299C67.1852 45.5219 66.3129 44.9634 65.2649 44.5544C64.3916 44.2135 63.4646 44.053 62.4841 44.0728C61.544 44.0748 60.6344 44.2566 59.7553 44.6179C58.8876 44.9502 58.0998 45.4645 57.3919 46.161C56.6953 46.8284 56.1595 47.6425 55.7845 48.6031C55.4664 49.4182 55.0197 50.1329 54.4445 50.747C53.8985 51.3725 53.27 51.8653 52.5593 52.2252C51.8598 52.556 51.0983 52.7452 50.2747 52.7927C49.4801 52.8516 48.6753 52.722 47.8602 52.4038ZM38.2429 80.653C38.5724 79.8088 39.0248 79.0796 39.6 78.4655C40.2156 77.8336 40.9023 77.3636 41.6599 77.0554C42.4289 76.7182 43.2398 76.5315 44.0925 76.4954C44.9453 76.4592 45.7938 76.6059 46.638 76.9354C47.4531 77.2536 48.1621 77.7148 48.7649 78.3191C49.3676 78.9234 49.8377 79.61 50.1749 80.379C50.5235 81.1189 50.7101 81.9298 50.7349 82.8117C50.7711 83.6644 50.6244 84.5129 50.2949 85.3571C49.9767 86.1722 49.5155 86.8812 48.9112 87.484C48.307 88.0868 47.6203 88.5568 46.8513 88.894C46.0823 89.2312 45.2714 89.4179 44.4187 89.4541C43.5659 89.4902 42.732 89.3492 41.9169 89.0311C41.0726 88.7015 40.3491 88.2346 39.7463 87.6304C39.1436 87.0261 38.6735 86.3394 38.3363 85.5704C37.9991 84.8014 37.8124 83.9906 37.7763 83.1378C37.7692 82.2964 37.9248 81.4681 38.2429 80.653ZM129.08 84.1055C128.236 83.776 127.512 83.3091 126.91 82.7048C126.307 82.1005 125.831 81.4284 125.482 80.6885C125.174 79.9309 125.002 79.1257 124.966 78.2729C124.93 77.4201 125.071 76.5862 125.389 75.7711L125.525 75.4218C126.52 72.9587 127.939 70.8286 129.781 69.0316C131.634 67.2055 133.703 65.8157 135.987 64.8623C138.312 63.8911 140.762 63.3715 143.338 63.3035C145.926 63.2064 148.471 63.6465 150.975 64.6236C153.478 65.6008 155.649 67.0015 157.486 68.8257C159.353 70.6613 160.807 72.7383 161.847 75.0567C162.888 77.375 163.451 79.8425 163.537 82.459C163.663 85.0578 163.232 87.6235 162.244 90.1561C161.289 92.6015 159.911 94.7138 158.11 96.493C156.349 98.2545 154.341 99.6177 152.085 100.582C149.83 101.547 147.432 102.104 144.892 102.253C142.363 102.373 139.867 102.02 137.406 101.193L137.048 102.11C136.718 102.954 136.266 103.683 135.691 104.297C135.127 104.882 134.49 105.355 133.779 105.715C133.079 106.046 132.318 106.235 131.494 106.282C130.682 106.301 129.868 106.151 129.053 105.833C128.209 105.503 127.48 105.051 126.866 104.476C126.263 103.871 125.802 103.205 125.482 102.477C125.174 101.719 124.996 100.928 124.949 100.105C124.942 99.2632 125.103 98.4204 125.432 97.5762L128.057 90.8515C128.375 90.0364 128.816 89.3363 129.38 88.7513C129.984 88.1485 130.651 87.6874 131.379 87.3679C132.137 87.0598 132.922 86.8965 133.734 86.8781C134.587 86.842 135.435 86.9887 136.28 87.3182L141.345 89.2953C142.218 89.6361 143.125 89.8055 144.065 89.8035C145.017 89.7723 145.906 89.5995 146.733 89.285C147.601 88.9527 148.372 88.482 149.046 87.8728C149.76 87.2459 150.287 86.4958 150.628 85.6225C150.958 84.7782 151.122 83.8861 151.12 82.946C151.147 82.0172 150.988 81.1336 150.645 80.295C150.312 79.4273 149.798 78.6395 149.102 77.9315C148.405 77.2236 147.533 76.6651 146.485 76.256C145.611 75.9151 144.685 75.7546 143.704 75.7744C142.764 75.7765 141.854 75.9582 140.975 76.3195C140.108 76.6518 139.32 77.1662 138.612 77.8627C137.915 78.5301 137.379 79.3441 137.004 80.3048C136.686 81.1199 136.24 81.8345 135.664 82.4487C135.118 83.0742 134.49 83.5669 133.779 83.9268C133.08 84.2577 132.318 84.4469 131.495 84.4944C130.7 84.5533 129.895 84.4236 129.08 84.1055ZM119.463 112.355C119.792 111.51 120.245 110.781 120.82 110.167C121.435 109.535 122.122 109.065 122.88 108.757C123.649 108.42 124.46 108.233 125.312 108.197C126.165 108.161 127.014 108.308 127.858 108.637C128.673 108.955 129.382 109.416 129.985 110.021C130.588 110.625 131.058 111.312 131.395 112.081C131.743 112.821 131.93 113.631 131.955 114.513C131.991 115.366 131.844 116.215 131.515 117.059C131.197 117.874 130.735 118.583 130.131 119.186C129.527 119.788 128.84 120.258 128.071 120.596C127.302 120.933 126.491 121.12 125.639 121.156C124.786 121.192 123.952 121.051 123.137 120.733C122.293 120.403 121.569 119.936 120.966 119.332C120.363 118.728 119.893 118.041 119.556 117.272C119.219 116.503 119.032 115.692 118.996 114.839C118.989 113.998 119.145 113.17 119.463 112.355ZM210.3 115.807C209.456 115.478 208.732 115.011 208.129 114.406C207.527 113.802 207.051 113.13 206.702 112.39C206.394 111.633 206.222 110.827 206.186 109.975C206.15 109.122 206.291 108.288 206.609 107.473L206.745 107.123C207.74 104.66 209.159 102.53 211.001 100.733C212.854 98.9072 214.923 97.5174 217.207 96.5639C219.532 95.5928 221.982 95.0732 224.558 95.0052C227.146 94.9081 229.691 95.3481 232.195 96.3253C234.698 97.3025 236.869 98.7032 238.706 100.527C240.573 102.363 242.026 104.44 243.067 106.758C244.108 109.077 244.671 111.544 244.757 114.161C244.883 116.759 244.452 119.325 243.464 121.858C242.509 124.303 241.131 126.415 239.33 128.195C237.569 129.956 235.56 131.319 233.305 132.284C231.05 133.249 228.652 133.806 226.112 133.955C223.583 134.075 221.087 133.721 218.625 132.894L218.268 133.811C217.938 134.656 217.486 135.385 216.911 135.999C216.347 136.584 215.709 137.057 214.999 137.417C214.299 137.747 213.538 137.937 212.714 137.984C211.902 138.002 211.088 137.853 210.273 137.534C209.429 137.205 208.7 136.753 208.085 136.177C207.483 135.573 207.021 134.907 206.702 134.178C206.394 133.421 206.216 132.63 206.169 131.806C206.161 130.965 206.323 130.122 206.652 129.278L209.277 122.553C209.595 121.738 210.036 121.038 210.6 120.453C211.204 119.85 211.871 119.389 212.599 119.07C213.357 118.761 214.142 118.598 214.954 118.58C215.807 118.544 216.655 118.69 217.5 119.02L222.565 120.997C223.438 121.338 224.345 121.507 225.285 121.505C226.236 121.474 227.126 121.301 227.953 120.987C228.821 120.654 229.592 120.184 230.265 119.574C230.98 118.948 231.507 118.197 231.848 117.324C232.178 116.48 232.341 115.588 232.339 114.648C232.366 113.719 232.208 112.835 231.865 111.997C231.532 111.129 231.018 110.341 230.321 109.633C229.625 108.925 228.753 108.367 227.705 107.958C226.831 107.617 225.904 107.456 224.924 107.476C223.984 107.478 223.074 107.66 222.195 108.021C221.327 108.353 220.54 108.868 219.832 109.564C219.135 110.232 218.599 111.046 218.224 112.006C217.906 112.822 217.459 113.536 216.884 114.15C216.338 114.776 215.71 115.269 214.999 115.628C214.3 115.959 213.538 116.148 212.714 116.196C211.92 116.255 211.115 116.125 210.3 115.807ZM200.683 144.056C201.012 143.212 201.465 142.483 202.04 141.869C202.655 141.237 203.342 140.767 204.1 140.459C204.869 140.121 205.68 139.935 206.532 139.899C207.385 139.862 208.234 140.009 209.078 140.339C209.893 140.657 210.602 141.118 211.205 141.722C211.807 142.327 212.277 143.013 212.615 143.782C212.963 144.522 213.15 145.333 213.175 146.215C213.211 147.068 213.064 147.916 212.735 148.76C212.416 149.576 211.955 150.284 211.351 150.887C210.747 151.49 210.06 151.96 209.291 152.297C208.522 152.634 207.711 152.821 206.858 152.857C206.006 152.893 205.172 152.752 204.357 152.434C203.512 152.105 202.789 151.638 202.186 151.034C201.583 150.429 201.113 149.743 200.776 148.974C200.439 148.205 200.252 147.394 200.216 146.541C200.209 145.7 200.365 144.871 200.683 144.056Z" fill="#665002"/>
</g>
<defs>
<clipPath id="clip0_10938_10797">
<rect width="375" height="114" fill="white"/>
</clipPath>
</defs>
</svg>
